{"glyphs":{"0":{"ha":799,"x_min":47,"x_max":752,"o":"m 394 -17 q 47 471 47 -17 q 141 856 47 724 q 413 989 235 989 q 752 493 752 989 q 660 115 752 246 q 394 -17 567 -17 m 404 825 q 264 476 264 825 q 401 147 264 147 q 534 486 534 147 q 404 825 534 825 z "},"1":{"ha":799,"x_min":144,"x_max":564,"o":"m 564 994 l 564 0 l 351 0 l 351 753 q 309 723 333 737 q 258 698 285 709 q 201 679 231 687 q 144 668 172 671 l 144 848 q 301 911 227 873 q 435 994 375 949 l 564 994 z "},"2":{"ha":799,"x_min":56,"x_max":705,"o":"m 291 178 l 703 178 l 703 0 l 56 0 l 56 73 q 81 207 56 148 q 144 314 106 267 q 228 397 182 361 q 313 463 273 433 q 388 521 356 493 q 443 576 420 549 q 475 632 465 604 q 486 692 486 660 q 451 786 486 754 q 343 818 416 818 q 103 718 218 818 l 103 907 q 389 989 230 989 q 522 969 463 989 q 621 914 581 950 q 683 827 662 878 q 705 713 705 776 q 684 593 705 646 q 629 498 663 541 q 550 420 595 456 q 457 351 505 385 q 394 306 425 328 q 341 261 364 283 q 304 218 318 239 q 291 178 291 197 z "},"3":{"ha":799,"x_min":79,"x_max":699,"o":"m 79 32 l 79 218 q 307 147 177 147 q 435 182 389 147 q 481 281 481 218 q 424 381 481 346 q 269 416 368 416 l 178 416 l 178 581 l 262 581 q 452 707 452 581 q 306 825 452 825 q 116 762 208 825 l 116 937 q 355 989 218 989 q 587 922 504 989 q 670 747 670 854 q 477 509 670 557 l 477 505 q 640 430 580 492 q 699 278 699 368 q 600 62 699 142 q 324 -17 500 -17 q 79 32 174 -17 z "},"4":{"ha":799,"x_min":26,"x_max":762,"o":"m 646 972 l 646 359 l 762 359 l 762 199 l 646 199 l 646 0 l 450 0 l 450 199 l 26 199 l 26 367 q 143 505 83 430 q 260 659 203 580 q 365 819 316 739 q 447 972 413 899 l 646 972 m 218 359 l 450 359 l 450 699 q 399 610 427 655 q 340 521 371 565 q 279 436 310 477 q 218 359 248 395 z "},"5":{"ha":799,"x_min":96,"x_max":707,"o":"m 96 25 l 96 208 q 309 147 196 147 q 441 188 393 147 q 489 297 489 228 q 285 441 489 441 q 111 430 210 441 l 148 972 l 663 972 l 663 798 l 311 798 l 298 603 q 388 607 350 607 q 623 528 538 607 q 707 317 707 450 q 606 76 707 170 q 332 -17 505 -17 q 96 25 192 -17 z "},"6":{"ha":799,"x_min":68,"x_max":753,"o":"m 753 323 q 728 189 753 252 q 658 81 703 127 q 551 9 613 35 q 416 -17 490 -17 q 270 14 334 -17 q 160 102 205 44 q 92 244 115 160 q 68 435 68 328 q 99 662 68 560 q 187 837 130 764 q 326 949 244 909 q 509 989 407 989 q 684 962 621 989 l 684 783 q 522 825 610 825 q 424 804 468 825 q 348 745 380 783 q 299 651 317 706 q 279 530 281 597 l 283 530 q 488 625 353 625 q 597 604 548 625 q 680 542 646 582 q 734 447 715 503 q 753 323 753 391 m 543 310 q 415 467 543 467 q 362 456 386 467 q 321 425 338 445 q 295 379 304 406 q 286 319 286 352 q 296 252 286 283 q 322 198 305 221 q 363 161 340 174 q 416 147 387 147 q 469 159 446 147 q 509 192 492 171 q 534 244 526 214 q 543 310 543 274 z "},"7":{"ha":799,"x_min":65,"x_max":742,"o":"m 742 849 q 625 629 677 732 q 534 426 574 526 q 467 223 495 326 q 422 0 439 119 l 198 0 q 248 218 217 113 q 320 422 279 323 q 411 614 361 521 q 517 798 461 708 l 65 798 l 65 972 l 742 972 l 742 849 z "},"8":{"ha":799,"x_min":54,"x_max":745,"o":"m 54 262 q 66 340 54 302 q 102 410 78 378 q 161 468 125 442 q 245 509 197 493 q 130 603 171 546 q 90 730 90 661 q 113 833 90 786 q 178 916 136 881 q 276 969 219 950 q 401 989 334 989 q 528 969 471 989 q 628 916 586 950 q 692 835 669 882 q 715 733 715 788 q 672 607 715 664 q 552 514 629 551 q 635 472 600 498 q 696 414 671 447 q 732 343 720 382 q 745 264 745 305 q 720 150 745 201 q 649 62 694 99 q 539 5 603 25 q 399 -16 476 -16 q 261 4 324 -16 q 152 61 197 24 q 80 149 106 98 q 54 262 54 200 m 257 280 q 267 220 257 247 q 296 176 277 194 q 341 148 315 157 q 400 138 368 138 q 457 148 431 138 q 503 176 484 158 q 532 221 522 195 q 543 280 543 248 q 533 336 543 309 q 504 381 523 362 q 459 412 485 401 q 400 424 433 424 q 343 413 370 424 q 298 384 317 403 q 268 338 279 364 q 257 280 257 311 m 287 711 q 296 662 287 685 q 321 623 305 640 q 358 597 336 606 q 403 587 379 587 q 448 597 427 587 q 485 623 469 606 q 510 663 501 640 q 519 711 519 685 q 511 760 519 737 q 486 799 502 783 q 449 825 470 816 q 403 835 427 835 q 356 825 377 835 q 319 799 334 815 q 295 759 304 782 q 287 711 287 736 z "},"9":{"ha":799,"x_min":53,"x_max":737,"o":"m 737 533 q 709 301 737 404 q 626 129 680 199 q 492 21 571 58 q 314 -17 414 -17 q 109 21 195 -17 l 109 197 q 293 147 185 147 q 466 222 404 147 q 529 440 528 298 l 525 441 q 329 346 460 346 q 219 368 269 346 q 131 430 168 391 q 74 525 94 470 q 53 646 53 580 q 78 785 53 722 q 148 894 103 848 q 256 964 193 939 q 396 989 319 989 q 538 958 475 989 q 646 869 602 927 q 714 726 690 810 q 737 533 737 641 m 521 647 q 511 717 521 684 q 485 774 502 750 q 444 811 468 798 q 390 825 419 825 q 339 813 362 825 q 298 780 315 801 q 272 728 281 758 q 262 664 262 699 q 272 596 262 626 q 299 547 281 567 q 340 516 316 526 q 395 505 365 505 q 446 516 423 505 q 486 547 469 528 q 512 591 503 566 q 521 647 521 617 z "},"\u0000":{"ha":0,"x_min":0,"x_max":0,"o":""},"\r":{"ha":0,"x_min":0,"x_max":0,"o":""}," ":{"ha":383,"x_min":0,"x_max":0,"o":""},"A":{"ha":977,"x_min":7,"x_max":966,"o":"m 966 0 l 728 0 l 659 216 l 313 216 l 244 0 l 7 0 l 361 972 l 621 972 l 966 0 m 608 385 l 504 711 q 488 799 492 748 l 482 799 q 465 714 479 756 l 359 385 l 608 385 z "},"B":{"ha":890,"x_min":111,"x_max":842,"o":"m 111 0 l 111 972 l 465 972 q 715 913 628 972 q 803 745 803 853 q 750 607 803 666 q 614 525 696 548 l 614 522 q 780 446 718 509 q 842 290 842 382 q 746 78 842 157 q 485 0 650 0 l 111 0 m 330 811 l 330 581 l 427 581 q 533 613 494 581 q 572 704 572 646 q 412 811 572 811 l 330 811 m 330 418 l 330 161 l 449 161 q 568 197 525 161 q 611 293 611 232 q 569 385 611 351 q 450 418 526 418 l 330 418 z "},"C":{"ha":867,"x_min":50,"x_max":808,"o":"m 808 35 q 530 -17 702 -17 q 178 115 307 -17 q 50 465 50 246 q 194 844 50 699 q 568 989 338 989 q 808 953 711 989 l 808 742 q 586 800 711 800 q 365 714 449 800 q 281 481 281 628 q 360 256 281 340 q 574 172 439 172 q 808 235 702 172 l 808 35 z "},"D":{"ha":1024,"x_min":111,"x_max":974,"o":"m 111 0 l 111 972 l 456 972 q 974 498 974 972 q 832 136 974 271 q 456 0 691 0 l 111 0 m 330 794 l 330 178 l 439 178 q 662 263 581 178 q 743 496 743 349 q 663 714 743 635 q 437 794 583 794 l 330 794 z "},"E":{"ha":739,"x_min":111,"x_max":694,"o":"m 694 0 l 111 0 l 111 972 l 672 972 l 672 794 l 330 794 l 330 578 l 648 578 l 648 400 l 330 400 l 330 178 l 694 178 l 694 0 z "},"F":{"ha":722,"x_min":111,"x_max":673,"o":"m 673 794 l 330 794 l 330 555 l 646 555 l 646 378 l 330 378 l 330 0 l 111 0 l 111 972 l 673 972 l 673 794 z "},"G":{"ha":987,"x_min":50,"x_max":909,"o":"m 909 65 q 555 -17 767 -17 q 185 113 321 -17 q 50 471 50 243 q 198 844 50 700 q 591 989 346 989 q 864 946 746 989 l 864 741 q 589 806 751 806 q 367 717 452 806 q 281 481 281 629 q 358 249 281 331 q 566 167 435 167 q 690 189 644 167 l 690 379 l 496 379 l 496 554 l 909 554 l 909 65 z "},"H":{"ha":1064,"x_min":111,"x_max":953,"o":"m 953 0 l 733 0 l 733 396 l 330 396 l 330 0 l 111 0 l 111 972 l 330 972 l 330 585 l 733 585 l 733 972 l 953 972 l 953 0 z "},"I":{"ha":440,"x_min":111,"x_max":330,"o":"m 330 0 l 111 0 l 111 972 l 330 972 l 330 0 z "},"J":{"ha":618,"x_min":22,"x_max":517,"o":"m 517 386 q 426 87 517 191 q 164 -17 336 -17 q 22 9 87 -17 l 22 215 q 149 172 79 172 q 298 395 298 172 l 298 972 l 517 972 l 517 386 z "},"K":{"ha":901,"x_min":111,"x_max":920,"o":"m 920 0 l 643 0 l 359 422 q 334 476 351 435 l 330 476 l 330 0 l 111 0 l 111 972 l 330 972 l 330 513 l 334 513 q 361 567 342 532 l 629 972 l 890 972 l 551 509 l 920 0 z "},"L":{"ha":710,"x_min":111,"x_max":690,"o":"m 690 0 l 111 0 l 111 972 l 330 972 l 330 178 l 690 178 l 690 0 z "},"M":{"ha":1329,"x_min":111,"x_max":1219,"o":"m 1219 0 l 1003 0 l 1003 582 q 1011 790 1003 676 l 1006 790 q 975 661 989 701 l 747 0 l 568 0 l 336 654 q 306 790 327 681 l 300 790 q 309 538 309 646 l 309 0 l 111 0 l 111 972 l 432 972 l 631 396 q 665 257 654 327 l 669 257 q 708 397 688 338 l 907 972 l 1219 972 l 1219 0 z "},"N":{"ha":1097,"x_min":111,"x_max":986,"o":"m 986 0 l 765 0 l 364 611 q 315 692 329 665 l 313 692 q 318 534 318 640 l 318 0 l 111 0 l 111 972 l 347 972 l 733 380 q 782 301 760 340 l 785 301 q 779 435 779 335 l 779 972 l 986 972 l 986 0 z "},"O":{"ha":1053,"x_min":50,"x_max":1003,"o":"m 522 -17 q 182 119 313 -17 q 50 473 50 255 q 184 846 50 704 q 538 989 317 989 q 874 852 746 989 q 1003 493 1003 716 q 870 123 1003 264 q 522 -17 736 -17 m 532 800 q 349 714 416 800 q 281 485 281 627 q 349 256 281 340 q 526 172 416 172 q 706 254 640 172 q 772 481 772 336 q 708 716 772 632 q 532 800 644 800 z "},"P":{"ha":853,"x_min":111,"x_max":822,"o":"m 330 335 l 330 0 l 111 0 l 111 972 l 454 972 q 822 663 822 972 q 716 426 822 516 q 435 335 611 335 l 330 335 m 330 804 l 330 501 l 416 501 q 591 654 591 501 q 416 804 591 804 l 330 804 z "},"Q":{"ha":1053,"x_min":50,"x_max":1098,"o":"m 522 -17 q 182 119 313 -17 q 50 473 50 256 q 184 846 50 703 q 538 989 317 989 q 874 852 746 989 q 1003 493 1003 717 q 869 123 1003 264 q 861 114 865 119 q 852 106 857 110 l 1098 -131 l 791 -131 l 663 0 q 522 -17 599 -17 m 532 800 q 349 713 417 800 q 281 485 281 627 q 349 256 281 340 q 526 172 416 172 q 706 254 640 172 q 772 481 772 336 q 708 716 772 631 q 532 800 644 800 z "},"R":{"ha":907,"x_min":111,"x_max":927,"o":"m 927 0 l 675 0 l 524 250 q 492 301 507 279 q 460 339 476 323 q 427 364 444 355 q 389 372 410 372 l 330 372 l 330 0 l 111 0 l 111 972 l 458 972 q 812 708 812 972 q 797 614 812 657 q 753 536 781 571 q 684 477 724 502 q 594 437 644 452 l 594 435 q 636 413 616 428 q 675 377 656 397 q 712 333 694 357 q 743 288 729 310 l 927 0 m 330 808 l 330 538 l 425 538 q 538 578 496 538 q 582 681 582 620 q 429 808 582 808 l 330 808 z "},"S":{"ha":779,"x_min":62,"x_max":730,"o":"m 66 37 l 66 254 q 195 180 125 205 q 334 155 264 155 q 407 163 376 155 q 458 183 437 170 q 489 215 479 197 q 499 254 499 233 q 483 304 499 282 q 438 346 467 327 q 372 382 410 365 q 288 418 333 400 q 118 534 174 466 q 62 700 62 603 q 93 830 62 776 q 176 920 123 885 q 298 972 229 956 q 444 989 367 989 q 579 980 520 989 q 687 951 637 970 l 687 749 q 634 779 663 766 q 574 800 605 791 q 514 812 544 808 q 456 817 484 817 q 389 809 419 817 q 337 789 358 802 q 304 759 316 777 q 293 718 293 741 q 306 674 293 694 q 342 638 319 655 q 400 604 366 621 q 477 570 434 587 q 582 518 535 545 q 661 456 628 490 q 712 377 694 421 q 730 273 730 332 q 699 137 730 192 q 615 47 668 81 q 492 -2 562 13 q 344 -17 422 -17 q 192 -3 264 -17 q 66 37 119 10 z "},"T":{"ha":814,"x_min":21,"x_max":794,"o":"m 794 794 l 517 794 l 517 0 l 297 0 l 297 794 l 21 794 l 21 972 l 794 972 l 794 794 z "},"U":{"ha":1004,"x_min":100,"x_max":904,"o":"m 904 421 q 496 -17 904 -17 q 100 411 100 -17 l 100 972 l 319 972 l 319 408 q 504 172 319 172 q 685 400 685 172 l 685 972 l 904 972 l 904 421 z "},"V":{"ha":926,"x_min":7,"x_max":921,"o":"m 921 972 l 586 0 l 338 0 l 7 972 l 243 972 l 446 296 q 465 199 462 241 l 469 199 q 490 298 474 244 l 692 972 l 921 972 z "},"W":{"ha":1396,"x_min":12,"x_max":1383,"o":"m 1383 972 l 1126 0 l 884 0 l 722 624 q 707 733 709 673 l 704 733 q 686 624 698 667 l 521 0 l 268 0 l 12 972 l 252 972 l 389 325 q 401 214 397 283 l 406 214 q 425 328 408 266 l 602 972 l 836 972 l 996 319 q 1011 215 1004 283 l 1014 215 q 1028 323 1017 269 l 1162 972 l 1383 972 z "},"X":{"ha":910,"x_min":4,"x_max":905,"o":"m 905 0 l 646 0 l 478 317 q 458 382 469 334 l 456 382 q 433 314 451 359 l 265 0 l 4 0 l 314 486 l 31 972 l 297 972 l 436 681 q 465 599 452 646 l 468 599 q 498 684 476 627 l 653 972 l 897 972 l 606 490 l 905 0 z "},"Y":{"ha":843,"x_min":0,"x_max":844,"o":"m 844 972 l 528 346 l 528 0 l 309 0 l 309 342 l 0 972 l 250 972 l 407 610 q 429 530 411 600 l 432 530 q 453 607 441 579 l 612 972 l 844 972 z "},"Z":{"ha":843,"x_min":28,"x_max":811,"o":"m 811 0 l 28 0 l 28 126 l 526 794 l 64 794 l 64 972 l 810 972 l 810 850 l 322 178 l 811 178 l 811 0 z "},"À":{"ha":977,"x_min":7,"x_max":966,"o":"m 966 0 l 728 0 l 659 216 l 313 216 l 244 0 l 7 0 l 361 972 l 621 972 l 966 0 m 608 385 l 504 711 q 488 799 492 748 l 482 799 q 465 714 479 756 l 359 385 l 608 385 m 621 1063 l 467 1063 l 254 1282 l 445 1282 l 621 1063 z "},"Á":{"ha":977,"x_min":7,"x_max":966,"o":"m 966 0 l 728 0 l 659 216 l 313 216 l 244 0 l 7 0 l 361 972 l 621 972 l 966 0 m 608 385 l 504 711 q 488 799 492 748 l 482 799 q 465 714 479 756 l 359 385 l 608 385 m 703 1282 l 490 1063 l 336 1063 l 512 1282 l 703 1282 z "},"Â":{"ha":977,"x_min":7,"x_max":966,"o":"m 966 0 l 728 0 l 659 216 l 313 216 l 244 0 l 7 0 l 361 972 l 621 972 l 966 0 m 608 385 l 504 711 q 488 799 492 748 l 482 799 q 465 714 479 756 l 359 385 l 608 385 m 731 1063 l 591 1063 l 484 1190 l 384 1063 l 243 1063 l 403 1283 l 571 1283 l 731 1063 z "},"Ã":{"ha":977,"x_min":7,"x_max":966,"o":"m 966 0 l 728 0 l 659 216 l 313 216 l 244 0 l 7 0 l 361 972 l 621 972 l 966 0 m 608 385 l 504 711 q 488 799 492 748 l 482 799 q 465 714 479 756 l 359 385 l 608 385 m 730 1274 q 693 1127 730 1179 q 590 1075 655 1075 q 476 1104 532 1075 q 393 1136 416 1136 q 338 1063 338 1136 l 243 1063 q 280 1209 243 1157 q 385 1261 317 1261 q 498 1228 439 1261 q 580 1198 552 1198 q 633 1274 633 1198 l 730 1274 z "},"Ä":{"ha":977,"x_min":7,"x_max":966,"o":"m 966 0 l 728 0 l 659 216 l 313 216 l 244 0 l 7 0 l 361 972 l 621 972 l 966 0 m 608 385 l 504 711 q 488 799 492 748 l 482 799 q 465 714 479 756 l 359 385 l 608 385 m 641 1063 q 566 1089 595 1063 q 537 1156 537 1116 q 566 1223 537 1197 q 641 1249 595 1249 q 716 1222 686 1249 q 745 1156 745 1196 q 716 1089 745 1115 q 641 1063 687 1063 m 330 1063 q 255 1089 284 1063 q 226 1156 226 1116 q 256 1222 226 1196 q 330 1249 286 1249 q 405 1222 376 1249 q 434 1156 434 1196 q 405 1088 434 1114 q 330 1063 376 1063 z "},"Å":{"ha":977,"x_min":7,"x_max":966,"o":"m 966 0 l 728 0 l 659 216 l 313 216 l 244 0 l 7 0 l 354 954 q 318 1047 318 991 q 368 1162 318 1119 q 490 1204 418 1204 q 615 1161 568 1204 q 663 1050 663 1118 q 627 957 663 996 l 966 0 m 488 1116 q 437 1096 456 1116 q 418 1048 418 1077 q 488 982 418 982 q 540 1001 520 982 q 559 1048 559 1021 q 539 1097 559 1078 q 488 1116 519 1116 m 606 396 l 503 711 q 488 793 494 739 l 482 793 q 467 714 477 747 l 363 396 l 606 396 z "},"Æ":{"ha":1299,"x_min":-1,"x_max":1254,"o":"m 1254 0 l 672 0 l 672 216 l 353 216 l 253 0 l -1 0 l 490 972 l 1232 972 l 1232 794 l 890 794 l 890 578 l 1208 578 l 1208 400 l 890 400 l 890 178 l 1254 178 l 1254 0 m 672 385 l 672 794 l 619 794 l 428 385 l 672 385 z "},"Ç":{"ha":867,"x_min":50,"x_max":808,"o":"m 808 35 q 530 -17 702 -17 q 178 115 307 -17 q 50 465 50 246 q 194 844 50 699 q 568 989 338 989 q 808 953 711 989 l 808 742 q 586 800 711 800 q 365 714 449 800 q 281 481 281 628 q 360 256 281 340 q 574 172 439 172 q 808 235 702 172 l 808 35 m 414 -306 l 414 -212 q 463 -216 437 -216 q 546 -167 546 -216 q 471 -122 546 -122 q 446 -123 462 -122 l 446 0 l 562 0 l 562 -56 q 689 -168 689 -61 q 473 -309 689 -309 q 414 -306 442 -309 z "},"È":{"ha":739,"x_min":111,"x_max":694,"o":"m 694 0 l 111 0 l 111 972 l 672 972 l 672 794 l 330 794 l 330 578 l 648 578 l 648 400 l 330 400 l 330 178 l 694 178 l 694 0 m 519 1063 l 366 1063 l 153 1282 l 343 1282 l 519 1063 z "},"É":{"ha":739,"x_min":111,"x_max":694,"o":"m 694 0 l 111 0 l 111 972 l 672 972 l 672 794 l 330 794 l 330 578 l 648 578 l 648 400 l 330 400 l 330 178 l 694 178 l 694 0 m 633 1282 l 421 1063 l 267 1063 l 443 1282 l 633 1282 z "},"Ê":{"ha":739,"x_min":111,"x_max":694,"o":"m 694 0 l 111 0 l 111 972 l 672 972 l 672 794 l 330 794 l 330 578 l 648 578 l 648 400 l 330 400 l 330 178 l 694 178 l 694 0 m 632 1063 l 492 1063 l 385 1190 l 285 1063 l 144 1063 l 304 1283 l 472 1283 l 632 1063 z "},"Ë":{"ha":739,"x_min":111,"x_max":694,"o":"m 694 0 l 111 0 l 111 972 l 672 972 l 672 794 l 330 794 l 330 578 l 648 578 l 648 400 l 330 400 l 330 178 l 694 178 l 694 0 m 551 1063 q 476 1089 505 1063 q 447 1156 447 1116 q 476 1223 447 1197 q 551 1249 505 1249 q 626 1222 596 1249 q 655 1156 655 1196 q 626 1089 655 1115 q 551 1063 597 1063 m 240 1063 q 165 1089 194 1063 q 136 1156 136 1116 q 165 1222 136 1196 q 240 1249 195 1249 q 315 1222 286 1249 q 344 1156 344 1196 q 315 1088 344 1114 q 240 1063 286 1063 z "},"Ì":{"ha":440,"x_min":-4,"x_max":363,"o":"m 330 0 l 111 0 l 111 972 l 330 972 l 330 0 m 363 1063 l 209 1063 l -4 1282 l 186 1282 l 363 1063 z "},"Í":{"ha":440,"x_min":75,"x_max":441,"o":"m 330 0 l 111 0 l 111 972 l 330 972 l 330 0 m 441 1282 l 229 1063 l 75 1063 l 251 1282 l 441 1282 z "},"Î":{"ha":440,"x_min":-17,"x_max":471,"o":"m 330 0 l 111 0 l 111 972 l 330 972 l 330 0 m 471 1063 l 330 1063 l 223 1190 l 123 1063 l -17 1063 l 142 1283 l 311 1283 l 471 1063 z "},"Ï":{"ha":440,"x_min":-34,"x_max":486,"o":"m 330 0 l 111 0 l 111 972 l 330 972 l 330 0 m 381 1063 q 307 1089 336 1063 q 277 1156 277 1116 q 307 1223 277 1197 q 381 1249 336 1249 q 456 1222 427 1249 q 486 1156 486 1196 q 456 1089 486 1115 q 381 1063 427 1063 m 71 1063 q -5 1089 24 1063 q -34 1156 -34 1116 q -4 1222 -34 1196 q 71 1249 26 1249 q 145 1222 117 1249 q 174 1156 174 1196 q 145 1088 174 1114 q 71 1063 117 1063 z "},"Ñ":{"ha":1097,"x_min":111,"x_max":986,"o":"m 986 0 l 765 0 l 364 611 q 315 692 329 665 l 313 692 q 318 534 318 640 l 318 0 l 111 0 l 111 972 l 347 972 l 733 380 q 782 301 760 340 l 785 301 q 779 435 779 335 l 779 972 l 986 972 l 986 0 m 818 1274 q 780 1127 818 1179 q 677 1075 743 1075 q 564 1104 619 1075 q 480 1136 503 1136 q 426 1063 426 1136 l 330 1063 q 368 1209 330 1157 q 472 1261 405 1261 q 586 1228 527 1261 q 667 1198 640 1198 q 720 1274 720 1198 l 818 1274 z "},"Ò":{"ha":1053,"x_min":50,"x_max":1003,"o":"m 522 -17 q 182 119 313 -17 q 50 473 50 255 q 184 846 50 704 q 538 989 317 989 q 874 852 746 989 q 1003 493 1003 716 q 870 123 1003 264 q 522 -17 736 -17 m 532 800 q 349 714 416 800 q 281 485 281 627 q 349 256 281 340 q 526 172 416 172 q 706 254 640 172 q 772 481 772 336 q 708 716 772 632 q 532 800 644 800 m 659 1063 l 505 1063 l 292 1282 l 482 1282 l 659 1063 z "},"Ó":{"ha":1053,"x_min":50,"x_max":1003,"o":"m 522 -17 q 182 119 313 -17 q 50 473 50 255 q 184 846 50 704 q 538 989 317 989 q 874 852 746 989 q 1003 493 1003 716 q 870 123 1003 264 q 522 -17 736 -17 m 532 800 q 349 714 416 800 q 281 485 281 627 q 349 256 281 340 q 526 172 416 172 q 706 254 640 172 q 772 481 772 336 q 708 716 772 632 q 532 800 644 800 m 753 1282 l 541 1063 l 386 1063 l 562 1282 l 753 1282 z "},"Ô":{"ha":1053,"x_min":50,"x_max":1003,"o":"m 522 -17 q 182 119 313 -17 q 50 473 50 255 q 184 846 50 704 q 538 989 317 989 q 874 852 746 989 q 1003 493 1003 716 q 870 123 1003 264 q 522 -17 736 -17 m 532 800 q 349 714 416 800 q 281 485 281 627 q 349 256 281 340 q 526 172 416 172 q 706 254 640 172 q 772 481 772 336 q 708 716 772 632 q 532 800 644 800 m 779 1063 l 639 1063 l 532 1190 l 432 1063 l 292 1063 l 451 1283 l 619 1283 l 779 1063 z "},"Õ":{"ha":1053,"x_min":50,"x_max":1003,"o":"m 522 -17 q 182 119 313 -17 q 50 473 50 255 q 184 846 50 704 q 538 989 317 989 q 874 852 746 989 q 1003 493 1003 716 q 870 123 1003 264 q 522 -17 736 -17 m 532 800 q 349 714 416 800 q 281 485 281 627 q 349 256 281 340 q 526 172 416 172 q 706 254 640 172 q 772 481 772 336 q 708 716 772 632 q 532 800 644 800 m 778 1274 q 740 1127 778 1179 q 637 1075 703 1075 q 524 1104 579 1075 q 440 1136 463 1136 q 386 1063 386 1136 l 290 1063 q 328 1209 290 1157 q 432 1261 365 1261 q 546 1228 487 1261 q 627 1198 600 1198 q 680 1274 680 1198 l 778 1274 z "},"Ö":{"ha":1053,"x_min":50,"x_max":1003,"o":"m 522 -17 q 182 119 313 -17 q 50 473 50 255 q 184 846 50 704 q 538 989 317 989 q 874 852 746 989 q 1003 493 1003 716 q 870 123 1003 264 q 522 -17 736 -17 m 532 800 q 349 714 416 800 q 281 485 281 627 q 349 256 281 340 q 526 172 416 172 q 706 254 640 172 q 772 481 772 336 q 708 716 772 632 q 532 800 644 800 m 681 1063 q 606 1089 635 1063 q 577 1156 577 1116 q 606 1223 577 1197 q 681 1249 635 1249 q 756 1222 726 1249 q 785 1156 785 1196 q 756 1089 785 1115 q 681 1063 727 1063 m 370 1063 q 295 1089 324 1063 q 266 1156 266 1116 q 296 1222 266 1196 q 370 1249 326 1249 q 445 1222 416 1249 q 474 1156 474 1196 q 445 1088 474 1114 q 370 1063 416 1063 z "},"Ø":{"ha":1053,"x_min":50,"x_max":1003,"o":"m 236 74 l 139 -41 l 54 29 l 155 149 q 50 473 50 279 q 183 846 50 704 q 538 989 317 989 q 810 908 696 989 l 897 1010 l 982 940 l 890 833 q 1003 493 1003 701 q 870 123 1003 264 q 522 -17 736 -17 q 236 74 359 -17 m 689 766 q 532 818 623 818 q 337 725 409 818 q 265 481 265 633 q 297 310 265 382 l 689 766 m 753 675 l 361 216 q 526 154 429 154 q 717 241 645 154 q 789 479 789 328 q 753 675 789 591 z "},"Œ":{"ha":1305,"x_min":50,"x_max":1261,"o":"m 1261 0 l 700 0 q 621 -8 682 0 q 514 -17 559 -17 q 178 121 306 -17 q 50 473 50 258 q 182 847 50 705 q 532 989 313 989 q 634 981 574 989 q 708 972 694 972 l 1239 972 l 1239 794 l 897 794 l 897 575 l 1215 575 l 1215 396 l 897 396 l 897 178 l 1261 178 l 1261 0 m 672 207 l 672 765 q 530 800 614 800 q 349 712 416 800 q 282 482 282 625 q 351 257 282 341 q 528 172 419 172 q 672 207 606 172 z "},"Š":{"ha":779,"x_min":62,"x_max":730,"o":"m 66 37 l 66 254 q 195 180 125 205 q 334 155 264 155 q 407 163 376 155 q 458 183 437 170 q 489 215 479 197 q 499 254 499 233 q 483 304 499 282 q 438 346 467 327 q 372 382 410 365 q 288 418 333 400 q 118 534 174 466 q 62 700 62 603 q 93 830 62 776 q 176 920 123 885 q 298 972 229 956 q 444 989 367 989 q 579 980 520 989 q 687 951 637 970 l 687 749 q 634 779 663 766 q 574 800 605 791 q 514 812 544 808 q 456 817 484 817 q 389 809 419 817 q 337 789 358 802 q 304 759 316 777 q 293 718 293 741 q 306 674 293 694 q 342 638 319 655 q 400 604 366 621 q 477 570 434 587 q 582 518 535 545 q 661 456 628 490 q 712 377 694 421 q 730 273 730 332 q 699 137 730 192 q 615 47 668 81 q 492 -2 562 13 q 344 -17 422 -17 q 192 -3 264 -17 q 66 37 119 10 m 660 1262 l 498 1042 l 330 1042 l 171 1262 l 310 1262 l 415 1135 l 521 1262 l 660 1262 z "},"Ù":{"ha":1004,"x_min":100,"x_max":904,"o":"m 904 421 q 496 -17 904 -17 q 100 411 100 -17 l 100 972 l 319 972 l 319 408 q 504 172 319 172 q 685 400 685 172 l 685 972 l 904 972 l 904 421 m 624 1063 l 470 1063 l 257 1282 l 448 1282 l 624 1063 z "},"Ú":{"ha":1004,"x_min":100,"x_max":904,"o":"m 904 421 q 496 -17 904 -17 q 100 411 100 -17 l 100 972 l 319 972 l 319 408 q 504 172 319 172 q 685 400 685 172 l 685 972 l 904 972 l 904 421 m 738 1282 l 526 1063 l 371 1063 l 547 1282 l 738 1282 z "},"Û":{"ha":1004,"x_min":100,"x_max":904,"o":"m 904 421 q 496 -17 904 -17 q 100 411 100 -17 l 100 972 l 319 972 l 319 408 q 504 172 319 172 q 685 400 685 172 l 685 972 l 904 972 l 904 421 m 745 1063 l 605 1063 l 498 1190 l 398 1063 l 258 1063 l 417 1283 l 585 1283 l 745 1063 z "},"Ü":{"ha":1004,"x_min":100,"x_max":904,"o":"m 904 421 q 496 -17 904 -17 q 100 411 100 -17 l 100 972 l 319 972 l 319 408 q 504 172 319 172 q 685 400 685 172 l 685 972 l 904 972 l 904 421 m 657 1063 q 583 1089 612 1063 q 553 1156 553 1116 q 583 1223 553 1197 q 657 1249 612 1249 q 732 1222 703 1249 q 762 1156 762 1196 q 732 1089 762 1115 q 657 1063 703 1063 m 347 1063 q 271 1089 300 1063 q 242 1156 242 1116 q 272 1222 242 1196 q 347 1249 302 1249 q 421 1222 393 1249 q 450 1156 450 1196 q 421 1088 450 1114 q 347 1063 393 1063 z "},"Ý":{"ha":843,"x_min":0,"x_max":844,"o":"m 844 972 l 528 346 l 528 0 l 309 0 l 309 342 l 0 972 l 250 972 l 407 610 q 429 530 411 600 l 432 530 q 453 607 441 579 l 612 972 l 844 972 m 612 1259 l 400 1040 l 245 1040 l 422 1259 l 612 1259 z "},"Ÿ":{"ha":843,"x_min":0,"x_max":844,"o":"m 844 972 l 528 346 l 528 0 l 309 0 l 309 342 l 0 972 l 250 972 l 407 610 q 429 530 411 600 l 432 530 q 453 607 441 579 l 612 972 l 844 972 m 582 1063 q 507 1089 536 1063 q 478 1156 478 1116 q 507 1223 478 1197 q 582 1249 536 1249 q 657 1222 627 1249 q 686 1156 686 1196 q 657 1089 686 1115 q 582 1063 628 1063 m 271 1063 q 196 1089 225 1063 q 167 1156 167 1116 q 197 1222 167 1196 q 271 1249 227 1249 q 346 1222 317 1249 q 375 1156 375 1196 q 346 1088 375 1114 q 271 1063 317 1063 z "},"Ž":{"ha":843,"x_min":28,"x_max":811,"o":"m 811 0 l 28 0 l 28 126 l 526 794 l 64 794 l 64 972 l 810 972 l 810 850 l 322 178 l 811 178 l 811 0 m 671 1260 l 510 1040 l 342 1040 l 182 1260 l 321 1260 l 427 1133 l 532 1260 l 671 1260 z "},"Ð":{"ha":1024,"x_min":0,"x_max":974,"o":"m 111 0 l 111 397 l 0 397 l 0 578 l 111 578 l 111 972 l 456 972 q 974 498 974 972 q 832 136 974 271 q 456 0 691 0 l 111 0 m 330 794 l 330 578 l 514 578 l 514 397 l 330 397 l 330 178 l 439 178 q 662 263 581 178 q 743 496 743 349 q 663 714 743 635 q 437 794 583 794 l 330 794 z "},"Þ":{"ha":853,"x_min":111,"x_max":822,"o":"m 330 191 l 330 0 l 111 0 l 111 972 l 330 972 l 330 829 l 454 829 q 822 519 822 829 q 716 282 822 373 q 435 191 611 191 l 330 191 m 330 661 l 330 358 l 416 358 q 591 511 591 358 q 416 661 591 661 l 330 661 z "},"a":{"ha":747,"x_min":39,"x_max":668,"o":"m 668 0 l 465 0 l 465 100 l 463 100 q 256 -17 393 -17 q 97 40 155 -17 q 39 193 39 98 q 278 427 39 395 l 467 452 q 343 566 467 566 q 107 492 219 566 l 107 653 q 230 694 152 676 q 371 711 307 711 q 668 415 668 711 l 668 0 m 467 282 l 467 329 l 340 313 q 236 218 236 299 q 261 158 236 182 q 330 135 287 135 q 429 177 391 135 q 467 282 467 218 z "},"b":{"ha":861,"x_min":90,"x_max":812,"o":"m 307 81 l 304 81 l 304 0 l 90 0 l 90 1028 l 304 1028 l 304 590 l 307 590 q 533 711 387 711 q 740 619 667 711 q 812 367 812 527 q 728 88 812 193 q 501 -17 643 -17 q 307 81 373 -17 m 301 374 l 301 302 q 340 191 301 235 q 439 147 378 147 q 552 204 512 147 q 593 364 593 260 q 556 499 593 450 q 450 547 519 547 q 343 499 386 547 q 301 374 301 451 z "},"c":{"ha":667,"x_min":49,"x_max":616,"o":"m 616 25 q 407 -17 544 -17 q 148 80 247 -17 q 49 330 49 177 q 155 609 49 507 q 439 711 261 711 q 616 679 562 711 l 616 497 q 467 547 549 547 q 320 493 374 547 q 267 345 267 439 q 318 200 267 252 q 460 147 370 147 q 616 197 540 147 l 616 25 z "},"d":{"ha":860,"x_min":49,"x_max":770,"o":"m 770 0 l 555 0 l 555 96 l 553 96 q 338 -17 479 -17 q 128 75 208 -17 q 49 332 49 167 q 136 608 49 504 q 366 711 224 711 q 553 615 500 711 l 555 615 l 555 1028 l 770 1028 l 770 0 m 559 338 l 559 390 q 520 503 559 458 q 418 547 481 547 q 307 491 347 547 q 267 338 267 435 q 305 197 267 246 q 412 147 344 147 q 518 199 477 147 q 559 338 559 252 z "},"e":{"ha":751,"x_min":49,"x_max":714,"o":"m 714 286 l 261 286 q 452 135 272 135 q 653 189 566 135 l 653 35 q 403 -17 557 -17 q 142 76 235 -17 q 49 336 49 170 q 149 610 49 509 q 396 711 250 711 q 631 621 548 711 q 714 376 714 531 l 714 286 m 515 418 q 395 567 515 567 q 306 524 343 567 q 260 418 268 481 l 515 418 z "},"f":{"ha":532,"x_min":31,"x_max":543,"o":"m 543 864 q 464 880 502 880 q 361 768 361 880 l 361 694 l 519 694 l 519 536 l 361 536 l 361 0 l 147 0 l 147 536 l 31 536 l 31 694 l 147 694 l 147 781 q 224 972 147 899 q 435 1044 302 1044 q 543 1031 500 1044 l 543 864 z "},"g":{"ha":860,"x_min":49,"x_max":771,"o":"m 771 79 q 659 -220 771 -114 q 335 -326 547 -326 q 113 -286 195 -326 l 113 -106 q 329 -168 220 -168 q 497 -111 437 -168 q 557 45 557 -54 l 557 100 l 554 100 q 338 -17 481 -17 q 127 77 205 -17 q 49 328 49 170 q 136 608 49 504 q 364 711 222 711 q 554 614 491 711 l 557 614 l 557 694 l 771 694 l 771 79 m 559 334 l 559 389 q 520 501 559 454 q 419 547 481 547 q 307 492 348 547 q 267 335 267 436 q 305 198 267 248 q 411 147 344 147 q 518 198 477 147 q 559 334 559 250 z "},"h":{"ha":836,"x_min":90,"x_max":757,"o":"m 757 0 l 543 0 l 543 395 q 432 547 543 547 q 340 505 375 547 q 304 396 304 462 l 304 0 l 90 0 l 90 1028 l 304 1028 l 304 591 l 307 591 q 521 711 386 711 q 757 427 757 711 l 757 0 z "},"i":{"ha":395,"x_min":75,"x_max":322,"o":"m 199 804 q 110 837 144 804 q 75 916 75 869 q 110 994 75 964 q 199 1025 144 1025 q 288 994 254 1025 q 322 916 322 964 q 288 836 322 867 q 199 804 254 804 m 304 0 l 90 0 l 90 694 l 304 694 l 304 0 z "},"j":{"ha":395,"x_min":-90,"x_max":322,"o":"m 199 804 q 110 837 144 804 q 75 916 75 869 q 110 994 75 964 q 199 1025 144 1025 q 288 994 254 1025 q 322 916 322 964 q 288 836 322 867 q 199 804 254 804 m 304 12 q 229 -234 304 -142 q 12 -326 154 -326 q -90 -306 -35 -326 l -90 -138 q -11 -163 -45 -163 q 90 -4 90 -163 l 90 694 l 304 694 l 304 12 z "},"k":{"ha":777,"x_min":90,"x_max":786,"o":"m 786 0 l 529 0 l 307 345 l 304 345 l 304 0 l 90 0 l 90 1028 l 304 1028 l 304 374 l 307 374 l 514 694 l 768 694 l 519 368 l 786 0 z "},"l":{"ha":395,"x_min":90,"x_max":304,"o":"m 304 0 l 90 0 l 90 1028 l 304 1028 l 304 0 z "},"m":{"ha":1272,"x_min":90,"x_max":1193,"o":"m 1193 0 l 979 0 l 979 396 q 868 547 979 547 q 782 502 815 547 q 749 389 749 456 l 749 0 l 534 0 l 534 400 q 425 547 534 547 q 337 504 370 547 q 304 386 304 460 l 304 0 l 90 0 l 90 694 l 304 694 l 304 586 l 307 586 q 400 676 340 642 q 532 711 460 711 q 733 582 679 711 q 966 711 812 711 q 1193 432 1193 711 l 1193 0 z "},"n":{"ha":840,"x_min":90,"x_max":761,"o":"m 761 0 l 547 0 l 547 386 q 432 547 547 547 q 340 505 376 547 q 304 396 304 462 l 304 0 l 90 0 l 90 694 l 304 694 l 304 585 l 307 585 q 530 711 384 711 q 761 425 761 711 l 761 0 z "},"o":{"ha":849,"x_min":49,"x_max":800,"o":"m 421 -17 q 148 80 248 -17 q 49 345 49 178 q 152 614 49 517 q 431 711 255 711 q 702 614 604 711 q 800 357 800 517 q 699 83 800 184 q 421 -17 597 -17 m 427 547 q 309 495 351 547 q 267 347 267 443 q 428 147 267 147 q 582 353 582 147 q 427 547 582 547 z "},"p":{"ha":861,"x_min":90,"x_max":812,"o":"m 307 81 l 304 81 l 304 -319 l 90 -319 l 90 694 l 304 694 l 304 590 l 307 590 q 530 711 387 711 q 739 619 665 711 q 812 367 812 526 q 727 88 812 193 q 498 -17 641 -17 q 307 81 373 -17 m 301 366 l 301 310 q 339 193 301 238 q 439 147 377 147 q 552 204 512 147 q 593 364 593 260 q 450 547 593 547 q 343 497 385 547 q 301 366 301 448 z "},"q":{"ha":860,"x_min":49,"x_max":770,"o":"m 770 -319 l 555 -319 l 555 96 l 553 96 q 339 -17 480 -17 q 129 74 208 -17 q 49 330 49 165 q 136 608 49 504 q 364 711 224 711 q 553 614 492 711 l 555 614 l 555 694 l 770 694 l 770 -319 m 559 332 l 559 387 q 520 501 559 455 q 419 547 481 547 q 307 491 348 547 q 267 336 267 435 q 306 197 267 248 q 410 147 346 147 q 518 198 477 147 q 559 332 559 249 z "},"r":{"ha":553,"x_min":90,"x_max":543,"o":"m 543 501 q 453 522 505 522 q 344 471 383 522 q 304 332 304 420 l 304 0 l 90 0 l 90 694 l 304 694 l 304 566 l 307 566 q 490 707 358 707 q 543 699 524 707 l 543 501 z "},"s":{"ha":611,"x_min":45,"x_max":578,"o":"m 45 18 l 45 192 q 150 144 98 160 q 250 129 203 129 q 339 144 307 129 q 372 192 372 160 q 357 226 372 212 q 319 250 342 239 q 268 268 296 260 q 214 286 240 276 q 141 320 173 302 q 89 361 110 338 q 56 416 67 385 q 45 490 45 448 q 70 591 45 549 q 138 660 96 633 q 235 699 180 686 q 349 711 290 711 q 442 704 395 711 q 536 684 490 697 l 536 518 q 449 554 495 542 q 357 566 402 566 q 318 562 336 566 q 285 551 299 558 q 262 533 271 544 q 254 507 254 522 q 267 475 254 488 q 298 451 279 461 q 342 434 318 441 q 390 418 366 426 q 467 385 433 403 q 527 344 502 368 q 565 288 551 320 q 578 212 578 256 q 551 107 578 151 q 480 36 524 63 q 377 -4 435 8 q 257 -17 319 -17 q 45 18 142 -17 z "},"t":{"ha":541,"x_min":28,"x_max":510,"o":"m 510 8 q 367 -17 463 -17 q 140 218 140 -17 l 140 536 l 28 536 l 28 694 l 140 694 l 140 844 l 354 905 l 354 694 l 510 694 l 510 536 l 354 536 l 354 256 q 440 147 354 147 q 510 167 474 147 l 510 8 z "},"u":{"ha":840,"x_min":79,"x_max":750,"o":"m 750 0 l 536 0 l 536 106 l 533 106 q 321 -17 454 -17 q 79 275 79 -17 l 79 694 l 293 694 l 293 294 q 410 147 293 147 q 502 188 467 147 q 536 297 536 228 l 536 694 l 750 694 l 750 0 z "},"v":{"ha":753,"x_min":3,"x_max":751,"o":"m 751 694 l 493 0 l 249 0 l 3 694 l 232 694 l 353 267 q 376 143 373 194 l 379 143 q 404 262 384 191 l 528 694 l 751 694 z "},"w":{"ha":1107,"x_min":11,"x_max":1096,"o":"m 1096 694 l 896 0 l 671 0 l 568 407 q 557 496 558 448 l 553 496 q 539 410 548 443 l 429 0 l 207 0 l 11 694 l 229 694 l 325 241 q 335 164 332 210 l 339 164 q 351 244 342 212 l 471 694 l 675 694 l 782 241 q 791 163 786 224 l 796 163 q 807 241 800 202 l 897 694 l 1096 694 z "},"x":{"ha":767,"x_min":5,"x_max":761,"o":"m 761 694 l 532 358 l 760 0 l 513 0 l 412 187 q 383 250 400 210 l 380 250 q 353 189 370 222 l 252 0 l 5 0 l 240 346 l 20 694 l 268 694 l 367 500 q 395 435 387 461 l 397 435 q 427 501 408 467 l 528 694 l 761 694 z "},"y":{"ha":747,"x_min":-3,"x_max":751,"o":"m 751 694 l 469 -56 q 163 -326 368 -326 q 35 -309 85 -326 l 35 -138 q 127 -163 77 -163 q 243 -85 210 -163 l 279 1 l -3 694 l 235 694 l 364 272 q 383 179 376 233 l 386 179 q 408 271 392 218 l 539 694 l 751 694 z "},"z":{"ha":665,"x_min":17,"x_max":640,"o":"m 640 0 l 17 0 l 17 89 l 366 536 l 52 536 l 52 694 l 637 694 l 637 589 l 307 158 l 640 158 l 640 0 z "},"ß":{"ha":872,"x_min":90,"x_max":832,"o":"m 370 5 l 370 183 q 489 147 426 147 q 579 183 545 147 q 612 281 612 218 q 552 405 612 359 q 382 454 492 451 l 382 604 q 499 650 457 610 q 541 758 541 691 q 510 848 541 815 q 429 880 480 880 q 304 714 304 880 l 304 0 l 90 0 l 90 711 q 183 954 90 863 q 441 1044 276 1044 q 674 970 589 1044 q 760 779 760 896 q 711 634 760 696 q 586 549 663 572 l 586 546 q 832 275 832 499 q 746 68 832 153 q 514 -17 661 -17 q 370 5 443 -17 z "},"à":{"ha":747,"x_min":39,"x_max":668,"o":"m 668 0 l 465 0 l 465 100 l 463 100 q 256 -17 393 -17 q 97 40 155 -17 q 39 193 39 98 q 278 427 39 395 l 467 452 q 343 566 467 566 q 107 492 219 566 l 107 653 q 230 694 152 676 q 371 711 307 711 q 668 415 668 711 l 668 0 m 467 282 l 467 329 l 340 313 q 236 218 236 299 q 261 158 236 182 q 330 135 287 135 q 429 177 391 135 q 467 282 467 218 m 526 804 l 372 804 l 159 1023 l 349 1023 l 526 804 z "},"á":{"ha":747,"x_min":39,"x_max":668,"o":"m 668 0 l 465 0 l 465 100 l 463 100 q 256 -17 393 -17 q 97 40 155 -17 q 39 193 39 98 q 278 427 39 395 l 467 452 q 343 566 467 566 q 107 492 219 566 l 107 653 q 230 694 152 676 q 371 711 307 711 q 668 415 668 711 l 668 0 m 467 282 l 467 329 l 340 313 q 236 218 236 299 q 261 158 236 182 q 330 135 287 135 q 429 177 391 135 q 467 282 467 218 m 604 1023 l 392 804 l 237 804 l 414 1023 l 604 1023 z "},"â":{"ha":747,"x_min":39,"x_max":668,"o":"m 668 0 l 465 0 l 465 100 l 463 100 q 256 -17 393 -17 q 97 40 155 -17 q 39 193 39 98 q 278 427 39 395 l 467 452 q 343 566 467 566 q 107 492 219 566 l 107 653 q 230 694 152 676 q 371 711 307 711 q 668 415 668 711 l 668 0 m 467 282 l 467 329 l 340 313 q 236 218 236 299 q 261 158 236 182 q 330 135 287 135 q 429 177 391 135 q 467 282 467 218 m 620 804 l 479 804 l 372 932 l 273 804 l 132 804 l 292 1025 l 460 1025 l 620 804 z "},"ã":{"ha":747,"x_min":39,"x_max":668,"o":"m 668 0 l 465 0 l 465 100 l 463 100 q 256 -17 393 -17 q 97 40 155 -17 q 39 193 39 98 q 278 427 39 395 l 467 452 q 343 566 467 566 q 107 492 219 566 l 107 653 q 230 694 152 676 q 371 711 307 711 q 668 415 668 711 l 668 0 m 467 282 l 467 329 l 340 313 q 236 218 236 299 q 261 158 236 182 q 330 135 287 135 q 429 177 391 135 q 467 282 467 218 m 615 1015 q 577 868 615 920 q 475 817 540 817 q 361 846 416 817 q 277 878 300 878 q 223 804 223 878 l 127 804 q 165 951 127 899 q 269 1003 202 1003 q 383 970 324 1003 q 465 940 437 940 q 517 1015 517 940 l 615 1015 z "},"ä":{"ha":747,"x_min":39,"x_max":668,"o":"m 668 0 l 465 0 l 465 100 l 463 100 q 256 -17 393 -17 q 97 40 155 -17 q 39 193 39 98 q 278 427 39 395 l 467 452 q 343 566 467 566 q 107 492 219 566 l 107 653 q 230 694 152 676 q 371 711 307 711 q 668 415 668 711 l 668 0 m 467 282 l 467 329 l 340 313 q 236 218 236 299 q 261 158 236 182 q 330 135 287 135 q 429 177 391 135 q 467 282 467 218 m 534 804 q 459 831 488 804 q 430 897 430 857 q 459 964 430 939 q 534 990 488 990 q 609 964 579 990 q 638 897 638 938 q 609 830 638 857 q 534 804 580 804 m 223 804 q 148 831 177 804 q 119 897 119 858 q 149 964 119 938 q 223 990 178 990 q 298 964 269 990 q 327 897 327 938 q 298 830 327 856 q 223 804 269 804 z "},"å":{"ha":747,"x_min":39,"x_max":668,"o":"m 668 0 l 465 0 l 465 100 l 463 100 q 256 -17 393 -17 q 97 40 155 -17 q 39 193 39 98 q 278 427 39 395 l 467 452 q 343 566 467 566 q 107 492 219 566 l 107 653 q 230 694 152 676 q 371 711 307 711 q 668 415 668 711 l 668 0 m 467 282 l 467 329 l 340 313 q 236 218 236 299 q 261 158 236 182 q 330 135 287 135 q 429 177 391 135 q 467 282 467 218 m 389 804 q 274 845 319 804 q 229 950 229 885 q 276 1059 229 1019 q 392 1100 323 1100 q 509 1060 465 1100 q 554 954 554 1019 q 506 846 554 888 q 389 804 457 804 m 389 1017 q 323 953 323 1017 q 389 889 323 889 q 439 908 419 889 q 458 953 458 926 q 439 999 458 981 q 389 1017 420 1017 z "},"æ":{"ha":1150,"x_min":39,"x_max":1112,"o":"m 1112 286 l 660 286 q 851 135 673 135 q 1053 189 960 135 l 1053 36 q 796 -17 947 -17 q 526 104 614 -17 l 524 104 q 278 -17 428 -17 q 102 39 165 -17 q 39 195 39 95 q 104 353 39 294 q 292 422 170 413 l 465 436 q 340 566 465 566 q 107 493 222 566 l 107 653 q 358 711 234 711 q 578 621 517 711 l 581 621 q 802 711 670 711 q 1029 621 947 711 q 1112 374 1112 531 l 1112 286 m 914 418 q 794 567 914 567 q 705 525 743 567 q 660 418 667 483 l 914 418 m 465 281 l 465 311 l 359 302 q 235 214 235 292 q 261 157 235 180 q 330 135 288 135 q 427 175 389 135 q 465 281 465 216 z "},"ç":{"ha":667,"x_min":49,"x_max":616,"o":"m 616 25 q 407 -17 544 -17 q 148 80 247 -17 q 49 330 49 177 q 155 609 49 507 q 439 711 261 711 q 616 679 562 711 l 616 497 q 467 547 549 547 q 320 493 374 547 q 267 345 267 439 q 318 200 267 252 q 460 147 370 147 q 616 197 540 147 l 616 25 m 289 -306 l 289 -212 q 338 -216 313 -216 q 421 -167 421 -216 q 346 -122 421 -122 q 321 -123 337 -122 l 321 0 l 437 0 l 437 -56 q 564 -168 564 -61 q 349 -309 564 -309 q 289 -306 317 -309 z "},"è":{"ha":751,"x_min":49,"x_max":714,"o":"m 714 286 l 261 286 q 452 135 272 135 q 653 189 566 135 l 653 35 q 403 -17 557 -17 q 142 76 235 -17 q 49 336 49 170 q 149 610 49 509 q 396 711 250 711 q 631 621 548 711 q 714 376 714 531 l 714 286 m 515 418 q 395 567 515 567 q 306 524 343 567 q 260 418 268 481 l 515 418 m 539 804 l 385 804 l 172 1023 l 363 1023 l 539 804 z "},"é":{"ha":751,"x_min":49,"x_max":714,"o":"m 714 286 l 261 286 q 452 135 272 135 q 653 189 566 135 l 653 35 q 403 -17 557 -17 q 142 76 235 -17 q 49 336 49 170 q 149 610 49 509 q 396 711 250 711 q 631 621 548 711 q 714 376 714 531 l 714 286 m 515 418 q 395 567 515 567 q 306 524 343 567 q 260 418 268 481 l 515 418 m 625 1023 l 412 804 l 258 804 l 434 1023 l 625 1023 z "},"ê":{"ha":751,"x_min":49,"x_max":714,"o":"m 714 286 l 261 286 q 452 135 272 135 q 653 189 566 135 l 653 35 q 403 -17 557 -17 q 142 76 235 -17 q 49 336 49 170 q 149 610 49 509 q 396 711 250 711 q 631 621 548 711 q 714 376 714 531 l 714 286 m 515 418 q 395 567 515 567 q 306 524 343 567 q 260 418 268 481 l 515 418 m 644 804 l 503 804 l 396 932 l 296 804 l 156 804 l 315 1025 l 484 1025 l 644 804 z "},"ë":{"ha":751,"x_min":49,"x_max":714,"o":"m 714 286 l 261 286 q 452 135 272 135 q 653 189 566 135 l 653 35 q 403 -17 557 -17 q 142 76 235 -17 q 49 336 49 170 q 149 610 49 509 q 396 711 250 711 q 631 621 548 711 q 714 376 714 531 l 714 286 m 515 418 q 395 567 515 567 q 306 524 343 567 q 260 418 268 481 l 515 418 m 548 804 q 473 831 503 804 q 444 897 444 857 q 473 964 444 939 q 548 990 503 990 q 623 964 593 990 q 652 897 652 938 q 623 830 652 857 q 548 804 594 804 m 237 804 q 162 831 191 804 q 133 897 133 858 q 163 964 133 938 q 237 990 193 990 q 312 964 283 990 q 341 897 341 938 q 312 830 341 856 q 237 804 283 804 z "},"ì":{"ha":395,"x_min":-18,"x_max":349,"o":"m 304 0 l 90 0 l 90 694 l 304 694 l 304 0 m 349 804 l 195 804 l -18 1023 l 173 1023 l 349 804 z "},"í":{"ha":395,"x_min":48,"x_max":415,"o":"m 304 0 l 90 0 l 90 694 l 304 694 l 304 0 m 415 1023 l 203 804 l 48 804 l 224 1023 l 415 1023 z "},"î":{"ha":395,"x_min":-41,"x_max":446,"o":"m 304 0 l 90 0 l 90 694 l 304 694 l 304 0 m 446 804 l 306 804 l 199 932 l 99 804 l -41 804 l 118 1025 l 286 1025 l 446 804 z "},"ï":{"ha":395,"x_min":-58,"x_max":462,"o":"m 304 0 l 90 0 l 90 694 l 304 694 l 304 0 m 357 804 q 283 831 312 804 q 254 897 254 857 q 283 964 254 939 q 357 990 312 990 q 432 964 403 990 q 462 897 462 938 q 433 830 462 857 q 357 804 404 804 m 47 804 q -28 831 1 804 q -58 897 -58 858 q -28 964 -58 938 q 47 990 2 990 q 122 964 93 990 q 151 897 151 938 q 122 830 151 856 q 47 804 93 804 z "},"ñ":{"ha":840,"x_min":90,"x_max":761,"o":"m 761 0 l 547 0 l 547 386 q 432 547 547 547 q 340 505 376 547 q 304 396 304 462 l 304 0 l 90 0 l 90 694 l 304 694 l 304 585 l 307 585 q 530 711 384 711 q 761 425 761 711 l 761 0 m 666 1015 q 628 868 666 920 q 526 817 591 817 q 412 846 467 817 q 328 878 351 878 q 274 804 274 878 l 178 804 q 216 951 178 899 q 320 1003 253 1003 q 434 970 375 1003 q 515 940 488 940 q 568 1015 568 940 l 666 1015 z "},"ò":{"ha":848,"x_min":49,"x_max":800,"o":"m 421 -17 q 148 80 248 -17 q 49 345 49 178 q 152 614 49 517 q 431 711 255 711 q 702 614 604 711 q 800 357 800 517 q 699 83 800 184 q 421 -17 597 -17 m 427 547 q 309 495 351 547 q 267 347 267 443 q 428 147 267 147 q 582 353 582 147 q 427 547 582 547 m 578 804 l 424 804 l 211 1023 l 401 1023 l 578 804 z "},"ó":{"ha":848,"x_min":49,"x_max":800,"o":"m 421 -17 q 148 80 248 -17 q 49 345 49 178 q 152 614 49 517 q 431 711 255 711 q 702 614 604 711 q 800 357 800 517 q 699 83 800 184 q 421 -17 597 -17 m 427 547 q 309 495 351 547 q 267 347 267 443 q 428 147 267 147 q 582 353 582 147 q 427 547 582 547 m 656 1023 l 444 804 l 290 804 l 466 1023 l 656 1023 z "},"ô":{"ha":848,"x_min":49,"x_max":800,"o":"m 421 -17 q 148 80 248 -17 q 49 345 49 178 q 152 614 49 517 q 431 711 255 711 q 702 614 604 711 q 800 357 800 517 q 699 83 800 184 q 421 -17 597 -17 m 427 547 q 309 495 351 547 q 267 347 267 443 q 428 147 267 147 q 582 353 582 147 q 427 547 582 547 m 670 804 l 530 804 l 422 932 l 323 804 l 182 804 l 342 1025 l 510 1025 l 670 804 z "},"õ":{"ha":848,"x_min":49,"x_max":800,"o":"m 421 -17 q 148 80 248 -17 q 49 345 49 178 q 152 614 49 517 q 431 711 255 711 q 702 614 604 711 q 800 357 800 517 q 699 83 800 184 q 421 -17 597 -17 m 427 547 q 309 495 351 547 q 267 347 267 443 q 428 147 267 147 q 582 353 582 147 q 427 547 582 547 m 668 1015 q 630 868 668 920 q 528 817 593 817 q 414 846 469 817 q 330 878 353 878 q 276 804 276 878 l 180 804 q 218 951 180 899 q 322 1003 255 1003 q 436 970 377 1003 q 517 940 490 940 q 570 1015 570 940 l 668 1015 z "},"ö":{"ha":848,"x_min":49,"x_max":800,"o":"m 421 -17 q 148 80 248 -17 q 49 345 49 178 q 152 614 49 517 q 431 711 255 711 q 702 614 604 711 q 800 357 800 517 q 699 83 800 184 q 421 -17 597 -17 m 427 547 q 309 495 351 547 q 267 347 267 443 q 428 147 267 147 q 582 353 582 147 q 427 547 582 547 m 583 804 q 508 831 537 804 q 479 897 479 857 q 508 964 479 939 q 583 990 537 990 q 657 964 628 990 q 687 897 687 938 q 658 830 687 857 q 583 804 629 804 m 272 804 q 197 831 226 804 q 168 897 168 858 q 197 964 168 938 q 272 990 227 990 q 347 964 318 990 q 376 897 376 938 q 347 830 376 856 q 272 804 318 804 z "},"ø":{"ha":849,"x_min":26,"x_max":818,"o":"m 818 685 l 724 586 q 800 357 800 489 q 700 83 800 181 q 421 -16 600 -16 q 199 43 287 -16 l 107 -53 l 26 20 l 119 117 q 49 346 49 212 q 152 615 49 517 q 432 713 256 713 q 643 657 553 713 l 737 757 l 818 685 m 524 536 q 428 564 486 564 q 253 349 253 564 q 265 267 253 299 l 524 536 m 585 441 l 318 164 q 427 134 359 134 q 597 353 597 134 q 585 441 597 403 z "},"œ":{"ha":1284,"x_min":49,"x_max":1246,"o":"m 1246 286 l 791 286 q 983 135 801 135 q 1183 189 1097 135 l 1183 35 q 949 -17 1087 -17 q 684 111 778 -17 l 681 111 q 404 -16 588 -16 q 147 81 245 -16 q 49 345 49 178 q 149 614 49 515 q 412 713 248 713 q 574 679 503 713 q 679 593 645 646 l 682 593 q 937 711 762 711 q 1164 621 1082 711 q 1246 378 1246 530 l 1246 286 m 1046 418 q 928 567 1046 567 q 836 524 873 567 q 791 418 799 481 l 1046 418 m 428 547 q 309 495 351 547 q 267 347 267 442 q 427 149 267 149 q 582 350 582 149 q 542 495 582 444 q 428 547 501 547 z "},"š":{"ha":611,"x_min":45,"x_max":578,"o":"m 45 18 l 45 192 q 150 144 98 160 q 250 129 203 129 q 339 144 307 129 q 372 192 372 160 q 357 226 372 212 q 319 250 342 239 q 268 268 296 260 q 214 286 240 276 q 141 320 173 302 q 89 361 110 338 q 56 416 67 385 q 45 490 45 448 q 70 591 45 549 q 138 660 96 633 q 235 699 180 686 q 349 711 290 711 q 442 704 395 711 q 536 684 490 697 l 536 518 q 449 554 495 542 q 357 566 402 566 q 318 562 336 566 q 285 551 299 558 q 262 533 271 544 q 254 507 254 522 q 267 475 254 488 q 298 451 279 461 q 342 434 318 441 q 390 418 366 426 q 467 385 433 403 q 527 344 502 368 q 565 288 551 320 q 578 212 578 256 q 551 107 578 151 q 480 36 524 63 q 377 -4 435 8 q 257 -17 319 -17 q 45 18 142 -17 m 550 1025 l 389 804 l 220 804 l 61 1025 l 200 1025 l 305 897 l 411 1025 l 550 1025 z "},"ù":{"ha":840,"x_min":79,"x_max":750,"o":"m 750 0 l 536 0 l 536 106 l 533 106 q 321 -17 454 -17 q 79 275 79 -17 l 79 694 l 293 694 l 293 294 q 410 147 293 147 q 502 188 467 147 q 536 297 536 228 l 536 694 l 750 694 l 750 0 m 532 804 l 378 804 l 165 1023 l 355 1023 l 532 804 z "},"ú":{"ha":840,"x_min":79,"x_max":750,"o":"m 750 0 l 536 0 l 536 106 l 533 106 q 321 -17 454 -17 q 79 275 79 -17 l 79 694 l 293 694 l 293 294 q 410 147 293 147 q 502 188 467 147 q 536 297 536 228 l 536 694 l 750 694 l 750 0 m 663 1023 l 450 804 l 296 804 l 472 1023 l 663 1023 z "},"û":{"ha":840,"x_min":79,"x_max":750,"o":"m 750 0 l 536 0 l 536 106 l 533 106 q 321 -17 454 -17 q 79 275 79 -17 l 79 694 l 293 694 l 293 294 q 410 147 293 147 q 502 188 467 147 q 536 297 536 228 l 536 694 l 750 694 l 750 0 m 658 804 l 517 804 l 410 932 l 311 804 l 170 804 l 330 1025 l 498 1025 l 658 804 z "},"ü":{"ha":840,"x_min":79,"x_max":750,"o":"m 750 0 l 536 0 l 536 106 l 533 106 q 321 -17 454 -17 q 79 275 79 -17 l 79 694 l 293 694 l 293 294 q 410 147 293 147 q 502 188 467 147 q 536 297 536 228 l 536 694 l 750 694 l 750 0 m 572 804 q 498 831 527 804 q 469 897 469 857 q 498 964 469 939 q 572 990 527 990 q 647 964 618 990 q 677 897 677 938 q 648 830 677 857 q 572 804 618 804 m 262 804 q 186 831 216 804 q 157 897 157 858 q 187 964 157 938 q 262 990 217 990 q 337 964 308 990 q 366 897 366 938 q 337 830 366 856 q 262 804 308 804 z "},"ý":{"ha":747,"x_min":-3,"x_max":751,"o":"m 751 694 l 469 -56 q 163 -326 368 -326 q 35 -309 85 -326 l 35 -138 q 127 -163 77 -163 q 243 -85 210 -163 l 279 1 l -3 694 l 235 694 l 364 272 q 383 179 376 233 l 386 179 q 408 271 392 218 l 539 694 l 751 694 m 566 1023 l 353 804 l 199 804 l 375 1023 l 566 1023 z "},"ÿ":{"ha":747,"x_min":-3,"x_max":751,"o":"m 751 694 l 469 -56 q 163 -326 368 -326 q 35 -309 85 -326 l 35 -138 q 127 -163 77 -163 q 243 -85 210 -163 l 279 1 l -3 694 l 235 694 l 364 272 q 383 179 376 233 l 386 179 q 408 271 392 218 l 539 694 l 751 694 m 538 804 q 463 831 492 804 q 434 897 434 857 q 463 964 434 939 q 538 990 492 990 q 613 964 583 990 q 642 897 642 938 q 613 830 642 857 q 538 804 584 804 m 227 804 q 152 831 181 804 q 123 897 123 858 q 153 964 123 938 q 227 990 182 990 q 302 964 273 990 q 331 897 331 938 q 302 830 331 856 q 227 804 273 804 z "},"ž":{"ha":665,"x_min":17,"x_max":640,"o":"m 640 0 l 17 0 l 17 89 l 366 536 l 52 536 l 52 694 l 637 694 l 637 589 l 307 158 l 640 158 l 640 0 m 591 1025 l 430 804 l 262 804 l 102 1025 l 241 1025 l 347 897 l 452 1025 l 591 1025 z "},"ð":{"ha":824,"x_min":49,"x_max":775,"o":"m 513 654 l 515 656 q 383 817 458 755 l 186 720 l 131 815 l 294 893 q 111 1028 188 978 l 350 1028 q 439 962 357 1024 l 624 1053 l 676 960 l 530 889 q 775 382 775 692 q 673 94 775 205 q 406 -17 572 -17 q 143 81 237 -17 q 49 349 49 179 q 139 605 49 505 q 374 705 229 705 q 513 654 453 705 m 415 547 q 306 494 345 547 q 267 349 267 441 q 305 200 267 254 q 412 147 344 147 q 518 202 479 147 q 557 353 557 258 q 415 547 557 547 z "},"þ":{"ha":861,"x_min":90,"x_max":812,"o":"m 307 81 l 304 81 l 304 -319 l 90 -319 l 90 1028 l 304 1028 l 304 590 l 307 590 q 530 711 387 711 q 739 619 665 711 q 812 367 812 526 q 727 88 812 193 q 498 -17 641 -17 q 307 81 373 -17 m 301 366 l 301 310 q 339 193 301 238 q 439 147 377 147 q 552 204 512 147 q 593 364 593 260 q 450 547 593 547 q 343 497 385 547 q 301 366 301 448 z "},"&":{"ha":1180,"x_min":51,"x_max":1158,"o":"m 1003 -16 q 935 -6 967 -16 q 874 20 903 3 q 819 58 845 36 q 770 105 793 80 q 710 63 745 85 q 630 24 675 41 q 532 -4 586 7 q 418 -16 479 -16 q 271 3 338 -16 q 155 60 203 22 q 78 153 106 98 q 51 282 51 209 q 72 385 51 340 q 125 464 92 430 q 201 522 159 498 q 286 563 243 547 q 244 601 265 579 q 205 647 222 622 q 178 703 189 673 q 168 766 168 732 q 189 861 168 819 q 250 930 211 902 q 343 974 289 959 q 463 989 397 989 q 577 973 525 989 q 666 930 629 958 q 724 863 703 902 q 744 777 744 824 q 699 647 744 702 q 572 557 654 591 q 634 523 604 542 q 692 479 664 504 q 748 424 721 455 q 802 353 775 393 q 881 502 857 423 q 905 667 905 581 q 902 716 905 692 q 892 760 899 740 l 1075 760 q 1086 718 1082 739 q 1089 670 1089 698 q 1075 542 1089 604 q 1036 422 1061 479 q 976 315 1011 366 q 897 220 940 264 q 966 166 930 185 q 1032 148 1001 148 q 1099 155 1065 148 q 1158 175 1133 162 l 1158 14 q 1084 -8 1120 -1 q 1003 -16 1048 -16 m 429 146 q 504 154 469 146 q 570 175 539 162 q 628 205 602 188 q 677 240 655 222 q 609 332 643 294 q 542 396 575 370 q 476 441 509 423 q 410 475 443 460 q 356 445 382 461 q 311 406 331 428 q 280 356 292 384 q 268 291 268 328 q 279 232 268 258 q 312 186 291 205 q 363 157 334 168 q 429 146 393 146 m 554 762 q 547 798 554 782 q 526 824 539 813 q 497 840 513 834 q 463 846 481 846 q 421 839 440 846 q 389 821 403 832 q 368 793 375 809 q 360 759 360 777 q 384 689 360 721 q 443 637 408 657 q 485 656 465 646 q 520 682 505 667 q 545 717 536 697 q 554 762 554 736 z "},",":{"ha":376,"x_min":26,"x_max":293,"o":"m 293 171 l 193 -172 l 26 -172 l 96 171 l 293 171 z "},";":{"ha":376,"x_min":26,"x_max":317,"o":"m 191 479 q 102 512 137 479 q 66 591 66 545 q 102 672 66 641 q 192 703 138 703 q 282 671 247 703 q 317 591 317 640 q 282 511 317 542 q 191 479 248 479 m 293 171 l 193 -172 l 26 -172 l 96 171 l 293 171 z "},":":{"ha":376,"x_min":62,"x_max":314,"o":"m 186 479 q 98 512 133 479 q 62 591 62 544 q 99 671 62 640 q 189 703 135 703 q 279 671 244 703 q 314 591 314 640 q 278 511 314 542 q 186 479 243 479 m 186 -17 q 98 16 133 -17 q 62 96 62 48 q 99 176 62 144 q 189 207 135 207 q 279 175 244 207 q 314 96 314 144 q 278 15 314 46 q 186 -17 243 -17 z "},".":{"ha":376,"x_min":62,"x_max":314,"o":"m 186 -17 q 98 16 133 -17 q 62 96 62 48 q 99 176 62 144 q 189 207 135 207 q 279 175 244 207 q 314 96 314 144 q 278 15 314 46 q 186 -17 243 -17 z "},"…":{"ha":1267,"x_min":87,"x_max":1181,"o":"m 1054 -16 q 966 17 1001 -16 q 930 97 930 50 q 966 177 930 146 q 1055 208 1002 208 q 1145 177 1110 208 q 1181 97 1181 145 q 1146 16 1181 47 q 1054 -16 1111 -16 m 632 -16 q 545 17 579 -16 q 510 97 510 50 q 545 177 510 146 q 633 208 580 208 q 723 177 688 208 q 758 97 758 145 q 723 16 758 47 q 632 -16 688 -16 m 210 -16 q 122 17 157 -16 q 87 97 87 50 q 122 177 87 146 q 211 208 157 208 q 301 177 266 208 q 336 97 336 145 q 301 16 336 47 q 210 -16 267 -16 z "},"!":{"ha":454,"x_min":103,"x_max":351,"o":"m 339 972 l 313 302 l 139 302 l 114 972 l 339 972 m 228 -16 q 138 17 174 -16 q 103 97 103 50 q 139 177 103 146 q 228 208 174 208 q 317 177 282 208 q 351 97 351 145 q 317 16 351 48 q 228 -16 283 -16 z "},"¡":{"ha":454,"x_min":103,"x_max":351,"o":"m 228 489 q 138 520 173 489 q 103 599 103 551 q 138 680 103 648 q 228 711 173 711 q 316 679 281 711 q 351 599 351 646 q 316 519 351 550 q 228 489 281 489 m 342 -277 l 117 -277 l 142 395 l 315 395 l 342 -277 z "},"?":{"ha":608,"x_min":42,"x_max":581,"o":"m 178 281 q 168 321 172 299 q 164 363 164 343 q 170 420 164 394 q 189 468 176 446 q 219 512 201 491 q 262 553 237 532 q 307 593 288 574 q 340 630 326 612 q 360 669 353 649 q 367 713 367 689 q 359 752 367 734 q 338 783 352 770 q 304 804 324 796 q 260 811 284 811 q 150 789 207 811 q 42 722 93 767 l 42 926 q 156 973 94 958 q 283 989 218 989 q 401 975 347 989 q 495 931 455 961 q 558 855 536 901 q 581 743 581 808 q 572 668 581 702 q 544 605 562 635 q 498 548 526 575 q 436 491 471 520 q 394 454 412 471 q 365 421 376 437 q 347 386 353 404 q 340 343 340 367 q 345 310 340 327 q 357 281 349 293 l 178 281 m 277 -16 q 187 17 223 -16 q 151 97 151 51 q 187 176 151 144 q 277 208 223 208 q 366 176 331 208 q 401 97 401 145 q 367 16 401 48 q 277 -16 332 -16 z "},"¿":{"ha":608,"x_min":36,"x_max":575,"o":"m 439 414 q 449 375 446 397 q 453 333 453 353 q 447 276 453 302 q 429 228 441 250 q 398 184 416 205 q 355 143 380 163 q 311 103 330 121 q 277 65 291 84 q 257 27 264 47 q 250 -18 250 7 q 258 -57 250 -39 q 279 -87 265 -75 q 313 -108 293 -100 q 357 -115 333 -115 q 467 -93 410 -115 q 575 -26 524 -71 l 575 -231 q 461 -277 523 -262 q 334 -293 399 -293 q 216 -279 271 -293 q 122 -235 162 -265 q 59 -159 81 -205 q 36 -47 36 -113 q 45 27 36 -6 q 73 91 55 61 q 119 148 92 121 q 181 205 146 176 q 223 241 205 224 q 253 275 241 258 q 271 310 264 292 q 277 353 277 329 q 272 386 277 369 q 260 414 268 403 l 439 414 m 340 711 q 430 679 395 711 q 466 599 466 645 q 430 519 466 551 q 340 488 394 488 q 251 519 286 488 q 216 599 216 551 q 250 680 216 648 q 340 711 286 711 z "},"(":{"ha":513,"x_min":107,"x_max":501,"o":"m 501 -221 l 326 -221 q 107 372 107 20 q 326 972 107 712 l 500 972 q 294 372 294 700 q 501 -221 294 45 z "},")":{"ha":513,"x_min":12,"x_max":407,"o":"m 186 -221 l 12 -221 q 220 372 220 43 q 12 972 220 699 l 187 972 q 407 372 407 711 q 186 -221 407 23 z "},"[":{"ha":513,"x_min":147,"x_max":465,"o":"m 465 -221 l 147 -221 l 147 972 l 465 972 l 465 836 l 323 836 l 323 -85 l 465 -85 l 465 -221 z "},"]":{"ha":513,"x_min":47,"x_max":367,"o":"m 367 -221 l 47 -221 l 47 -85 l 191 -85 l 191 836 l 47 836 l 47 972 l 367 972 l 367 -221 z "},"{":{"ha":513,"x_min":72,"x_max":457,"o":"m 457 -221 q 242 -167 309 -221 q 175 26 175 -113 l 175 189 q 72 314 175 314 l 72 439 q 175 568 175 439 l 175 720 q 241 916 175 859 q 457 972 308 972 l 457 846 q 349 728 349 846 l 349 583 q 244 378 349 420 l 244 375 q 349 167 349 333 l 349 28 q 374 -66 349 -39 q 457 -94 399 -94 l 457 -221 z "},"}":{"ha":513,"x_min":57,"x_max":441,"o":"m 441 314 q 338 187 338 314 l 338 31 q 272 -167 338 -113 q 57 -221 205 -221 l 57 -94 q 140 -67 114 -94 q 165 26 165 -39 l 165 171 q 269 374 165 333 l 269 376 q 165 589 165 419 l 165 728 q 57 846 165 846 l 57 972 q 271 916 205 972 q 338 722 338 859 l 338 567 q 441 439 338 439 l 441 314 z "},"|":{"ha":453,"x_min":142,"x_max":313,"o":"m 313 -326 l 142 -326 l 142 1063 l 313 1063 l 313 -326 z "},"/":{"ha":616,"x_min":-33,"x_max":632,"o":"m 632 972 l 158 -161 l -33 -161 l 439 972 l 632 972 z "},"\\":{"ha":606,"x_min":0,"x_max":652,"o":"m 652 -161 l 463 -161 l 0 972 l 191 972 l 652 -161 z "},"'":{"ha":407,"x_min":115,"x_max":292,"o":"m 292 985 l 271 685 l 135 685 l 115 985 l 292 985 z "},"\"":{"ha":685,"x_min":119,"x_max":566,"o":"m 566 985 l 545 684 l 408 684 l 387 985 l 566 985 m 297 985 l 277 685 l 139 685 l 119 985 l 297 985 z "},"‘":{"ha":403,"x_min":65,"x_max":326,"o":"m 326 996 l 252 694 l 65 694 l 193 996 l 326 996 z "},"ʼ":{"ha":403,"x_min":77,"x_max":339,"o":"m 339 996 l 208 694 l 77 694 l 154 996 l 339 996 z "},"“":{"ha":685,"x_min":65,"x_max":608,"o":"m 608 996 l 532 694 l 347 694 l 476 996 l 608 996 m 326 996 l 252 694 l 65 694 l 193 996 l 326 996 z "},"”":{"ha":685,"x_min":77,"x_max":621,"o":"m 621 996 l 492 694 l 358 694 l 435 996 l 621 996 m 339 996 l 208 694 l 77 694 l 154 996 l 339 996 z "},"‚":{"ha":403,"x_min":61,"x_max":323,"o":"m 323 149 l 193 -153 l 61 -153 l 139 149 l 323 149 z "},"„":{"ha":685,"x_min":61,"x_max":606,"o":"m 606 149 l 475 -153 l 343 -153 l 419 149 l 606 149 m 323 149 l 193 -153 l 61 -153 l 139 149 l 323 149 z "},"‹":{"ha":478,"x_min":36,"x_max":441,"o":"m 441 136 l 260 136 l 36 364 l 260 597 l 441 597 l 215 364 l 441 136 z "},"›":{"ha":478,"x_min":36,"x_max":441,"o":"m 441 364 l 218 136 l 36 136 l 262 364 l 37 597 l 218 597 l 441 364 z "},"«":{"ha":807,"x_min":36,"x_max":771,"o":"m 771 136 l 589 136 l 367 364 l 589 597 l 771 597 l 545 364 l 771 136 m 441 136 l 260 136 l 36 364 l 260 597 l 440 597 l 214 364 l 441 136 z "},"»":{"ha":807,"x_min":36,"x_max":771,"o":"m 771 364 l 549 136 l 367 136 l 593 364 l 368 597 l 549 597 l 771 364 m 441 364 l 218 136 l 36 136 l 264 364 l 37 597 l 218 597 l 441 364 z "},"*":{"ha":632,"x_min":47,"x_max":586,"o":"m 586 714 l 400 689 l 533 546 l 410 461 l 317 633 l 224 461 l 100 546 l 233 689 l 47 714 l 96 851 l 267 778 l 237 972 l 396 972 l 367 778 l 536 851 l 586 714 z "},"†":{"ha":564,"x_min":22,"x_max":541,"o":"m 541 589 l 356 609 l 326 137 l 238 137 l 208 609 l 22 589 l 22 742 l 221 722 l 201 972 l 363 972 l 342 722 l 541 742 l 541 589 z "},"‡":{"ha":564,"x_min":22,"x_max":541,"o":"m 541 327 l 339 347 l 363 137 l 201 137 l 224 347 l 22 327 l 22 480 l 204 460 l 227 555 l 204 650 l 22 629 l 22 783 l 224 762 l 201 972 l 363 972 l 339 762 l 541 783 l 541 629 l 359 650 l 337 555 l 359 460 l 541 480 l 541 327 z "},"·":{"ha":376,"x_min":62,"x_max":314,"o":"m 186 330 q 98 363 133 330 q 62 443 62 395 q 99 523 62 492 q 189 554 135 554 q 279 523 244 554 q 314 443 314 491 q 278 362 314 393 q 186 330 243 330 z "},"•":{"ha":587,"x_min":109,"x_max":482,"o":"m 294 191 q 163 245 218 191 q 109 378 109 300 q 163 509 109 455 q 294 564 217 564 q 427 509 372 564 q 482 378 482 454 q 427 246 482 301 q 294 191 372 191 z "},"@":{"ha":1325,"x_min":92,"x_max":1236,"o":"m 761 252 l 757 252 q 585 122 709 122 q 434 190 491 122 q 376 378 376 258 q 456 630 376 533 q 647 728 535 728 q 774 648 748 728 l 777 648 l 783 715 l 936 715 q 905 338 905 427 q 957 243 905 243 q 1046 315 1011 243 q 1082 503 1082 387 q 981 763 1082 661 q 699 864 880 864 q 376 729 505 864 q 248 399 248 593 q 361 102 248 210 q 675 -7 475 -7 q 954 52 827 -7 l 954 -78 q 656 -127 838 -127 q 249 16 406 -127 q 92 401 92 159 q 259 817 92 648 q 690 985 427 985 q 1085 854 935 985 q 1236 510 1236 724 q 1144 228 1236 334 q 916 122 1052 122 q 806 158 848 122 q 761 252 764 194 m 671 610 q 571 540 610 610 q 533 379 533 471 q 559 278 533 314 q 627 241 585 241 q 727 310 690 241 q 764 493 764 378 q 738 578 764 547 q 671 610 713 610 z "},"©":{"ha":1214,"x_min":89,"x_max":1126,"o":"m 606 -17 q 234 123 380 -17 q 89 484 89 264 q 238 844 89 699 q 611 989 388 989 q 980 847 833 989 q 1126 486 1126 706 q 976 127 1126 271 q 606 -17 826 -17 m 608 913 q 300 791 422 913 q 179 486 179 669 q 302 181 179 302 q 608 60 425 60 q 912 181 788 60 q 1036 485 1036 303 q 914 791 1036 669 q 608 913 792 913 m 817 200 q 631 154 732 154 q 396 245 489 154 q 302 472 302 336 q 400 723 302 629 q 653 818 497 818 q 815 781 738 818 l 815 621 q 650 672 749 672 q 519 620 572 672 q 467 481 467 568 q 520 347 467 398 q 654 296 573 296 q 817 347 750 296 l 817 200 z "},"®":{"ha":1214,"x_min":192,"x_max":1022,"o":"m 605 173 q 308 290 425 173 q 192 582 192 406 q 312 870 192 754 q 610 986 431 986 q 905 873 787 986 q 1018 582 1022 760 q 900 291 1018 410 q 605 173 781 173 m 606 911 q 366 817 460 911 q 271 580 271 722 q 367 342 271 436 q 606 248 463 248 q 842 342 746 248 q 939 579 939 437 q 844 817 939 723 q 606 911 749 911 m 819 338 l 678 338 l 637 465 q 577 530 615 530 l 545 530 l 545 338 l 426 338 l 426 839 l 600 839 q 800 696 800 839 q 683 564 800 594 l 683 562 q 760 483 732 551 l 819 338 m 545 741 l 545 621 l 597 621 q 673 683 673 621 q 586 741 673 741 l 545 741 z "},"™":{"ha":1071,"x_min":52,"x_max":946,"o":"m 946 524 l 844 524 l 844 825 l 842 825 l 733 524 l 642 524 l 543 825 l 539 825 l 539 524 l 439 524 l 439 972 l 586 972 l 692 665 l 694 665 l 808 972 l 946 972 l 946 524 m 395 889 l 273 889 l 273 524 l 168 524 l 168 889 l 52 889 l 52 972 l 395 972 l 395 889 z "},"§":{"ha":674,"x_min":89,"x_max":611,"o":"m 510 294 q 566 176 566 243 q 492 15 566 75 q 298 -45 418 -45 q 102 1 188 -45 l 102 170 q 313 98 224 98 q 399 165 399 98 q 334 239 399 207 q 191 315 238 283 q 117 394 144 347 q 89 496 89 441 q 174 654 89 593 q 114 800 114 714 q 183 953 114 895 q 370 1011 253 1011 q 546 974 464 1011 l 546 804 q 370 869 452 869 q 286 806 286 869 q 314 753 286 775 q 439 688 341 731 q 611 478 611 612 q 510 294 611 365 m 293 586 q 249 511 249 560 q 283 442 249 473 q 404 375 318 412 q 449 458 449 405 q 413 527 449 500 q 293 586 376 553 z "},"¶":{"ha":707,"x_min":62,"x_max":642,"o":"m 642 863 l 562 863 l 562 0 l 444 0 l 444 863 l 364 863 l 364 0 l 244 0 l 244 567 q 114 629 166 572 q 62 772 62 687 q 120 916 62 860 q 264 972 178 972 l 642 972 l 642 863 z "},"-":{"ha":562,"x_min":97,"x_max":468,"o":"m 468 296 l 97 296 l 97 446 l 468 446 l 468 296 z "},"–":{"ha":694,"x_min":0,"x_max":694,"o":"m 694 296 l 0 296 l 0 446 l 694 446 l 694 296 z "},"—":{"ha":1389,"x_min":0,"x_max":1389,"o":"m 1389 296 l 0 296 l 0 446 l 1389 446 l 1389 296 z "},"#":{"ha":823,"x_min":25,"x_max":798,"o":"m 798 725 l 771 603 l 646 603 l 608 435 l 749 435 l 718 313 l 583 313 l 530 78 l 395 78 l 444 313 l 289 313 l 239 78 l 103 78 l 151 313 l 25 313 l 50 435 l 178 435 l 214 603 l 77 603 l 100 725 l 239 725 l 289 966 l 428 966 l 378 725 l 533 725 l 585 966 l 722 966 l 672 725 l 798 725 m 509 603 l 351 603 l 314 435 l 471 435 l 509 603 z "},"¹":{"ha":547,"x_min":97,"x_max":489,"o":"m 489 600 l 107 600 l 107 716 l 227 716 l 227 1040 l 97 1012 l 97 1134 l 372 1190 l 372 716 l 489 716 l 489 600 z "},"²":{"ha":562,"x_min":79,"x_max":489,"o":"m 489 600 l 79 600 l 79 706 l 248 865 q 312 939 300 914 q 325 995 325 964 q 306 1042 325 1023 q 254 1061 286 1061 q 111 991 188 1061 l 111 1137 q 281 1190 191 1190 q 427 1143 373 1190 q 481 1015 481 1097 q 455 919 481 967 q 334 785 430 871 l 262 723 l 262 720 l 489 720 l 489 600 z "},"³":{"ha":562,"x_min":89,"x_max":485,"o":"m 89 621 l 89 744 q 239 698 161 698 q 340 767 340 698 q 224 837 340 837 l 144 837 l 144 949 l 221 949 q 322 1015 322 949 q 241 1076 322 1076 q 107 1031 169 1076 l 107 1151 q 269 1190 174 1190 q 413 1148 360 1190 q 465 1040 465 1107 q 368 907 465 940 l 368 905 q 485 770 485 877 q 418 636 485 687 q 244 585 352 585 q 89 621 154 585 z "},"%":{"ha":1204,"x_min":61,"x_max":1143,"o":"m 292 479 q 124 545 188 479 q 61 722 61 611 q 129 915 61 844 q 309 986 196 986 q 477 922 416 986 q 538 741 538 857 q 471 550 538 621 q 292 479 404 479 m 304 867 q 205 729 205 867 q 300 599 205 599 q 396 734 396 599 q 304 867 396 867 m 1002 972 l 368 0 l 203 0 l 835 972 l 1002 972 m 897 -14 q 730 52 793 -14 q 667 229 667 118 q 734 422 667 351 q 914 493 802 493 q 1083 429 1023 493 q 1143 249 1143 366 q 1076 58 1143 129 q 897 -14 1009 -14 m 908 374 q 810 236 810 374 q 905 106 810 106 q 1002 241 1002 106 q 976 339 1002 304 q 908 374 950 374 z "},"‰":{"ha":1745,"x_min":61,"x_max":1683,"o":"m 292 479 q 124 545 188 479 q 61 722 61 611 q 129 915 61 844 q 309 986 196 986 q 477 922 416 986 q 538 741 538 857 q 471 550 538 621 q 292 479 404 479 m 304 867 q 205 729 205 867 q 300 599 205 599 q 396 734 396 599 q 304 867 396 867 m 1002 972 l 368 0 l 203 0 l 836 972 l 1002 972 m 1436 -14 q 1269 52 1333 -14 q 1206 229 1206 118 q 1273 422 1206 351 q 1453 493 1341 493 q 1623 429 1562 493 q 1683 249 1683 366 q 1616 58 1683 129 q 1436 -14 1548 -14 m 1449 374 q 1350 236 1350 374 q 1444 106 1350 106 q 1541 241 1541 106 q 1516 339 1541 304 q 1449 374 1490 374 m 897 -14 q 730 52 793 -14 q 667 229 667 118 q 734 422 667 351 q 914 493 802 493 q 1083 429 1023 493 q 1143 249 1143 366 q 1076 58 1143 129 q 897 -14 1009 -14 m 908 374 q 810 236 810 374 q 905 106 810 106 q 1002 241 1002 106 q 976 339 1002 304 q 908 374 950 374 z "},"⁄":{"ha":488,"x_min":-138,"x_max":632,"o":"m 632 972 l 28 0 l -138 0 l 467 972 l 632 972 z "},"¼":{"ha":1322,"x_min":66,"x_max":1251,"o":"m 458 396 l 77 396 l 77 513 l 196 513 l 196 836 l 66 808 l 66 930 l 342 986 l 342 513 l 458 513 l 458 396 m 1251 119 l 1177 119 l 1177 0 l 1032 0 l 1032 119 l 764 119 l 764 215 l 1002 576 l 1177 576 l 1177 224 l 1251 224 l 1251 119 m 1035 460 l 1029 460 q 1003 408 1020 435 l 889 224 l 1032 224 l 1032 403 q 1035 460 1032 435 m 1021 972 l 416 0 l 251 0 l 855 972 l 1021 972 z "},"½":{"ha":1341,"x_min":66,"x_max":1250,"o":"m 458 396 l 77 396 l 77 513 l 196 513 l 196 836 l 66 808 l 66 930 l 342 986 l 342 513 l 458 513 l 458 396 m 1250 0 l 840 0 l 840 106 l 1008 265 q 1073 340 1061 315 q 1086 395 1086 365 q 1066 443 1086 424 q 1015 461 1047 461 q 872 391 949 461 l 872 537 q 1042 590 952 590 q 1188 544 1134 590 q 1242 415 1242 497 q 1216 319 1242 368 q 1095 186 1191 271 l 1023 123 l 1023 121 l 1250 121 l 1250 0 m 1021 972 l 417 0 l 252 0 l 856 972 l 1021 972 z "},"¾":{"ha":1360,"x_min":89,"x_max":1283,"o":"m 89 418 l 89 541 q 239 494 161 494 q 340 564 340 494 q 224 633 340 633 l 144 633 l 144 746 l 221 746 q 322 811 322 746 q 241 872 322 872 q 107 828 169 872 l 107 947 q 269 986 174 986 q 413 945 360 986 q 465 836 465 904 q 368 704 465 736 l 368 701 q 485 567 485 673 q 418 433 485 484 q 244 382 352 382 q 89 418 154 382 m 1283 119 l 1208 119 l 1208 0 l 1064 0 l 1064 119 l 796 119 l 796 215 l 1034 576 l 1208 576 l 1208 224 l 1283 224 l 1283 119 m 1067 460 l 1061 460 q 1035 408 1052 435 l 921 224 l 1064 224 l 1064 403 q 1067 460 1064 435 m 1061 972 l 457 0 l 292 0 l 896 972 l 1061 972 z "},"+":{"ha":982,"x_min":161,"x_max":822,"o":"m 822 329 l 561 329 l 561 68 l 424 68 l 424 329 l 161 329 l 161 467 l 424 467 l 424 729 l 561 729 l 561 467 l 822 467 l 822 329 z "},"−":{"ha":982,"x_min":161,"x_max":822,"o":"m 822 329 l 161 329 l 161 467 l 822 467 l 822 329 z "},"±":{"ha":982,"x_min":161,"x_max":822,"o":"m 822 471 l 561 471 l 561 208 l 424 208 l 424 471 l 164 471 l 164 608 l 424 608 l 424 873 l 561 873 l 561 608 l 822 608 l 822 471 m 821 0 l 161 0 l 161 138 l 821 138 l 821 0 z "},"×":{"ha":982,"x_min":164,"x_max":821,"o":"m 821 168 l 722 71 l 493 301 l 262 71 l 164 170 l 395 397 l 164 628 l 260 726 l 493 496 l 725 726 l 819 624 l 590 397 l 821 168 z "},"÷":{"ha":982,"x_min":161,"x_max":822,"o":"m 496 574 q 428 601 456 574 q 400 667 400 628 q 427 737 400 709 q 496 765 454 765 q 563 738 538 765 q 589 668 589 711 q 561 600 589 627 q 496 574 534 574 m 822 329 l 161 329 l 161 467 l 822 467 l 822 329 m 493 32 q 425 58 453 32 q 397 123 397 85 q 424 194 397 165 q 493 222 451 222 q 561 195 535 222 q 586 125 586 168 q 559 58 586 83 q 493 32 532 32 z "},"=":{"ha":982,"x_min":161,"x_max":822,"o":"m 822 475 l 161 475 l 161 614 l 822 614 l 822 475 m 822 180 l 161 180 l 161 318 l 822 318 l 822 180 z "},"<":{"ha":982,"x_min":175,"x_max":808,"o":"m 808 43 l 175 332 l 175 441 l 808 745 l 808 583 l 357 390 l 357 386 l 808 204 l 808 43 z "},">":{"ha":982,"x_min":175,"x_max":808,"o":"m 808 340 l 175 52 l 175 212 l 628 393 l 628 396 l 175 590 l 175 751 l 808 450 l 808 340 z "},"¬":{"ha":982,"x_min":161,"x_max":822,"o":"m 822 180 l 685 180 l 685 444 l 161 444 l 161 582 l 822 582 l 822 180 z "},"°":{"ha":528,"x_min":78,"x_max":464,"o":"m 271 607 q 134 663 190 607 q 78 799 78 719 q 134 934 78 879 q 271 989 190 989 q 407 934 351 989 q 464 799 464 879 q 407 663 464 719 q 271 607 351 607 m 271 886 q 209 861 234 886 q 183 799 183 836 q 209 736 183 762 q 271 710 234 710 q 332 736 307 710 q 358 799 358 762 q 333 861 358 836 q 271 886 307 886 z "},"^":{"ha":982,"x_min":138,"x_max":847,"o":"m 847 414 l 682 414 l 488 811 l 485 811 l 301 414 l 138 414 l 429 989 l 539 989 l 847 414 z "},"~":{"ha":982,"x_min":132,"x_max":851,"o":"m 851 524 q 790 343 847 410 q 639 277 734 277 q 464 336 567 277 q 358 379 390 379 q 271 271 275 379 l 132 271 q 193 452 136 385 q 347 518 250 518 q 509 467 423 518 q 631 414 597 414 q 689 444 666 414 q 713 524 711 474 l 851 524 z "},"¦":{"ha":453,"x_min":142,"x_max":313,"o":"m 313 464 l 142 464 l 142 1063 l 313 1063 l 313 464 m 313 -326 l 142 -326 l 142 281 l 313 281 l 313 -326 z "},"_":{"ha":576,"x_min":0,"x_max":576,"o":"m 576 -201 l 0 -201 l 0 -121 l 576 -121 l 576 -201 z "},"ª":{"ha":570,"x_min":49,"x_max":501,"o":"m 501 486 l 357 486 l 357 545 l 354 545 q 205 472 295 472 q 93 513 137 472 q 49 621 49 555 q 227 786 49 764 l 357 803 q 262 880 357 880 q 96 828 182 880 l 96 947 q 290 986 180 986 q 501 783 501 986 l 501 486 m 357 668 l 357 715 l 273 704 q 195 639 195 693 q 265 579 195 579 q 329 605 302 579 q 357 668 357 631 z "},"º":{"ha":633,"x_min":47,"x_max":582,"o":"m 311 472 q 117 539 186 472 q 47 728 47 607 q 121 918 47 849 q 319 986 195 986 q 512 917 442 986 q 582 737 582 848 q 510 542 582 612 q 311 472 437 472 m 315 868 q 204 730 204 868 q 315 590 204 590 q 424 732 424 590 q 315 868 424 868 z "},"¤":{"ha":772,"x_min":35,"x_max":737,"o":"m 737 243 l 642 144 l 545 240 q 386 196 473 196 q 228 240 300 196 l 131 144 l 35 243 l 131 336 q 86 492 86 411 q 131 647 86 574 l 35 742 l 131 840 l 228 745 q 386 789 300 789 q 545 745 473 789 l 642 840 l 737 742 l 642 647 q 688 492 688 572 q 642 336 688 414 l 737 243 m 386 654 q 271 607 318 654 q 224 493 224 560 q 271 379 224 426 q 386 332 318 332 q 502 379 454 332 q 550 493 550 426 q 500 607 550 559 q 386 654 451 654 z "},"€":{"ha":799,"x_min":74,"x_max":742,"o":"m 742 31 q 533 -18 662 -18 q 284 66 380 -18 q 157 307 188 151 l 74 307 l 74 436 l 139 436 q 138 476 138 453 q 140 532 138 488 l 74 532 l 74 659 l 160 659 q 301 902 197 815 q 559 989 405 989 q 742 951 673 989 l 742 775 q 570 835 666 835 q 438 787 495 835 q 358 659 382 739 l 647 659 l 647 532 l 338 532 q 335 476 335 492 q 336 436 335 458 l 647 436 l 647 307 l 357 307 q 559 136 408 136 q 742 197 655 136 l 742 31 z "},"$":{"ha":799,"x_min":83,"x_max":734,"o":"m 457 5 l 457 -142 l 358 -142 l 358 1 q 102 64 220 2 l 102 252 q 219 193 141 220 q 358 161 297 165 l 358 408 q 141 536 199 467 q 83 704 83 605 q 159 885 83 810 q 358 972 234 960 l 358 1099 l 457 1099 l 457 975 q 671 929 600 968 l 671 746 q 457 817 576 804 l 457 559 q 670 437 606 506 q 734 271 734 368 q 663 89 734 158 q 457 5 591 20 m 358 599 l 358 814 q 264 715 264 797 q 358 599 264 646 m 457 370 l 457 164 q 554 261 554 179 q 457 370 554 328 z "},"¢":{"ha":799,"x_min":115,"x_max":681,"o":"m 681 140 q 558 103 631 112 l 558 -25 l 449 -25 l 449 100 q 209 202 302 108 q 115 446 115 297 q 206 704 115 604 q 449 821 297 804 l 449 964 l 558 964 l 558 823 q 681 793 633 819 l 681 608 q 558 656 629 648 l 558 267 q 681 313 631 278 l 681 140 m 449 271 l 449 650 q 317 460 317 610 q 449 271 317 309 z "},"£":{"ha":799,"x_min":97,"x_max":755,"o":"m 755 0 l 97 0 l 97 154 q 228 336 228 189 l 228 415 l 111 415 l 111 562 l 228 562 l 228 689 q 311 906 228 823 q 534 989 393 989 q 693 956 621 989 l 693 781 q 551 825 627 825 q 427 669 427 825 l 427 562 l 608 562 l 608 415 l 427 415 l 427 357 q 323 164 427 232 l 755 164 l 755 0 z "},"¥":{"ha":799,"x_min":28,"x_max":785,"o":"m 785 972 l 545 538 l 715 538 l 715 410 l 509 410 l 509 306 l 715 306 l 715 178 l 509 178 l 509 0 l 300 0 l 300 178 l 86 178 l 86 306 l 300 306 l 300 410 l 86 410 l 86 538 l 260 538 l 28 972 l 245 972 l 412 586 l 415 586 q 440 647 418 593 l 578 972 l 785 972 z "},"ƒ":{"ha":799,"x_min":53,"x_max":708,"o":"m 708 796 q 618 817 665 817 q 518 724 534 817 l 503 631 l 610 631 l 610 485 l 479 485 l 418 82 q 323 -129 397 -51 q 135 -207 248 -207 q 53 -193 101 -207 l 53 -29 q 115 -43 79 -43 q 220 94 199 -43 l 279 485 l 208 485 l 208 631 l 304 631 l 319 732 q 411 913 336 845 q 600 981 486 981 q 708 965 656 981 l 708 796 z "},"`":{"ha":436,"x_min":37,"x_max":404,"o":"m 404 804 l 250 804 l 37 1023 l 228 1023 l 404 804 z "},"´":{"ha":421,"x_min":37,"x_max":404,"o":"m 404 1023 l 192 804 l 37 804 l 214 1023 l 404 1023 z "},"ˆ":{"ha":532,"x_min":21,"x_max":509,"o":"m 509 804 l 368 804 l 261 932 l 161 804 l 21 804 l 180 1025 l 349 1025 l 509 804 z "},"ˇ":{"ha":532,"x_min":22,"x_max":511,"o":"m 511 1025 l 350 804 l 182 804 l 22 1025 l 161 1025 l 267 897 l 372 1025 l 511 1025 z "},"˜":{"ha":532,"x_min":24,"x_max":511,"o":"m 511 1015 q 474 868 511 920 q 371 817 436 817 q 257 846 313 817 q 174 878 197 878 q 119 804 119 878 l 24 804 q 61 951 24 899 q 165 1003 98 1003 q 279 970 220 1003 q 361 940 333 940 q 414 1015 414 940 l 511 1015 z "},"¨":{"ha":642,"x_min":58,"x_max":578,"o":"m 473 804 q 399 831 428 804 q 370 897 370 857 q 399 964 370 939 q 473 990 428 990 q 548 964 519 990 q 578 897 578 938 q 549 830 578 857 q 473 804 519 804 m 163 804 q 87 831 117 804 q 58 897 58 858 q 88 964 58 938 q 163 990 118 990 q 238 964 209 990 q 267 897 267 938 q 238 830 267 856 q 163 804 209 804 z "},"¯":{"ha":468,"x_min":35,"x_max":432,"o":"m 432 804 l 35 804 l 35 921 l 432 921 l 432 804 z "},"˘":{"ha":481,"x_min":12,"x_max":469,"o":"m 469 1013 q 400 861 461 917 q 239 804 338 804 q 77 862 140 804 q 12 1013 15 920 l 134 1013 q 241 921 145 921 q 347 1013 334 921 l 469 1013 z "},"˚":{"ha":376,"x_min":26,"x_max":351,"o":"m 186 804 q 72 845 117 804 q 26 950 26 885 q 74 1059 26 1019 q 189 1100 121 1100 q 307 1060 262 1100 q 351 954 351 1019 q 303 846 351 888 q 186 804 254 804 m 186 1017 q 121 953 121 1017 q 186 889 121 889 q 236 908 216 889 q 256 953 256 926 q 236 999 256 981 q 186 1017 217 1017 z "},"¸":{"ha":299,"x_min":35,"x_max":310,"o":"m 35 -306 l 35 -212 q 83 -216 58 -216 q 167 -167 167 -216 q 92 -122 167 -122 q 66 -123 83 -122 l 66 0 l 183 0 l 183 -56 q 310 -168 310 -61 q 94 -309 310 -309 q 35 -306 63 -309 z "},"µ":{"ha":851,"x_min":90,"x_max":787,"o":"m 787 0 l 568 0 q 551 104 551 47 l 548 104 q 401 -16 509 -16 q 307 28 336 -16 l 304 28 l 304 -268 l 90 -268 l 90 694 l 304 694 l 304 295 q 420 155 304 155 q 545 327 545 155 l 545 694 l 761 694 l 761 213 q 787 0 761 53 z "},"₹":{"ha":799,"x_min":81,"x_max":724,"o":"m 81 610 l 81 739 l 387 739 q 335 817 374 789 q 231 844 297 844 l 81 844 l 81 972 l 724 972 l 724 844 l 559 844 l 557 840 q 608 739 597 790 l 724 739 l 724 610 l 605 610 q 516 472 583 528 q 336 400 449 416 l 334 396 l 633 0 l 380 0 l 81 399 l 81 500 l 207 500 q 325 531 282 500 q 384 610 368 562 l 81 610 z "},"₨":{"ha":1374,"x_min":111,"x_max":1301,"o":"m 804 0 l 553 0 l 468 250 q 415 342 444 312 q 344 372 385 372 l 330 372 l 330 0 l 111 0 l 111 972 l 411 972 q 673 904 588 972 q 758 704 758 836 q 744 610 758 653 q 703 532 729 566 q 640 475 676 498 q 559 440 603 452 l 559 437 q 633 387 602 424 q 691 288 664 349 l 804 0 m 330 808 l 330 538 l 385 538 q 444 548 417 538 q 489 577 470 558 q 517 622 507 595 q 528 681 528 648 q 493 777 528 745 q 382 808 458 808 l 330 808 m 824 18 l 824 178 q 1023 115 929 115 q 1110 178 1110 115 q 1036 235 1110 208 q 954 264 992 250 q 886 299 915 279 q 841 349 857 319 q 824 425 824 379 q 845 518 824 479 q 901 581 865 556 q 982 616 936 605 q 1080 628 1028 628 q 1260 600 1173 628 l 1260 449 q 1090 496 1181 496 q 1020 446 1020 496 q 1093 392 1020 420 q 1174 361 1136 376 q 1240 324 1212 345 q 1285 273 1268 303 q 1301 199 1301 243 q 1025 -17 1301 -17 q 824 18 917 -17 z "},"‌":{"ha":0,"x_min":-24,"x_max":24,"o":"m 24 1187 l 24 -277 l -24 -277 l -24 1187 l 24 1187 z "},"‍":{"ha":0,"x_min":-149,"x_max":149,"o":"m 24 -277 l -24 -277 l -24 984 l -115 892 l -149 925 l -33 1040 l -149 1154 l -115 1187 l 0 1071 l 115 1187 l 149 1154 l 33 1040 l 149 925 l 115 892 l 24 984 l 24 -277 z "},"◌":{"ha":825,"x_min":69,"x_max":756,"o":"m 665 623 q 632 589 665 589 q 597 623 597 589 q 632 656 597 656 q 665 623 665 656 m 564 689 q 532 656 564 656 q 496 689 496 656 q 532 724 496 724 q 564 689 564 724 m 732 522 q 697 488 732 488 q 664 522 664 488 q 699 555 664 555 q 732 522 732 555 m 756 404 q 724 370 756 370 q 688 404 688 370 q 724 438 688 438 q 756 404 756 438 m 446 714 q 412 680 446 680 q 378 714 378 680 q 412 747 378 747 q 446 714 446 747 m 329 689 q 294 656 329 656 q 261 689 261 656 q 294 724 261 724 q 329 689 329 724 m 732 286 q 697 253 732 253 q 664 286 664 253 q 697 321 664 321 q 732 286 732 321 m 229 623 q 195 589 229 589 q 161 621 161 589 q 195 656 161 656 q 229 623 229 656 m 665 184 q 632 151 665 151 q 597 184 597 151 q 632 219 597 219 q 665 184 665 219 m 564 118 q 532 85 564 85 q 496 118 496 85 q 532 153 496 153 q 564 118 564 153 m 161 522 q 129 488 161 488 q 94 522 94 488 q 127 555 94 555 q 161 522 161 555 m 137 404 q 104 370 138 370 q 69 404 69 370 q 104 438 69 438 q 137 404 138 438 m 446 96 q 412 61 446 61 q 378 96 378 61 q 412 129 378 129 q 446 96 446 129 m 161 286 q 127 253 161 253 q 94 286 94 253 q 127 321 94 321 q 161 286 161 321 m 329 121 q 294 85 329 85 q 261 118 261 85 q 294 153 261 153 q 329 121 329 153 m 229 184 q 195 151 229 151 q 161 184 161 151 q 195 219 161 219 q 229 184 229 219 z "},"ऄ":{"ha":1189,"x_min":40,"x_max":1213,"o":"m 686 558 q 708 556 698 557 q 731 555 718 555 q 817 565 774 555 q 888 589 859 575 l 888 1011 l 1213 1011 l 1213 859 l 1065 859 l 1065 0 l 888 0 l 888 438 q 867 430 880 434 q 839 422 854 426 q 807 417 823 419 q 776 415 791 415 q 781 385 779 398 q 783 353 783 371 q 760 244 783 292 q 697 162 737 195 q 602 110 656 128 q 485 92 547 92 q 368 111 420 92 q 271 160 315 129 q 193 235 228 192 q 130 327 158 277 q 80 429 102 376 q 40 534 58 482 l 191 595 q 219 516 203 557 q 253 437 234 475 q 296 365 273 399 q 348 306 319 332 q 409 266 376 281 q 480 252 441 252 q 571 286 540 252 q 603 379 603 321 q 591 441 603 415 q 559 484 580 467 q 511 508 539 500 q 451 516 484 516 q 435 516 444 516 q 415 515 425 515 q 395 513 405 514 q 377 512 385 513 l 377 665 q 390 664 383 664 q 402 664 396 664 q 468 669 437 664 q 521 688 498 675 q 556 724 543 701 q 569 779 569 746 q 539 853 569 830 q 458 876 509 876 q 384 866 420 876 q 313 840 347 855 l 272 988 q 372 1023 321 1012 q 470 1035 423 1035 q 583 1017 532 1035 q 671 966 634 998 q 728 891 707 935 q 748 799 748 848 q 718 688 748 739 q 628 598 688 637 l 629 595 q 659 578 644 587 q 686 558 673 568 m 890 992 q 868 1084 884 1051 q 831 1133 853 1117 q 781 1153 809 1149 q 719 1158 752 1157 q 654 1160 686 1158 q 593 1169 623 1162 q 535 1191 563 1176 q 485 1234 508 1206 q 442 1305 461 1262 q 410 1412 423 1349 l 564 1444 q 580 1388 572 1411 q 596 1350 587 1365 q 617 1326 606 1335 q 646 1312 629 1317 q 687 1306 663 1308 q 743 1303 711 1304 q 814 1299 779 1301 q 881 1288 849 1297 q 940 1261 912 1279 q 990 1208 968 1242 q 1027 1121 1012 1174 q 1050 992 1043 1069 l 890 992 z "},"अ":{"ha":1189,"x_min":40,"x_max":1213,"o":"m 686 558 q 708 556 698 557 q 731 555 718 555 q 817 565 774 555 q 888 589 859 575 l 888 1011 l 1213 1011 l 1213 859 l 1065 859 l 1065 0 l 888 0 l 888 438 q 867 430 880 434 q 839 422 854 426 q 807 417 823 419 q 776 415 791 415 q 781 385 779 398 q 783 353 783 371 q 760 244 783 292 q 697 162 737 195 q 602 110 656 128 q 485 92 547 92 q 368 111 420 92 q 271 160 315 129 q 193 235 228 192 q 130 327 158 277 q 80 429 102 376 q 40 534 58 482 l 191 595 q 219 516 203 557 q 253 437 234 475 q 296 365 273 399 q 348 306 319 332 q 409 266 376 281 q 480 252 441 252 q 571 286 540 252 q 603 379 603 321 q 591 441 603 415 q 559 484 580 467 q 511 508 539 500 q 451 516 484 516 q 435 516 444 516 q 415 515 425 515 q 395 513 405 514 q 377 512 385 513 l 377 665 q 390 664 383 664 q 402 664 396 664 q 468 669 437 664 q 521 688 498 675 q 556 724 543 701 q 569 779 569 746 q 539 853 569 830 q 458 876 509 876 q 384 866 420 876 q 313 840 347 855 l 272 988 q 372 1023 321 1012 q 470 1035 423 1035 q 583 1017 532 1035 q 671 966 634 998 q 728 891 707 935 q 748 799 748 848 q 718 688 748 739 q 628 598 688 637 l 629 595 q 659 578 644 587 q 686 558 673 568 z "},"आ":{"ha":1616,"x_min":40,"x_max":1640,"o":"m 686 558 q 708 556 698 557 q 731 555 718 555 q 817 565 774 555 q 888 589 859 575 l 888 1011 l 1213 1011 l 1213 859 l 1065 859 l 1065 0 l 888 0 l 888 438 q 867 430 880 434 q 839 422 854 426 q 807 417 823 419 q 776 415 791 415 q 781 385 779 398 q 783 353 783 371 q 760 244 783 292 q 697 162 737 195 q 602 110 656 128 q 485 92 547 92 q 368 111 420 92 q 271 160 315 129 q 193 235 228 192 q 130 327 158 277 q 80 429 102 376 q 40 534 58 482 l 191 595 q 219 516 203 557 q 253 437 234 475 q 296 365 273 399 q 348 306 319 332 q 409 266 376 281 q 480 252 441 252 q 571 286 540 252 q 603 379 603 321 q 591 441 603 415 q 559 484 580 467 q 511 508 539 500 q 451 516 484 516 q 435 516 444 516 q 415 515 425 515 q 395 513 405 514 q 377 512 385 513 l 377 665 q 390 664 383 664 q 402 664 396 664 q 468 669 437 664 q 521 688 498 675 q 556 724 543 701 q 569 779 569 746 q 539 853 569 830 q 458 876 509 876 q 384 866 420 876 q 313 840 347 855 l 272 988 q 372 1023 321 1012 q 470 1035 423 1035 q 583 1017 532 1035 q 671 966 634 998 q 728 891 707 935 q 748 799 748 848 q 718 688 748 739 q 628 598 688 637 l 629 595 q 659 578 644 587 q 686 558 673 568 m 1640 859 l 1492 859 l 1492 0 l 1315 0 l 1315 859 l 1165 859 l 1165 1011 l 1640 1011 l 1640 859 z "},"इ":{"ha":848,"x_min":-24,"x_max":871,"o":"m 521 7 q 581 -40 551 -18 q 640 -78 611 -61 q 693 -107 668 -94 q 741 -128 719 -119 l 657 -272 q 566 -219 611 -249 q 481 -156 522 -189 q 407 -89 441 -123 q 347 -22 372 -54 q 256 -8 296 -22 q 186 30 215 6 q 142 83 158 53 q 127 148 127 114 q 136 190 127 171 q 162 222 146 209 q 199 244 178 236 q 245 252 220 252 q 350 223 302 252 q 433 142 398 195 q 495 158 470 147 q 535 185 520 170 q 557 220 551 201 q 564 261 564 239 q 556 300 564 286 q 537 321 549 314 q 510 331 526 329 q 475 334 494 334 l 298 334 q 196 361 237 334 q 129 429 155 388 q 92 516 103 469 q 81 603 81 563 q 94 682 81 650 q 131 735 108 715 q 185 765 155 756 q 250 774 216 774 l 481 774 l 481 859 l -24 859 l -24 1011 l 871 1011 l 871 859 l 658 859 l 658 622 l 334 622 q 275 610 291 622 q 258 572 258 597 q 262 545 258 559 q 277 519 267 531 q 305 499 287 507 q 352 492 323 492 l 536 492 q 632 476 593 492 q 695 432 671 460 q 729 366 719 404 q 740 286 740 328 q 727 195 740 237 q 687 117 714 152 q 619 55 661 81 q 522 12 578 28 l 521 7 z "},"ई":{"ha":848,"x_min":-24,"x_max":871,"o":"m 521 7 q 581 -40 551 -18 q 640 -78 611 -61 q 693 -107 668 -94 q 741 -128 719 -119 l 657 -272 q 566 -219 611 -249 q 481 -156 522 -189 q 407 -89 441 -123 q 347 -22 372 -54 q 256 -8 296 -22 q 186 30 215 6 q 142 83 158 53 q 127 148 127 114 q 136 190 127 171 q 162 222 146 209 q 199 244 178 236 q 245 252 220 252 q 350 223 302 252 q 433 142 398 195 q 495 158 470 147 q 535 185 520 170 q 557 220 551 201 q 564 261 564 239 q 556 300 564 286 q 537 321 549 314 q 510 331 526 329 q 475 334 494 334 l 298 334 q 196 361 237 334 q 129 429 155 388 q 92 516 103 469 q 81 603 81 563 q 94 682 81 650 q 131 735 108 715 q 185 765 155 756 q 250 774 216 774 l 481 774 l 481 859 l -24 859 l -24 1011 l 871 1011 l 871 859 l 658 859 l 658 622 l 334 622 q 275 610 291 622 q 258 572 258 597 q 262 545 258 559 q 277 519 267 531 q 305 499 287 507 q 352 492 323 492 l 536 492 q 632 476 593 492 q 695 432 671 460 q 729 366 719 404 q 740 286 740 328 q 727 195 740 237 q 687 117 714 152 q 619 55 661 81 q 522 12 578 28 l 521 7 m 733 1271 q 687 1313 712 1299 q 635 1326 662 1326 q 602 1321 617 1326 q 574 1303 586 1315 q 555 1274 562 1292 q 548 1234 548 1257 q 556 1180 548 1208 q 578 1123 564 1152 q 610 1063 592 1093 q 648 1004 629 1033 l 474 1004 q 400 1128 422 1067 q 378 1244 378 1190 q 398 1343 378 1300 q 452 1416 418 1386 q 533 1460 487 1445 q 634 1476 580 1476 q 752 1452 700 1476 q 848 1372 804 1428 l 733 1271 z "},"उ":{"ha":987,"x_min":-24,"x_max":1011,"o":"m 1011 859 l 810 859 q 839 798 830 828 q 848 736 848 767 q 816 625 848 675 q 724 543 783 574 l 724 536 q 846 428 804 498 q 888 269 888 357 q 868 155 888 210 q 809 60 849 101 q 710 -6 770 18 q 568 -31 650 -31 q 410 -3 481 -31 q 285 72 340 26 q 189 178 230 119 q 120 301 149 238 q 75 425 92 363 q 50 534 58 486 l 202 603 q 227 496 210 551 q 267 389 243 441 q 321 291 290 337 q 389 210 352 245 q 469 155 426 176 q 561 135 513 135 q 623 146 595 135 q 669 177 650 157 q 698 225 688 197 q 708 288 708 253 q 651 417 708 373 q 495 460 595 460 q 431 456 464 460 l 431 608 q 455 606 444 607 q 477 606 467 606 q 621 644 571 606 q 671 748 671 682 q 661 806 671 778 q 636 859 652 835 l -24 859 l -24 1011 l 1011 1011 l 1011 859 z "},"ऊ":{"ha":1354,"x_min":-24,"x_max":1378,"o":"m 572 -31 q 412 -3 483 -31 q 286 72 341 25 q 190 177 231 118 q 121 300 149 237 q 75 424 92 363 q 50 534 58 485 l 202 603 q 227 496 210 551 q 267 389 243 441 q 321 291 290 337 q 389 210 352 245 q 469 155 426 176 q 560 135 512 135 q 670 176 632 135 q 708 288 708 217 q 651 417 708 373 q 495 460 595 460 q 431 456 464 460 l 431 608 q 455 606 444 607 q 477 606 467 606 q 620 644 572 606 q 669 747 669 682 q 659 806 669 778 q 633 859 648 835 l -24 859 l -24 1011 l 1378 1011 l 1378 859 l 807 859 q 846 735 846 799 q 815 625 846 675 q 724 543 783 574 l 724 536 q 817 466 781 509 q 915 534 860 509 q 1027 558 969 558 q 1131 538 1084 558 q 1210 482 1177 517 q 1260 400 1242 447 q 1277 300 1277 353 q 1262 203 1277 248 q 1221 117 1247 157 q 1160 39 1195 76 q 1084 -31 1125 3 l 977 93 q 1030 142 1006 119 q 1070 191 1053 166 q 1095 241 1086 215 q 1104 298 1104 267 q 1098 340 1104 321 q 1080 374 1091 360 q 1053 396 1068 389 q 1019 404 1038 404 q 979 397 999 404 q 942 377 960 389 q 909 350 924 366 q 884 319 895 335 q 888 269 888 294 q 868 156 888 210 q 809 60 848 101 q 710 -6 770 18 q 572 -31 651 -31 z "},"ऋ":{"ha":1287,"x_min":-24,"x_max":1311,"o":"m 690 425 l 690 0 l 513 0 l 513 290 l 509 291 l 190 58 l 96 185 l 507 475 l 507 484 q 445 539 475 516 q 385 578 414 563 q 326 602 355 594 q 264 609 296 609 q 222 608 250 609 q 164 604 195 606 q 103 599 133 602 q 52 593 73 596 l 52 752 q 100 756 71 754 q 159 760 129 758 q 214 763 189 762 q 252 764 240 764 q 316 755 286 764 q 377 729 347 746 q 440 687 408 711 q 510 632 473 663 l 513 633 l 513 859 l -24 859 l -24 1011 l 1311 1011 l 1311 859 l 690 859 l 690 555 q 753 560 722 555 q 811 575 784 564 q 801 635 801 604 q 810 691 801 664 q 836 740 819 719 q 878 774 853 761 q 933 787 902 787 q 982 776 960 787 q 1019 748 1004 766 q 1042 706 1034 730 q 1050 654 1050 682 q 1041 599 1050 625 q 1015 549 1032 572 q 1101 468 1065 505 q 1161 397 1137 431 q 1196 330 1184 363 q 1207 260 1207 296 q 1184 161 1207 205 q 1117 80 1161 116 q 1009 16 1073 44 q 863 -31 945 -12 l 825 128 q 864 137 842 132 q 908 150 886 142 q 954 169 931 158 q 993 194 976 180 q 1021 225 1010 208 q 1031 264 1031 243 q 1018 311 1031 288 q 984 358 1005 334 q 938 407 964 382 q 888 458 912 432 q 796 433 845 442 q 690 425 747 425 z "},"ऌ":{"ha":1153,"x_min":-24,"x_max":1177,"o":"m 445 416 q 437 473 443 444 q 419 526 431 503 q 389 565 407 550 q 347 581 372 581 q 290 550 313 581 q 267 461 267 519 q 293 349 267 401 q 361 253 319 298 q 456 170 404 208 q 562 98 509 131 l 467 -31 q 419 -4 453 -23 q 343 46 386 16 q 256 117 301 76 q 173 211 211 159 q 112 325 136 262 q 87 460 87 387 q 107 579 87 526 q 162 669 127 632 q 242 727 196 707 q 340 747 288 747 q 409 737 378 747 q 461 710 439 726 q 500 674 484 694 q 525 636 515 654 l 528 637 q 616 722 559 696 l 616 859 l -24 859 l -24 1011 l 1177 1011 l 1177 859 l 795 859 l 795 726 q 869 687 838 713 q 920 628 900 661 q 950 559 941 595 q 960 490 960 523 q 950 423 960 453 q 924 367 939 393 q 890 320 908 342 q 857 280 872 299 q 830 243 841 260 q 820 208 820 225 q 834 173 820 187 q 871 159 848 159 q 911 170 890 159 q 951 197 932 180 q 988 233 971 213 q 1019 271 1006 252 l 1127 151 q 1078 100 1105 125 q 1018 54 1051 74 q 945 20 985 33 q 859 7 905 7 q 769 23 809 7 q 702 65 729 39 q 660 126 674 92 q 645 199 645 161 q 655 260 645 233 q 680 311 665 288 q 713 356 695 335 q 745 397 730 377 q 770 439 760 418 q 781 484 781 460 q 774 520 781 503 q 755 549 767 536 q 727 570 743 562 q 690 577 710 577 q 648 567 665 577 q 620 538 631 556 q 603 497 608 521 q 597 449 597 474 q 598 433 597 441 q 600 416 599 424 l 445 416 z "},"ऍ":{"ha":831,"x_min":-24,"x_max":893,"o":"m 562 859 l 291 859 l 291 426 q 300 349 291 378 q 332 296 309 319 q 396 251 355 273 q 500 198 437 229 q 617 139 562 168 q 715 77 673 110 q 783 5 758 45 q 808 -85 808 -34 q 789 -167 808 -128 q 731 -253 770 -206 l 592 -155 q 613 -118 607 -135 q 620 -85 620 -101 q 603 -40 620 -60 q 557 -1 586 -20 q 489 35 528 17 q 407 75 450 54 q 316 120 357 99 q 242 163 275 141 q 185 208 210 184 q 145 261 161 232 q 122 328 130 291 q 114 412 114 364 l 114 859 l -24 859 l -24 1011 l 893 1011 l 893 859 l 739 859 l 739 535 q 723 433 739 475 q 681 365 708 391 q 618 325 654 338 q 538 313 581 313 q 478 318 511 313 q 419 334 445 324 l 419 501 q 457 486 434 492 q 501 479 480 479 q 534 485 522 479 q 552 502 546 490 q 561 532 559 513 q 562 576 562 550 l 562 859 m 229 1451 q 237 1421 231 1440 q 252 1379 242 1402 q 276 1332 262 1356 q 312 1289 291 1308 q 361 1257 333 1270 q 426 1245 389 1245 q 489 1257 461 1245 q 538 1286 517 1268 q 574 1328 559 1305 q 600 1374 589 1351 q 616 1417 610 1396 q 627 1452 623 1438 l 772 1402 q 753 1341 765 1374 q 724 1274 742 1308 q 679 1208 705 1240 q 617 1151 653 1176 q 535 1112 581 1126 q 430 1097 488 1097 q 302 1119 359 1097 q 200 1181 244 1141 q 126 1277 157 1221 q 80 1402 96 1333 l 229 1451 z "},"ऎ":{"ha":831,"x_min":-24,"x_max":893,"o":"m 562 859 l 291 859 l 291 426 q 300 349 291 378 q 332 296 309 319 q 396 251 355 273 q 500 198 437 229 q 617 139 562 168 q 715 77 673 110 q 783 5 758 45 q 808 -85 808 -34 q 789 -167 808 -128 q 731 -253 770 -206 l 592 -155 q 613 -118 607 -135 q 620 -85 620 -101 q 603 -40 620 -60 q 557 -1 586 -20 q 489 35 528 17 q 407 75 450 54 q 316 120 357 99 q 242 163 275 141 q 185 208 210 184 q 145 261 161 232 q 122 328 130 291 q 114 412 114 364 l 114 859 l -24 859 l -24 1011 l 893 1011 l 893 859 l 739 859 l 739 535 q 723 433 739 475 q 681 365 708 391 q 618 325 654 338 q 538 313 581 313 q 478 318 511 313 q 419 334 445 324 l 419 501 q 457 486 434 492 q 501 479 480 479 q 534 485 522 479 q 552 502 546 490 q 561 532 559 513 q 562 576 562 550 l 562 859 m 564 992 q 542 1084 557 1051 q 505 1133 527 1117 q 454 1153 483 1149 q 393 1158 426 1157 q 328 1160 360 1158 q 267 1169 296 1162 q 209 1191 237 1176 q 158 1234 182 1206 q 116 1305 135 1262 q 84 1412 97 1349 l 237 1444 q 254 1388 246 1411 q 270 1350 261 1365 q 291 1326 279 1335 q 320 1312 303 1317 q 361 1306 337 1308 q 417 1303 385 1304 q 488 1299 453 1301 q 554 1288 523 1297 q 614 1261 586 1279 q 664 1208 642 1242 q 701 1121 686 1174 q 724 992 717 1069 l 564 992 z "},"ए":{"ha":869,"x_min":-24,"x_max":893,"o":"m 562 859 l 291 859 l 291 426 q 300 349 291 378 q 332 296 309 319 q 396 251 355 273 q 500 198 437 229 q 617 139 562 168 q 715 77 673 110 q 783 5 758 45 q 808 -85 808 -34 q 789 -167 808 -128 q 731 -253 770 -206 l 592 -155 q 613 -118 607 -135 q 620 -85 620 -101 q 603 -40 620 -60 q 557 -1 586 -20 q 489 35 528 17 q 407 75 450 54 q 316 120 357 99 q 242 163 275 141 q 185 208 210 184 q 145 261 161 232 q 122 328 130 291 q 114 412 114 364 l 114 859 l -24 859 l -24 1011 l 893 1011 l 893 859 l 739 859 l 739 535 q 723 433 739 475 q 681 365 708 391 q 618 325 654 338 q 538 313 581 313 q 478 318 511 313 q 419 334 445 324 l 419 501 q 457 486 434 492 q 501 479 480 479 q 534 485 522 479 q 552 502 546 490 q 561 532 559 513 q 562 576 562 550 l 562 859 z "},"ऐ":{"ha":869,"x_min":-24,"x_max":893,"o":"m 562 859 l 291 859 l 291 426 q 300 349 291 378 q 332 296 309 319 q 396 251 355 273 q 500 198 437 229 q 617 139 562 168 q 715 77 673 110 q 783 5 758 45 q 808 -85 808 -34 q 789 -167 808 -128 q 731 -253 770 -206 l 592 -155 q 613 -118 607 -135 q 620 -85 620 -101 q 603 -40 620 -60 q 557 -1 586 -20 q 489 35 528 17 q 407 75 450 54 q 316 120 357 99 q 242 163 275 141 q 185 208 210 184 q 145 261 161 232 q 122 328 130 291 q 114 412 114 364 l 114 859 l -24 859 l -24 1011 l 893 1011 l 893 859 l 739 859 l 739 535 q 723 433 739 475 q 681 365 708 391 q 618 325 654 338 q 538 313 581 313 q 478 318 511 313 q 419 334 445 324 l 419 501 q 457 486 434 492 q 501 479 480 479 q 534 485 522 479 q 552 502 546 490 q 561 532 559 513 q 562 576 562 550 l 562 859 m 579 992 l 559 1029 q 497 1142 524 1095 q 449 1220 471 1189 q 408 1268 427 1251 q 371 1294 390 1285 q 332 1304 353 1302 q 286 1306 311 1306 l 147 1306 l 147 1458 l 273 1458 q 365 1455 327 1458 q 434 1437 404 1451 q 492 1393 465 1422 q 552 1312 519 1364 q 625 1182 584 1260 q 725 992 667 1104 l 579 992 z "},"ऑ":{"ha":1616,"x_min":40,"x_max":1744,"o":"m 686 558 q 708 556 698 557 q 731 555 718 555 q 817 565 774 555 q 888 589 859 575 l 888 1011 l 1213 1011 l 1213 859 l 1065 859 l 1065 0 l 888 0 l 888 438 q 867 430 880 434 q 839 422 854 426 q 807 417 823 419 q 776 415 791 415 q 781 385 779 398 q 783 353 783 371 q 760 244 783 292 q 697 162 737 195 q 602 110 656 128 q 485 92 547 92 q 368 111 420 92 q 271 160 315 129 q 193 235 228 192 q 130 327 158 277 q 80 429 102 376 q 40 534 58 482 l 191 595 q 219 516 203 557 q 253 437 234 475 q 296 365 273 399 q 348 306 319 332 q 409 266 376 281 q 480 252 441 252 q 571 286 540 252 q 603 379 603 321 q 591 441 603 415 q 559 484 580 467 q 511 508 539 500 q 451 516 484 516 q 435 516 444 516 q 415 515 425 515 q 395 513 405 514 q 377 512 385 513 l 377 665 q 390 664 383 664 q 402 664 396 664 q 468 669 437 664 q 521 688 498 675 q 556 724 543 701 q 569 779 569 746 q 539 853 569 830 q 458 876 509 876 q 384 866 420 876 q 313 840 347 855 l 272 988 q 372 1023 321 1012 q 470 1035 423 1035 q 583 1017 532 1035 q 671 966 634 998 q 728 891 707 935 q 748 799 748 848 q 718 688 748 739 q 628 598 688 637 l 629 595 q 659 578 644 587 q 686 558 673 568 m 1640 859 l 1492 859 l 1492 0 l 1315 0 l 1315 859 l 1165 859 l 1165 1011 l 1640 1011 l 1640 859 m 1201 1451 q 1209 1421 1204 1440 q 1224 1379 1215 1402 q 1249 1332 1234 1356 q 1284 1289 1263 1308 q 1334 1257 1305 1270 q 1398 1245 1362 1245 q 1461 1257 1434 1245 q 1510 1286 1489 1268 q 1547 1328 1531 1305 q 1572 1374 1562 1351 q 1589 1417 1583 1396 q 1599 1452 1595 1438 l 1744 1402 q 1726 1341 1737 1374 q 1696 1274 1714 1308 q 1652 1208 1678 1240 q 1590 1151 1626 1176 q 1507 1112 1554 1126 q 1402 1097 1461 1097 q 1274 1119 1332 1097 q 1173 1181 1217 1141 q 1099 1277 1129 1221 q 1053 1402 1069 1333 l 1201 1451 z "},"ऒ":{"ha":1616,"x_min":40,"x_max":1640,"o":"m 686 558 q 708 556 698 557 q 731 555 718 555 q 817 565 774 555 q 888 589 859 575 l 888 1011 l 1213 1011 l 1213 859 l 1065 859 l 1065 0 l 888 0 l 888 438 q 867 430 880 434 q 839 422 854 426 q 807 417 823 419 q 776 415 791 415 q 781 385 779 398 q 783 353 783 371 q 760 244 783 292 q 697 162 737 195 q 602 110 656 128 q 485 92 547 92 q 368 111 420 92 q 271 160 315 129 q 193 235 228 192 q 130 327 158 277 q 80 429 102 376 q 40 534 58 482 l 191 595 q 219 516 203 557 q 253 437 234 475 q 296 365 273 399 q 348 306 319 332 q 409 266 376 281 q 480 252 441 252 q 571 286 540 252 q 603 379 603 321 q 591 441 603 415 q 559 484 580 467 q 511 508 539 500 q 451 516 484 516 q 435 516 444 516 q 415 515 425 515 q 395 513 405 514 q 377 512 385 513 l 377 665 q 390 664 383 664 q 402 664 396 664 q 468 669 437 664 q 521 688 498 675 q 556 724 543 701 q 569 779 569 746 q 539 853 569 830 q 458 876 509 876 q 384 866 420 876 q 313 840 347 855 l 272 988 q 372 1023 321 1012 q 470 1035 423 1035 q 583 1017 532 1035 q 671 966 634 998 q 728 891 707 935 q 748 799 748 848 q 718 688 748 739 q 628 598 688 637 l 629 595 q 659 578 644 587 q 686 558 673 568 m 1640 859 l 1492 859 l 1492 0 l 1315 0 l 1315 859 l 1165 859 l 1165 1011 l 1640 1011 l 1640 859 m 1318 992 q 1296 1084 1311 1051 q 1258 1133 1280 1117 q 1208 1153 1236 1149 q 1146 1158 1179 1157 q 1082 1160 1114 1158 q 1020 1169 1050 1162 q 963 1191 990 1176 q 912 1234 935 1206 q 869 1305 888 1262 q 838 1412 850 1349 l 991 1444 q 1007 1388 1000 1411 q 1024 1350 1015 1365 q 1045 1326 1033 1335 q 1074 1312 1057 1317 q 1114 1306 1090 1308 q 1171 1303 1138 1304 q 1241 1299 1206 1301 q 1308 1288 1276 1297 q 1367 1261 1339 1279 q 1417 1208 1395 1242 q 1455 1121 1439 1174 q 1478 992 1470 1069 l 1318 992 z "},"ओ":{"ha":1616,"x_min":40,"x_max":1640,"o":"m 686 558 q 708 556 698 557 q 731 555 718 555 q 817 565 774 555 q 888 589 859 575 l 888 1011 l 1213 1011 l 1213 859 l 1065 859 l 1065 0 l 888 0 l 888 438 q 867 430 880 434 q 839 422 854 426 q 807 417 823 419 q 776 415 791 415 q 781 385 779 398 q 783 353 783 371 q 760 244 783 292 q 697 162 737 195 q 602 110 656 128 q 485 92 547 92 q 368 111 420 92 q 271 160 315 129 q 193 235 228 192 q 130 327 158 277 q 80 429 102 376 q 40 534 58 482 l 191 595 q 219 516 203 557 q 253 437 234 475 q 296 365 273 399 q 348 306 319 332 q 409 266 376 281 q 480 252 441 252 q 571 286 540 252 q 603 379 603 321 q 591 441 603 415 q 559 484 580 467 q 511 508 539 500 q 451 516 484 516 q 435 516 444 516 q 415 515 425 515 q 395 513 405 514 q 377 512 385 513 l 377 665 q 390 664 383 664 q 402 664 396 664 q 468 669 437 664 q 521 688 498 675 q 556 724 543 701 q 569 779 569 746 q 539 853 569 830 q 458 876 509 876 q 384 866 420 876 q 313 840 347 855 l 272 988 q 372 1023 321 1012 q 470 1035 423 1035 q 583 1017 532 1035 q 671 966 634 998 q 728 891 707 935 q 748 799 748 848 q 718 688 748 739 q 628 598 688 637 l 629 595 q 659 578 644 587 q 686 558 673 568 m 1640 859 l 1492 859 l 1492 0 l 1315 0 l 1315 859 l 1165 859 l 1165 1011 l 1640 1011 l 1640 859 m 1333 992 l 1313 1029 q 1251 1142 1278 1095 q 1202 1220 1224 1189 q 1162 1268 1180 1251 q 1125 1294 1143 1285 q 1085 1304 1106 1302 q 1039 1306 1065 1306 l 901 1306 l 901 1458 l 1027 1458 q 1119 1455 1080 1458 q 1187 1437 1157 1451 q 1245 1393 1218 1422 q 1305 1312 1273 1364 q 1379 1182 1337 1260 q 1478 992 1420 1104 l 1333 992 z "},"औ":{"ha":1616,"x_min":40,"x_max":1640,"o":"m 686 558 q 708 556 698 557 q 731 555 718 555 q 817 565 774 555 q 888 589 859 575 l 888 1011 l 1213 1011 l 1213 859 l 1065 859 l 1065 0 l 888 0 l 888 438 q 867 430 880 434 q 839 422 854 426 q 807 417 823 419 q 776 415 791 415 q 781 385 779 398 q 783 353 783 371 q 760 244 783 292 q 697 162 737 195 q 602 110 656 128 q 485 92 547 92 q 368 111 420 92 q 271 160 315 129 q 193 235 228 192 q 130 327 158 277 q 80 429 102 376 q 40 534 58 482 l 191 595 q 219 516 203 557 q 253 437 234 475 q 296 365 273 399 q 348 306 319 332 q 409 266 376 281 q 480 252 441 252 q 571 286 540 252 q 603 379 603 321 q 591 441 603 415 q 559 484 580 467 q 511 508 539 500 q 451 516 484 516 q 435 516 444 516 q 415 515 425 515 q 395 513 405 514 q 377 512 385 513 l 377 665 q 390 664 383 664 q 402 664 396 664 q 468 669 437 664 q 521 688 498 675 q 556 724 543 701 q 569 779 569 746 q 539 853 569 830 q 458 876 509 876 q 384 866 420 876 q 313 840 347 855 l 272 988 q 372 1023 321 1012 q 470 1035 423 1035 q 583 1017 532 1035 q 671 966 634 998 q 728 891 707 935 q 748 799 748 848 q 718 688 748 739 q 628 598 688 637 l 629 595 q 659 578 644 587 q 686 558 673 568 m 1640 859 l 1492 859 l 1492 0 l 1315 0 l 1315 859 l 1165 859 l 1165 1011 l 1640 1011 l 1640 859 m 1322 987 l 1294 1017 q 1232 1077 1263 1050 q 1167 1121 1202 1103 q 1090 1149 1133 1139 q 994 1158 1048 1158 l 859 1158 l 859 1293 l 964 1293 q 1035 1292 1004 1293 q 1093 1283 1065 1291 q 1147 1262 1120 1276 q 1206 1220 1175 1247 q 1278 1151 1238 1193 q 1371 1049 1318 1109 l 1377 1052 q 1298 1172 1332 1122 q 1237 1257 1264 1223 q 1186 1312 1209 1291 q 1140 1343 1164 1333 q 1090 1358 1116 1354 q 1029 1361 1063 1361 l 899 1361 l 899 1499 l 1021 1499 q 1147 1485 1097 1499 q 1232 1445 1198 1472 q 1292 1380 1267 1419 q 1343 1292 1317 1341 l 1504 987 l 1322 987 z "},"ॠ":{"ha":1280,"x_min":-24,"x_max":1303,"o":"m 690 425 l 690 0 l 513 0 l 513 290 l 509 291 l 190 58 l 96 185 l 507 475 l 507 484 q 445 539 475 516 q 385 578 414 563 q 326 602 355 594 q 264 609 296 609 q 222 608 250 609 q 164 604 195 606 q 103 599 133 602 q 52 593 73 596 l 52 752 q 100 756 71 754 q 159 760 129 758 q 214 763 189 762 q 252 764 240 764 q 316 755 286 764 q 377 729 347 746 q 440 687 408 711 q 510 632 473 663 l 513 633 l 513 859 l -24 859 l -24 1011 l 1303 1011 l 1303 859 l 690 859 l 690 555 q 756 561 722 555 q 817 576 789 566 q 806 637 806 606 q 818 701 806 673 q 849 748 830 729 q 892 777 869 767 q 941 787 916 787 q 984 779 963 787 q 1020 754 1004 770 q 1046 715 1036 739 q 1055 660 1055 691 q 1039 588 1055 619 q 996 528 1023 557 l 1120 351 q 1038 288 1071 317 q 984 234 1004 259 q 955 188 964 209 q 947 147 947 166 q 954 114 947 128 q 971 91 960 100 q 996 77 982 81 q 1024 72 1010 72 q 1097 99 1060 72 q 1173 172 1135 127 l 1282 50 q 1218 -12 1249 14 q 1157 -52 1187 -37 q 1095 -75 1126 -68 q 1030 -81 1063 -81 q 931 -65 977 -81 q 850 -20 884 -50 q 795 51 815 9 q 775 142 775 92 q 787 212 775 180 q 818 273 798 244 q 866 327 838 301 q 926 377 893 353 l 873 454 q 690 425 789 425 z "},"ॡ":{"ha":1126,"x_min":-24,"x_max":1149,"o":"m 1128 -193 q 1042 -222 1086 -213 q 957 -232 999 -232 q 862 -219 907 -232 q 785 -181 818 -205 q 732 -122 751 -157 q 713 -45 713 -87 q 722 11 713 -16 q 751 67 731 37 l 750 71 q 708 92 728 79 q 674 122 689 105 q 652 162 660 140 q 644 212 644 184 q 654 268 644 244 q 679 313 664 292 q 712 351 694 333 q 745 388 730 369 q 770 429 760 407 q 781 479 781 451 q 756 550 781 524 q 691 577 731 577 q 648 567 666 577 q 620 538 631 556 q 603 497 608 521 q 597 449 597 474 q 598 433 597 441 q 600 416 599 424 l 445 416 q 437 473 443 444 q 419 526 431 503 q 389 565 407 550 q 347 581 372 581 q 290 550 313 581 q 267 461 267 519 q 293 349 267 401 q 361 253 319 298 q 456 170 404 208 q 562 98 509 131 l 467 -31 q 419 -5 453 -24 q 343 45 385 14 q 256 117 301 75 q 173 210 210 158 q 112 325 136 262 q 87 461 87 388 q 107 579 87 526 q 162 669 127 631 q 242 727 196 707 q 340 747 288 747 q 409 737 378 747 q 461 710 439 726 q 500 674 484 694 q 525 636 515 654 l 528 637 q 616 722 559 696 l 616 859 l -24 859 l -24 1011 l 1149 1011 l 1149 859 l 795 859 l 795 726 q 869 687 838 713 q 920 628 900 661 q 950 558 941 595 q 960 486 960 522 q 950 416 960 448 q 923 360 939 385 q 889 314 907 334 q 855 276 871 294 q 828 242 839 258 q 818 211 818 227 q 880 165 818 165 q 941 172 904 165 q 1019 193 979 180 l 1053 52 q 967 34 1000 44 q 917 12 935 23 q 892 -12 899 0 q 886 -36 886 -24 q 891 -58 886 -49 q 906 -72 897 -66 q 929 -80 916 -78 q 956 -83 942 -83 q 992 -80 973 -83 q 1028 -72 1010 -77 q 1062 -61 1046 -67 q 1088 -49 1078 -55 l 1128 -193 z "},"क":{"ha":1258,"x_min":-24,"x_max":1282,"o":"m 803 278 q 878 327 846 300 q 931 381 909 353 q 963 438 952 410 q 973 492 973 466 q 968 528 973 509 q 952 564 964 548 q 924 591 941 581 q 880 602 906 602 q 829 589 854 602 q 782 554 804 576 q 742 504 760 532 q 711 445 724 475 l 711 0 l 534 0 l 534 223 l 533 224 q 512 211 525 218 q 480 195 498 203 q 438 182 462 188 q 386 177 414 177 q 271 202 326 177 q 173 272 216 228 q 105 374 131 315 q 80 500 80 433 q 99 606 80 555 q 152 694 117 656 q 237 754 187 732 q 351 777 288 777 q 439 762 397 777 q 533 711 482 748 l 534 711 l 534 859 l -24 859 l -24 1011 l 1282 1011 l 1282 859 l 711 859 l 711 699 l 713 698 q 762 733 736 720 q 811 754 787 747 q 857 764 836 762 q 897 767 879 767 q 1003 743 956 767 q 1082 681 1050 720 q 1132 594 1115 643 q 1149 494 1149 545 q 1131 390 1149 441 q 1079 292 1113 339 q 997 204 1045 245 q 889 130 949 163 l 803 278 m 538 545 q 509 573 525 559 q 475 598 494 587 q 435 617 457 610 q 388 624 414 624 q 333 613 357 624 q 293 584 309 602 q 269 541 277 566 q 260 490 260 517 q 271 431 260 458 q 300 384 281 404 q 346 352 319 363 q 407 340 373 340 q 471 355 446 340 q 511 392 496 369 q 532 442 526 414 q 538 497 538 470 l 538 545 z "},"ख":{"ha":1333,"x_min":-24,"x_max":1356,"o":"m 956 10 q 894 -10 925 -2 q 835 -23 863 -18 q 781 -30 806 -28 q 734 -31 755 -31 q 542 3 635 -31 q 364 109 450 38 q 201 290 279 180 q 54 548 123 399 l 196 630 q 242 556 220 576 q 283 536 263 536 q 332 569 312 536 q 351 658 351 602 q 337 757 351 705 q 300 859 323 810 l -24 859 l -24 1011 l 1356 1011 l 1356 859 l 1208 859 l 1208 0 l 1031 0 l 1031 279 l 1029 279 q 950 237 990 249 q 871 224 909 224 q 764 246 814 224 q 674 307 713 268 q 612 398 635 345 q 589 514 589 452 q 605 612 589 565 q 652 694 621 659 q 729 752 684 730 q 832 773 774 773 q 940 753 891 773 q 1029 700 988 732 l 1031 701 l 1031 859 l 478 859 q 514 754 502 804 q 526 652 526 705 q 517 568 526 609 q 487 492 508 527 q 431 430 466 457 q 346 386 397 402 l 346 382 q 458 249 403 300 q 565 169 513 197 q 666 131 617 140 q 758 121 714 121 q 854 131 808 121 q 956 164 901 142 l 956 10 m 1038 545 q 1011 570 1027 555 q 974 597 994 585 q 928 620 953 610 q 876 629 903 629 q 825 618 848 629 q 787 590 802 608 q 763 551 771 573 q 754 504 754 528 q 765 452 754 476 q 793 409 775 427 q 837 380 812 391 q 890 369 861 369 q 939 377 913 369 q 987 404 965 385 q 1023 453 1009 422 q 1038 528 1038 484 l 1038 545 z "},"ग":{"ha":944,"x_min":-24,"x_max":968,"o":"m 968 859 l 820 859 l 820 -1 l 643 -1 l 643 859 l 395 859 l 395 348 q 394 311 395 329 q 388 279 393 293 q 371 257 382 266 q 340 249 360 249 q 283 264 313 249 q 222 304 252 279 q 165 360 193 329 q 118 422 138 391 q 85 483 97 454 q 73 533 73 512 q 76 551 73 542 q 87 566 79 559 q 112 577 96 573 q 151 581 127 581 l 219 581 l 219 859 l -24 859 l -24 1011 l 968 1011 l 968 859 z "},"घ":{"ha":946,"x_min":-24,"x_max":970,"o":"m 970 859 l 822 859 l 822 0 l 645 0 l 645 177 l 642 178 q 545 130 595 143 q 450 116 494 116 q 328 140 381 116 q 237 203 274 164 q 181 290 200 241 q 161 388 161 339 q 183 484 161 437 q 254 568 205 530 l 253 570 q 184 602 214 581 q 132 651 153 623 q 100 715 111 680 q 90 789 90 750 q 92 822 90 803 q 99 859 94 841 l -24 859 l -24 1011 l 970 1011 l 970 859 m 277 859 q 267 795 267 825 q 277 740 267 765 q 307 698 288 715 q 353 672 326 681 q 414 663 380 663 q 500 677 453 663 l 528 538 q 500 532 517 536 q 461 520 482 528 q 419 501 441 513 q 380 473 397 490 q 352 436 363 457 q 340 388 340 414 q 349 345 340 365 q 373 311 357 326 q 411 289 389 297 q 459 281 433 281 q 520 292 491 281 q 574 320 550 303 q 617 357 599 338 q 645 395 635 377 l 645 859 l 277 859 z "},"ङ":{"ha":1221,"x_min":-24,"x_max":1244,"o":"m 941 570 q 948 608 941 591 q 968 639 955 626 q 999 659 981 652 q 1038 667 1017 667 q 1078 659 1059 667 q 1109 638 1096 652 q 1130 607 1122 625 q 1138 568 1138 589 q 1131 530 1138 547 q 1111 499 1124 512 q 1079 480 1097 487 q 1040 473 1061 473 q 1001 480 1019 473 q 969 500 983 487 q 948 531 956 513 q 941 570 941 549 m 1244 859 l 841 859 l 841 629 l 500 629 q 453 618 465 629 q 440 586 440 608 q 444 561 440 574 q 458 536 448 547 q 486 516 468 524 q 531 508 503 508 l 721 508 q 815 491 777 508 q 877 444 854 473 q 911 373 901 414 q 921 288 921 333 q 900 165 921 223 q 836 64 878 108 q 728 -5 793 20 q 578 -31 664 -31 q 404 1 487 -31 q 252 90 321 33 q 130 226 182 147 q 48 399 77 305 l 201 460 q 260 336 223 395 q 347 232 298 277 q 454 159 395 186 q 578 132 513 132 q 649 142 618 132 q 700 173 680 153 q 732 220 721 193 q 743 282 743 248 q 738 322 743 307 q 721 347 732 338 q 693 358 710 355 q 653 361 676 361 l 460 361 q 371 387 408 361 q 308 450 333 412 q 272 534 283 488 q 260 621 260 579 q 272 695 260 665 q 307 742 284 724 q 360 768 329 760 q 427 775 391 775 l 664 775 l 664 859 l -24 859 l -24 1011 l 1244 1011 l 1244 859 z "},"च":{"ha":983,"x_min":-24,"x_max":1006,"o":"m 1006 859 l 864 859 l 864 0 l 682 0 l 682 211 l 680 213 q 629 179 656 193 q 576 156 603 165 q 522 144 549 148 q 471 140 496 140 q 359 161 410 140 q 272 216 308 181 q 215 298 235 251 q 195 398 195 345 q 207 474 195 434 q 248 550 218 513 l 248 554 l 75 554 l 75 707 l 606 707 l 606 554 l 524 554 q 449 541 477 554 q 403 509 420 528 q 380 467 387 490 q 374 427 374 445 q 381 385 374 406 q 403 346 388 363 q 441 317 418 328 q 499 306 465 306 q 558 316 531 306 q 609 341 586 326 q 650 376 632 357 q 682 416 669 396 l 682 859 l -24 859 l -24 1011 l 1006 1011 l 1006 859 z "},"छ":{"ha":1178,"x_min":-24,"x_max":1202,"o":"m 1202 859 l 881 859 l 881 791 q 962 747 926 777 q 1022 676 998 718 q 1059 585 1046 635 q 1072 481 1072 535 q 1053 352 1072 415 q 999 232 1034 288 q 916 129 965 176 q 807 47 867 81 q 678 -6 747 13 q 533 -25 609 -25 q 389 -3 450 -25 q 288 54 328 18 q 229 135 248 90 q 210 227 210 180 q 218 291 210 259 q 244 350 227 323 l 243 353 q 159 402 190 373 q 114 461 129 431 q 95 518 98 491 q 91 560 91 545 q 110 651 91 611 q 159 719 128 691 q 231 762 191 747 q 317 777 272 777 q 389 768 351 777 q 463 743 428 760 l 463 595 q 408 615 437 608 q 354 623 378 623 q 322 619 338 623 q 293 605 306 614 q 273 579 281 595 q 265 541 265 564 q 275 497 265 515 q 301 469 285 479 q 340 453 318 458 q 385 448 361 448 q 432 452 408 448 q 476 463 456 456 l 514 330 q 455 313 479 324 q 415 288 430 302 q 392 257 399 273 q 385 223 385 240 q 424 155 385 182 q 537 127 462 127 q 631 140 585 127 q 719 175 677 152 q 796 231 761 198 q 856 307 831 264 q 752 343 800 319 q 668 402 704 367 q 612 483 633 437 q 591 584 591 529 q 624 705 591 654 q 711 780 656 755 l 711 859 l -24 859 l -24 1011 l 1202 1011 l 1202 859 m 905 491 q 897 564 905 531 q 877 620 890 597 q 845 655 863 643 q 807 668 827 668 q 765 650 782 668 q 747 598 747 632 q 760 547 747 571 q 793 503 772 523 q 843 469 814 484 q 902 445 871 454 q 904 468 903 456 q 905 491 905 479 z "},"ज":{"ha":1120,"x_min":-24,"x_max":1144,"o":"m 1144 859 l 996 859 l 996 0 l 819 0 l 819 534 l 648 534 l 647 532 q 701 450 684 496 q 719 357 719 404 q 704 274 719 314 q 660 203 690 234 q 586 153 631 172 q 481 134 541 134 q 357 159 412 134 q 257 225 302 183 q 179 325 213 268 q 121 446 146 381 q 80 580 97 511 q 54 716 64 649 l 215 745 q 264 537 235 621 q 327 402 293 453 q 395 330 360 351 q 461 309 430 309 q 520 332 496 309 q 544 398 544 355 q 536 447 544 421 q 511 498 528 473 q 471 545 495 523 q 414 582 446 566 l 414 688 l 819 688 l 819 859 l -24 859 l -24 1011 l 1144 1011 l 1144 859 z "},"झ":{"ha":1176,"x_min":-24,"x_max":1200,"o":"m 521 7 q 581 -40 551 -18 q 640 -78 611 -61 q 693 -107 668 -94 q 741 -128 719 -119 l 657 -272 q 566 -219 611 -249 q 481 -156 522 -189 q 407 -89 441 -123 q 347 -22 372 -54 q 256 -8 296 -22 q 186 30 215 6 q 142 83 158 53 q 127 148 127 114 q 136 190 127 171 q 162 222 146 209 q 199 244 178 236 q 245 252 220 252 q 350 223 302 252 q 433 142 398 195 q 495 158 470 147 q 535 185 520 170 q 557 220 551 201 q 564 261 564 239 q 556 300 564 286 q 537 323 549 315 q 510 334 526 332 q 475 337 494 337 l 298 337 q 226 349 258 337 q 170 382 194 361 q 129 430 146 404 q 101 487 112 457 q 85 547 90 517 q 81 603 81 576 q 94 682 81 650 q 131 735 108 715 q 185 765 155 756 q 250 774 216 774 l 481 774 l 481 859 l -24 859 l -24 1011 l 1200 1011 l 1200 859 l 1052 859 l 1052 0 l 875 0 l 875 342 l 872 343 q 807 313 838 321 q 739 304 776 305 q 740 295 740 300 q 740 286 740 289 q 727 195 740 237 q 687 117 714 152 q 619 55 661 81 q 522 12 578 28 l 521 7 m 875 510 l 875 859 l 658 859 l 658 622 l 334 622 q 275 610 291 622 q 258 572 258 597 q 262 546 258 559 q 277 521 267 532 q 305 503 287 510 q 352 495 323 495 l 536 495 q 629 480 591 495 q 690 440 666 466 q 735 443 713 440 q 780 452 758 445 q 826 473 802 460 q 875 510 849 487 z "},"ञ":{"ha":1199,"x_min":-24,"x_max":1223,"o":"m 395 503 l 326 642 q 426 690 371 673 q 533 707 480 707 q 632 689 588 707 q 709 641 676 671 q 762 570 741 610 q 791 486 783 530 q 852 498 826 489 q 898 524 878 507 l 898 859 l -24 859 l -24 1011 l 1223 1011 l 1223 859 l 1075 859 l 1075 0 l 898 0 l 898 361 l 895 361 q 845 343 870 348 q 784 336 819 338 q 751 267 772 299 q 699 210 730 234 q 624 173 667 186 q 528 159 582 159 q 379 187 450 159 q 247 264 308 216 q 139 377 186 313 q 58 514 91 441 l 199 591 q 268 484 232 532 q 343 401 304 436 q 424 346 382 366 q 512 327 467 327 q 567 336 544 327 q 606 362 591 346 q 629 401 621 379 q 636 448 636 423 q 608 524 636 498 q 533 550 579 550 q 458 534 493 550 q 395 503 423 519 z "},"ट":{"ha":880,"x_min":-24,"x_max":904,"o":"m 756 66 q 628 9 694 28 q 489 -9 561 -9 q 320 22 395 -9 q 192 107 245 53 q 112 233 140 161 q 84 387 84 304 q 108 521 84 463 q 176 618 132 579 q 279 676 219 656 q 412 696 340 696 l 513 696 l 513 859 l -24 859 l -24 1011 l 904 1011 l 904 859 l 690 859 l 690 544 l 448 544 q 371 534 406 544 q 313 505 337 525 q 276 452 289 484 q 264 374 264 420 q 279 283 264 324 q 322 214 295 243 q 388 171 350 186 q 471 155 426 155 q 544 164 506 155 q 618 187 581 173 q 691 220 656 201 q 756 257 726 238 l 756 66 z "},"ठ":{"ha":1017,"x_min":-24,"x_max":1040,"o":"m 903 334 q 876 194 903 258 q 798 83 848 130 q 675 10 747 37 q 515 -16 604 -16 q 339 16 416 -16 q 209 100 262 47 q 129 222 157 153 q 102 363 102 290 q 125 486 102 434 q 184 576 148 538 q 265 637 220 613 q 353 675 310 661 q 430 698 397 690 q 486 720 463 706 q 512 745 504 730 q 519 785 519 760 l 519 859 l -24 859 l -24 1011 l 1040 1011 l 1040 859 l 696 859 l 696 781 q 691 718 696 746 q 674 667 685 690 q 846 526 788 607 q 903 334 903 445 m 282 345 q 298 260 282 298 q 344 195 315 222 q 413 152 373 168 q 500 137 453 137 q 589 153 547 137 q 662 198 631 170 q 710 267 692 227 q 728 355 728 307 q 718 420 728 391 q 692 473 708 450 q 657 514 677 496 q 618 545 637 532 q 581 566 598 557 q 552 578 564 574 q 498 561 528 570 q 439 540 469 552 q 380 512 409 528 q 330 473 352 496 q 295 418 309 450 q 282 345 282 387 z "},"ड":{"ha":1030,"x_min":-24,"x_max":1054,"o":"m 1054 859 l 841 859 l 841 629 l 500 629 q 453 618 465 629 q 440 586 440 608 q 444 561 440 574 q 458 536 448 547 q 486 516 468 524 q 531 508 503 508 l 721 508 q 815 491 777 508 q 877 444 854 473 q 911 373 901 414 q 921 288 921 333 q 900 165 921 223 q 836 64 878 108 q 728 -5 793 20 q 578 -31 664 -31 q 404 1 487 -31 q 252 90 321 33 q 130 226 182 147 q 48 399 77 305 l 201 460 q 260 336 223 395 q 347 232 298 277 q 454 159 395 186 q 578 132 513 132 q 649 142 618 132 q 700 173 680 153 q 732 220 721 193 q 743 282 743 248 q 738 322 743 307 q 721 347 732 338 q 693 358 710 355 q 653 361 676 361 l 460 361 q 371 387 408 361 q 308 450 333 412 q 272 534 283 488 q 260 621 260 579 q 272 695 260 665 q 307 742 284 724 q 360 768 329 760 q 427 775 391 775 l 664 775 l 664 859 l -24 859 l -24 1011 l 1054 1011 l 1054 859 z "},"ढ":{"ha":879,"x_min":-24,"x_max":903,"o":"m 903 859 l 698 859 l 698 555 l 444 555 q 306 508 351 555 q 260 376 260 460 q 267 312 260 344 q 286 254 273 281 q 318 206 299 227 q 361 172 336 184 l 362 174 q 355 212 357 193 q 353 248 353 230 q 366 330 353 292 q 407 397 380 369 q 473 442 433 426 q 564 458 512 458 q 663 440 619 458 q 738 390 707 421 q 785 319 768 359 q 801 236 801 279 q 781 143 801 188 q 721 62 760 98 q 626 5 682 26 q 497 -16 569 -16 q 334 16 410 -16 q 201 103 258 47 q 113 236 145 159 q 80 401 80 313 q 103 533 80 476 q 169 628 127 590 q 270 686 211 667 q 399 706 328 706 l 521 706 l 521 859 l -24 859 l -24 1011 l 903 1011 l 903 859 m 495 137 q 566 148 536 138 q 613 175 595 159 q 641 211 632 191 q 649 251 649 231 q 628 307 649 286 q 574 328 606 328 q 535 318 552 328 q 507 292 519 309 q 489 254 495 276 q 483 207 483 232 q 495 137 483 174 z "},"ण":{"ha":1137,"x_min":-24,"x_max":1160,"o":"m 1160 859 l 1013 859 l 1013 0 l 836 0 l 836 859 l 683 859 l 683 488 q 662 360 683 414 q 603 272 640 307 q 515 220 566 237 q 406 203 464 203 q 287 223 340 203 q 198 280 235 242 q 142 373 161 317 q 123 502 123 429 l 123 859 l -24 859 l -24 1011 l 1160 1011 l 1160 859 m 300 859 l 300 520 q 305 464 300 491 q 322 415 311 436 q 354 381 334 394 q 402 369 374 369 q 451 381 431 369 q 483 415 471 394 q 500 464 495 436 q 506 520 506 491 l 506 859 l 300 859 z "},"त":{"ha":908,"x_min":-24,"x_max":932,"o":"m 932 859 l 784 859 l 784 -1 l 607 -1 l 607 543 l 420 543 q 352 538 381 543 q 305 520 323 533 q 277 486 286 508 q 268 432 268 465 q 283 347 268 389 q 325 263 298 304 q 390 180 352 221 q 474 99 428 139 l 367 -21 q 325 8 351 -12 q 268 60 298 29 q 205 132 237 91 q 147 222 173 172 q 105 331 121 272 q 89 456 89 389 q 110 576 89 530 q 170 650 132 623 q 262 686 209 676 q 380 696 315 696 l 607 696 l 607 859 l -24 859 l -24 1011 l 932 1011 l 932 859 z "},"थ":{"ha":987,"x_min":68,"x_max":1010,"o":"m 334 501 q 397 389 353 423 q 502 355 441 355 q 609 387 564 355 q 686 475 655 418 l 686 1011 l 1010 1011 l 1010 859 l 863 859 l 863 0 l 686 0 l 686 252 l 684 252 q 649 229 667 240 q 608 209 631 218 q 558 195 586 201 q 497 190 531 190 q 392 205 439 190 q 307 248 345 221 q 240 312 269 275 q 190 392 211 349 q 155 483 168 435 q 134 577 141 530 q 237 613 195 590 q 306 666 279 636 q 344 729 332 695 q 355 798 355 763 q 350 845 355 825 q 334 878 344 865 q 311 898 324 891 q 285 904 298 904 q 260 898 271 904 q 242 882 250 892 q 232 860 235 873 q 229 835 229 848 q 238 793 229 813 q 260 757 247 772 l 149 667 q 88 748 108 704 q 68 838 68 793 q 83 913 68 878 q 127 976 98 949 q 196 1019 155 1003 q 289 1035 237 1035 q 387 1017 343 1035 q 460 967 430 1000 q 508 889 491 935 q 524 787 524 843 q 475 616 524 690 q 334 501 426 542 z "},"द":{"ha":880,"x_min":-24,"x_max":904,"o":"m 904 859 l 697 859 l 697 544 l 448 544 q 312 503 360 544 q 264 380 264 462 q 279 294 264 334 q 321 223 294 254 q 386 175 348 193 q 469 157 423 157 q 504 160 488 157 q 532 169 520 162 q 526 227 526 197 q 536 302 526 266 q 566 366 547 338 q 615 410 586 393 q 683 427 645 427 q 732 417 709 427 q 773 389 755 408 q 800 343 790 371 q 810 281 810 316 q 802 220 810 249 q 780 165 793 191 q 748 117 766 140 q 711 75 730 94 q 826 -57 756 1 l 710 -175 q 626 -84 661 -132 q 568 15 591 -37 q 515 3 541 6 q 461 -1 488 -1 q 364 13 412 -1 q 275 52 317 27 q 198 112 233 77 q 138 190 163 147 q 98 282 113 233 q 84 384 84 331 q 108 519 84 460 q 175 616 132 577 q 279 676 218 656 q 412 696 339 696 l 520 696 l 520 859 l -24 859 l -24 1011 l 904 1011 l 904 859 z "},"ध":{"ha":992,"x_min":76,"x_max":1016,"o":"m 361 802 q 368 825 365 812 q 372 852 372 838 q 367 882 372 869 q 353 903 361 895 q 335 915 345 911 q 314 919 325 919 q 265 891 285 919 q 245 815 245 863 q 290 696 245 738 q 414 654 335 654 q 531 673 468 654 l 553 528 q 508 520 536 526 q 451 499 479 514 q 402 458 422 485 q 381 389 381 432 q 390 341 381 362 q 416 307 399 321 q 455 286 432 293 q 505 279 477 279 q 570 290 540 279 q 623 317 600 300 q 664 352 647 333 q 691 387 681 371 l 691 1011 l 1016 1011 l 1016 859 l 868 859 l 868 0 l 691 0 l 691 177 l 688 178 q 639 146 665 159 q 588 126 614 134 q 536 117 562 119 q 488 114 511 114 q 372 135 425 114 q 281 193 319 157 q 220 277 242 229 q 198 377 198 324 q 213 458 198 418 q 261 535 229 498 l 261 542 q 177 595 212 565 q 119 662 142 626 q 86 736 97 697 q 76 815 76 775 q 94 910 76 867 q 144 985 113 954 q 220 1033 176 1016 q 317 1050 264 1050 q 412 1032 372 1050 q 478 986 452 1014 q 517 925 505 959 q 530 860 530 891 q 520 800 530 829 q 498 749 510 770 l 361 802 z "},"न":{"ha":962,"x_min":-24,"x_max":985,"o":"m 985 859 l 838 859 l 838 0 l 648 0 l 648 479 l 354 479 q 353 401 354 433 q 345 349 351 369 q 326 320 339 329 q 290 311 313 311 q 234 322 262 311 q 183 353 207 334 q 139 398 159 372 q 104 451 119 423 q 81 507 90 479 q 73 560 73 535 q 81 600 73 585 q 103 621 89 614 q 138 630 117 628 q 184 631 158 631 l 648 631 l 648 859 l -24 859 l -24 1011 l 985 1011 l 985 859 z "},"ऩ":{"ha":962,"x_min":-24,"x_max":985,"o":"m 985 859 l 838 859 l 838 0 l 648 0 l 648 479 l 354 479 q 353 401 354 433 q 345 349 351 369 q 326 320 339 329 q 290 311 313 311 q 234 322 262 311 q 183 353 207 334 q 139 398 159 372 q 104 451 119 423 q 81 507 90 479 q 73 560 73 535 q 81 600 73 585 q 103 621 89 614 q 138 630 117 628 q 184 631 158 631 l 648 631 l 648 859 l -24 859 l -24 1011 l 985 1011 l 985 859 m 333 177 q 340 215 333 197 q 360 245 347 233 q 391 266 373 258 q 431 273 409 273 q 470 266 452 273 q 502 245 488 258 q 523 214 515 232 q 530 175 530 196 q 523 136 530 154 q 503 106 516 119 q 472 86 490 94 q 433 79 454 79 q 393 86 412 79 q 362 107 375 94 q 341 138 349 120 q 333 177 333 155 z "},"प":{"ha":886,"x_min":-24,"x_max":909,"o":"m 909 859 l 762 859 l 762 0 l 585 0 l 585 261 l 582 262 q 415 211 502 211 q 373 214 400 211 q 314 228 346 216 q 249 261 282 239 q 189 321 216 283 q 145 417 162 359 q 127 557 127 475 l 127 859 l -24 859 l -24 1011 l 909 1011 l 909 859 m 585 859 l 304 859 l 304 546 q 314 461 304 494 q 341 410 324 429 q 380 384 357 391 q 427 376 402 376 q 518 402 481 376 q 585 475 555 427 l 585 859 z "},"फ":{"ha":1295,"x_min":-24,"x_max":1319,"o":"m 736 709 l 737 709 q 786 744 761 730 q 836 765 811 758 q 882 775 860 772 q 921 778 904 778 q 1029 754 981 778 q 1110 692 1077 730 q 1161 605 1143 654 q 1179 505 1179 556 q 1160 401 1179 452 q 1108 303 1142 350 q 1027 215 1074 256 q 920 141 979 174 l 836 289 q 909 338 878 311 q 961 392 940 364 q 992 449 982 420 q 1002 503 1002 477 q 998 539 1002 519 q 982 575 993 559 q 952 602 970 591 q 908 613 935 613 q 856 600 881 613 q 808 565 830 587 q 767 514 785 543 q 736 456 749 486 l 736 0 l 559 0 l 559 244 l 557 245 q 485 209 525 220 q 404 197 444 197 q 307 215 356 197 q 218 273 258 233 q 152 377 178 313 q 127 533 127 441 l 127 859 l -24 859 l -24 1011 l 1319 1011 l 1319 859 l 736 859 l 736 709 m 559 859 l 306 859 l 306 537 q 311 467 306 499 q 329 412 317 435 q 363 376 342 389 q 416 363 385 363 q 496 390 459 363 q 559 465 532 416 l 559 859 z "},"ब":{"ha":914,"x_min":-24,"x_max":938,"o":"m 938 859 l 790 859 l 790 0 l 613 0 l 613 193 l 609 193 q 519 154 564 167 q 429 142 474 142 q 297 168 360 142 q 187 239 235 194 q 111 345 139 284 q 83 475 83 406 q 105 590 83 536 q 170 684 128 644 q 269 748 211 724 q 396 771 326 771 q 431 769 409 771 q 481 761 453 768 q 542 740 509 754 q 610 703 575 726 l 613 703 l 613 859 l -24 859 l -24 1011 l 938 1011 l 938 859 m 257 469 q 269 410 257 440 q 302 355 280 380 q 357 315 324 331 q 431 299 389 299 q 501 311 469 299 l 316 588 q 272 534 288 566 q 257 469 257 503 m 616 547 q 525 610 571 593 q 437 627 479 627 q 413 626 425 627 q 391 623 402 625 l 570 355 q 604 402 592 376 q 616 454 616 429 l 616 547 z "},"भ":{"ha":1109,"x_min":68,"x_max":1133,"o":"m 808 1011 l 1133 1011 l 1133 859 l 985 859 l 985 0 l 808 0 l 808 351 l 522 351 l 522 254 q 520 226 522 241 q 514 199 519 212 q 499 179 509 187 q 470 171 488 171 q 416 185 446 171 q 357 224 387 200 q 299 278 327 248 q 250 341 271 309 q 215 404 228 373 q 201 459 201 435 q 203 475 201 467 q 213 490 205 484 q 232 500 220 496 q 267 504 245 504 l 349 504 l 349 832 q 331 886 349 867 q 288 905 313 905 q 263 899 274 905 q 243 882 252 892 q 231 858 235 871 q 227 828 227 844 q 276 744 227 775 l 191 636 q 97 726 127 675 q 68 832 68 777 q 84 910 68 873 q 130 975 100 947 q 201 1019 159 1003 q 294 1035 243 1035 q 388 1019 346 1035 q 459 974 430 1002 q 505 907 489 945 q 522 823 522 868 l 522 504 l 808 504 l 808 1011 z "},"म":{"ha":996,"x_min":-24,"x_max":1020,"o":"m 1020 859 l 872 859 l 872 0 l 695 0 l 695 351 l 391 351 l 391 254 q 390 226 391 241 q 384 199 389 212 q 368 179 378 187 q 340 171 358 171 q 286 185 315 171 q 227 224 256 200 q 169 278 197 248 q 121 341 142 309 q 87 404 100 373 q 74 459 74 435 q 76 475 74 467 q 85 490 78 484 q 105 500 92 496 q 139 504 117 504 l 214 504 l 214 859 l -24 859 l -24 1011 l 1020 1011 l 1020 859 m 391 859 l 391 504 l 695 504 l 695 859 l 391 859 z "},"य":{"ha":926,"x_min":-24,"x_max":950,"o":"m -24 859 l -24 1011 l 950 1011 l 950 859 l 802 859 l 802 0 l 625 0 l 625 252 l 623 252 q 589 230 608 241 q 548 210 570 218 q 498 195 526 201 q 438 190 471 190 q 287 224 351 190 q 177 314 222 258 q 106 441 132 370 q 69 585 79 511 q 142 604 113 590 q 190 636 172 617 q 215 679 208 656 q 223 728 223 703 q 212 790 223 758 q 178 859 201 822 l -24 859 m 403 700 q 369 584 403 634 q 269 505 335 534 q 295 437 278 465 q 335 390 313 408 q 384 364 357 372 q 439 355 410 355 q 549 387 503 355 q 625 475 595 418 l 625 859 l 353 859 q 391 777 379 817 q 403 700 403 736 z "},"र":{"ha":739,"x_min":-24,"x_max":762,"o":"m 762 859 l 535 859 q 576 754 561 806 q 591 648 591 703 q 578 555 591 598 q 537 476 565 511 q 466 417 509 441 q 363 382 423 393 l 362 379 q 420 300 391 338 q 482 226 450 262 q 551 153 515 189 q 631 81 588 117 l 519 -43 q 416 49 466 -1 q 322 155 367 100 q 238 266 277 210 q 166 376 199 322 q 107 478 133 429 q 62 565 81 526 l 212 642 q 262 555 235 581 q 317 530 288 530 q 353 539 336 530 q 383 565 370 548 q 404 607 396 583 q 412 665 412 632 q 395 762 412 710 q 348 859 379 814 l -24 859 l -24 1011 l 762 1011 l 762 859 z "},"ऱ":{"ha":739,"x_min":-24,"x_max":762,"o":"m 762 859 l 535 859 q 576 754 561 806 q 591 648 591 703 q 578 555 591 598 q 537 476 565 511 q 466 417 509 441 q 363 382 423 393 l 362 379 q 420 300 391 338 q 482 226 450 262 q 551 153 515 189 q 631 81 588 117 l 519 -43 q 416 49 466 -1 q 322 155 367 100 q 238 266 277 210 q 166 376 199 322 q 107 478 133 429 q 62 565 81 526 l 212 642 q 262 555 235 581 q 317 530 288 530 q 353 539 336 530 q 383 565 370 548 q 404 607 396 583 q 412 665 412 632 q 395 762 412 710 q 348 859 379 814 l -24 859 l -24 1011 l 762 1011 l 762 859 m 50 116 q 57 154 50 136 q 77 184 64 172 q 108 205 90 197 q 148 212 126 212 q 187 205 169 212 q 219 184 205 197 q 240 153 232 171 q 248 114 248 135 q 240 75 248 93 q 220 45 233 58 q 189 25 207 33 q 150 18 171 18 q 111 25 129 18 q 79 46 92 33 q 58 77 66 59 q 50 116 50 94 z "},"ल":{"ha":1063,"x_min":-24,"x_max":1087,"o":"m 762 0 l 762 595 q 746 597 754 596 q 730 598 739 598 q 680 587 701 598 q 646 558 659 576 q 625 518 632 541 q 618 472 618 495 q 620 452 618 463 q 623 433 621 442 l 465 433 q 455 495 461 464 q 437 550 448 526 q 409 589 426 574 q 366 604 391 604 q 331 594 346 604 q 307 566 317 584 q 293 525 297 549 q 288 473 288 500 q 314 346 288 402 q 384 245 340 290 q 482 165 427 200 q 597 102 538 130 l 519 -31 q 452 0 492 -21 q 366 54 411 22 q 274 130 320 87 q 191 226 228 173 q 131 343 154 279 q 108 479 108 406 q 125 594 108 540 q 176 689 143 648 q 255 752 209 729 q 359 776 302 776 q 428 766 399 776 q 479 740 458 755 q 515 706 500 724 q 541 672 530 688 l 544 673 q 576 716 557 698 q 617 746 595 734 q 663 764 640 758 q 711 769 687 769 q 736 768 723 769 q 762 764 749 766 l 762 859 l -24 859 l -24 1011 l 1087 1011 l 1087 859 l 939 859 l 939 0 l 762 0 z "},"ळ":{"ha":1316,"x_min":-24,"x_max":1339,"o":"m 989 859 l 989 757 q 1077 713 1038 742 q 1142 645 1116 684 q 1183 562 1169 607 q 1197 471 1197 517 q 1170 334 1197 396 q 1097 227 1143 272 q 992 158 1052 182 q 869 133 933 133 q 735 165 797 133 q 614 255 673 197 q 520 170 574 202 q 392 137 467 137 q 264 162 321 137 q 165 230 206 186 q 102 331 125 273 q 80 455 80 389 q 104 586 80 527 q 170 687 127 645 q 269 751 212 728 q 393 774 326 774 q 535 744 469 774 q 665 656 601 713 q 729 718 694 690 q 812 759 765 745 l 812 859 l -24 859 l -24 1011 l 1339 1011 l 1339 859 l 989 859 m 406 625 q 347 612 374 625 q 301 576 320 600 q 271 522 281 553 q 260 452 260 490 q 269 390 260 419 q 294 338 277 360 q 335 303 311 316 q 388 290 358 290 q 450 308 424 290 q 498 357 476 326 q 541 434 519 389 q 589 533 562 479 q 495 604 541 583 q 406 625 449 625 m 904 620 q 838 600 866 620 q 786 546 810 580 q 739 467 762 512 q 690 371 717 422 q 726 337 707 353 q 766 310 745 321 q 807 292 786 298 q 851 286 829 286 q 915 296 884 286 q 968 329 945 307 q 1004 385 991 351 q 1018 465 1018 418 q 1010 525 1018 497 q 988 574 1003 553 q 952 608 974 595 q 904 620 931 620 z "},"ऴ":{"ha":1316,"x_min":-24,"x_max":1339,"o":"m 989 859 l 989 757 q 1077 713 1038 742 q 1142 645 1116 684 q 1183 562 1169 607 q 1197 471 1197 517 q 1170 334 1197 396 q 1097 227 1143 272 q 992 158 1052 182 q 869 133 933 133 q 735 165 797 133 q 614 255 673 197 q 520 170 574 202 q 392 137 467 137 q 264 162 321 137 q 165 230 206 186 q 102 331 125 273 q 80 455 80 389 q 104 586 80 527 q 170 687 127 645 q 269 751 212 728 q 393 774 326 774 q 535 744 469 774 q 665 656 601 713 q 729 718 694 690 q 812 759 765 745 l 812 859 l -24 859 l -24 1011 l 1339 1011 l 1339 859 l 989 859 m 406 625 q 347 612 374 625 q 301 576 320 600 q 271 522 281 553 q 260 452 260 490 q 269 390 260 419 q 294 338 277 360 q 335 303 311 316 q 388 290 358 290 q 450 308 424 290 q 498 357 476 326 q 541 434 519 389 q 589 533 562 479 q 495 604 541 583 q 406 625 449 625 m 904 620 q 838 600 866 620 q 786 546 810 580 q 739 467 762 512 q 690 371 717 422 q 726 337 707 353 q 766 310 745 321 q 807 292 786 298 q 851 286 829 286 q 915 296 884 286 q 968 329 945 307 q 1004 385 991 351 q 1018 465 1018 418 q 1010 525 1018 497 q 988 574 1003 553 q 952 608 974 595 q 904 620 931 620 m 542 -26 q 549 12 542 -6 q 569 42 556 29 q 600 62 582 55 q 640 70 618 70 q 679 62 661 70 q 710 42 697 55 q 731 11 724 28 q 739 -28 739 -7 q 732 -67 739 -50 q 712 -97 725 -85 q 681 -117 699 -110 q 642 -124 663 -124 q 602 -117 621 -124 q 571 -97 584 -110 q 550 -66 557 -83 q 542 -26 542 -48 z "},"व":{"ha":884,"x_min":-24,"x_max":907,"o":"m 907 859 l 760 859 l 760 0 l 583 0 l 583 199 l 578 200 q 495 161 538 174 q 409 149 452 149 q 288 174 347 149 q 183 244 229 199 q 109 348 137 288 q 81 475 81 407 q 105 591 81 537 q 170 685 129 645 q 265 748 210 725 q 382 770 320 770 q 414 769 393 770 q 460 760 434 767 q 517 740 486 753 q 580 704 548 727 l 583 705 l 583 859 l -24 859 l -24 1011 l 907 1011 l 907 859 m 585 544 q 505 606 547 589 q 428 623 464 623 q 362 611 393 623 q 310 577 332 598 q 276 528 288 555 q 263 469 263 500 q 275 411 263 440 q 307 359 286 382 q 357 322 328 336 q 423 307 387 307 q 489 321 459 307 q 540 358 519 336 q 573 408 562 380 q 585 462 585 435 l 585 544 z "},"श":{"ha":1179,"x_min":-24,"x_max":1202,"o":"m 166 859 l -24 859 l -24 1011 l 1202 1011 l 1202 859 l 1055 859 l 1055 0 l 878 0 l 878 859 l 680 859 l 678 857 q 721 773 706 821 q 735 677 735 726 q 720 581 735 628 q 675 491 704 534 q 607 411 647 448 q 518 346 567 374 l 518 342 q 586 290 550 322 q 657 221 622 258 q 725 145 692 184 q 784 69 758 105 l 659 -31 q 601 43 634 3 q 529 123 568 83 q 449 202 491 164 q 363 271 406 241 q 253 251 309 251 q 178 263 210 251 q 123 294 145 275 q 90 336 101 313 q 79 384 79 360 q 87 424 79 405 q 114 458 96 444 q 157 483 131 473 q 219 492 184 492 q 302 479 260 492 q 381 445 345 467 q 405 454 389 447 q 440 474 420 461 q 481 506 460 487 q 520 549 503 524 q 549 606 538 574 q 560 677 560 638 q 551 744 560 712 q 523 800 541 776 q 477 839 504 825 q 415 854 450 854 q 372 846 389 854 q 344 827 355 839 q 329 800 334 814 q 325 770 325 785 q 355 704 325 727 q 442 682 385 682 l 442 528 q 433 528 437 528 q 429 528 429 528 q 311 546 363 528 q 223 596 259 564 q 167 669 186 627 q 147 760 147 711 q 168 857 147 807 l 166 859 z "},"ष":{"ha":913,"x_min":-24,"x_max":937,"o":"m 937 859 l 789 859 l 789 0 l 612 0 l 612 261 l 609 262 q 519 223 564 236 q 425 211 474 211 q 382 214 410 211 q 321 228 354 216 q 253 261 288 239 q 191 321 219 283 q 145 417 163 359 q 127 557 127 475 l 127 859 l -24 859 l -24 1011 l 937 1011 l 937 859 m 437 376 q 507 387 476 376 q 566 419 537 398 l 566 422 l 307 789 l 304 788 l 304 546 q 315 461 304 494 q 344 410 326 429 q 386 384 362 391 q 437 376 410 376 m 612 859 l 359 859 l 359 856 l 610 500 l 612 501 l 612 859 z "},"स":{"ha":1108,"x_min":-24,"x_max":1132,"o":"m -24 1011 l 1132 1011 l 1132 859 l 984 859 l 984 0 l 807 0 l 807 420 l 458 420 q 363 382 418 393 l 362 379 q 406 300 382 338 q 461 226 431 262 q 528 153 491 189 q 608 81 564 117 l 496 -43 q 402 51 448 -1 q 313 159 356 102 q 231 273 270 215 q 159 387 193 332 q 100 492 126 442 q 55 580 73 541 l 205 656 q 259 561 231 591 q 319 530 288 530 q 350 540 336 530 q 371 566 363 549 q 384 606 380 583 q 388 656 388 629 q 372 761 388 711 q 324 859 357 811 l -24 859 l -24 1011 m 807 571 l 807 859 l 508 859 q 548 754 534 806 q 563 648 563 703 q 561 609 563 628 q 555 571 559 590 l 807 571 z "},"ह":{"ha":880,"x_min":-24,"x_max":903,"o":"m 501 208 q 575 248 552 227 q 598 300 598 268 q 590 334 598 318 q 565 362 583 350 q 521 380 548 374 q 456 387 494 387 q 393 381 424 387 q 339 360 363 376 q 301 319 315 345 q 286 254 286 294 q 302 177 286 213 q 343 111 317 142 q 402 55 369 81 q 472 9 436 30 q 544 -28 508 -12 q 610 -56 579 -44 l 543 -199 q 437 -151 490 -176 q 337 -95 385 -125 q 248 -29 289 -64 q 177 49 208 7 q 130 142 147 92 q 113 251 113 192 q 131 357 113 311 q 178 438 148 404 q 152 483 164 459 q 131 530 140 506 q 118 577 123 553 q 113 622 113 600 q 122 677 113 650 q 153 724 132 703 q 208 756 174 744 q 291 768 242 768 l 568 768 l 568 859 l -24 859 l -24 1011 l 903 1011 l 903 859 l 746 859 l 746 624 l 341 624 q 323 622 332 624 q 306 613 314 619 q 293 597 298 608 q 288 572 288 587 q 293 543 288 556 q 304 518 297 530 q 456 542 376 542 q 577 527 519 542 q 677 483 634 513 q 746 407 721 453 q 772 298 772 361 q 753 204 772 243 q 706 137 735 165 q 639 89 676 109 q 563 54 602 68 l 501 208 z "},"क़":{"ha":1258,"x_min":-24,"x_max":1282,"o":"m 803 278 q 878 327 846 300 q 931 381 909 353 q 963 438 952 410 q 973 492 973 466 q 968 528 973 509 q 952 564 964 548 q 924 591 941 581 q 880 602 906 602 q 829 589 854 602 q 782 554 804 576 q 742 504 760 532 q 711 445 724 475 l 711 0 l 534 0 l 534 223 l 533 224 q 512 211 525 218 q 480 195 498 203 q 438 182 462 188 q 386 177 414 177 q 271 202 326 177 q 173 272 216 228 q 105 374 131 315 q 80 500 80 433 q 99 606 80 555 q 152 694 117 656 q 237 754 187 732 q 351 777 288 777 q 439 762 397 777 q 533 711 482 748 l 534 711 l 534 859 l -24 859 l -24 1011 l 1282 1011 l 1282 859 l 711 859 l 711 699 l 713 698 q 762 733 736 720 q 811 754 787 747 q 857 764 836 762 q 897 767 879 767 q 1003 743 956 767 q 1082 681 1050 720 q 1132 594 1115 643 q 1149 494 1149 545 q 1131 390 1149 441 q 1079 292 1113 339 q 997 204 1045 245 q 889 130 949 163 l 803 278 m 538 545 q 509 573 525 559 q 475 598 494 587 q 435 617 457 610 q 388 624 414 624 q 333 613 357 624 q 293 584 309 602 q 269 541 277 566 q 260 490 260 517 q 271 431 260 458 q 300 384 281 404 q 346 352 319 363 q 407 340 373 340 q 471 355 446 340 q 511 392 496 369 q 532 442 526 414 q 538 497 538 470 l 538 545 m 213 14 q 220 52 213 35 q 240 83 227 70 q 271 103 253 96 q 311 111 289 111 q 350 103 332 111 q 381 82 368 96 q 402 51 395 69 q 410 12 410 33 q 403 -26 410 -9 q 383 -57 396 -44 q 352 -76 370 -69 q 313 -83 334 -83 q 273 -76 292 -83 q 242 -56 255 -69 q 221 -25 229 -43 q 213 14 213 -7 z "},"ख़":{"ha":1333,"x_min":-24,"x_max":1356,"o":"m 956 10 q 894 -10 925 -2 q 835 -23 863 -18 q 781 -30 806 -28 q 734 -31 755 -31 q 542 3 635 -31 q 364 109 450 38 q 201 290 279 180 q 54 548 123 399 l 196 630 q 242 556 220 576 q 283 536 263 536 q 332 569 312 536 q 351 658 351 602 q 337 757 351 705 q 300 859 323 810 l -24 859 l -24 1011 l 1356 1011 l 1356 859 l 1208 859 l 1208 0 l 1031 0 l 1031 279 l 1029 279 q 950 237 990 249 q 871 224 909 224 q 764 246 814 224 q 674 307 713 268 q 612 398 635 345 q 589 514 589 452 q 605 612 589 565 q 652 694 621 659 q 729 752 684 730 q 832 773 774 773 q 940 753 891 773 q 1029 700 988 732 l 1031 701 l 1031 859 l 478 859 q 514 754 502 804 q 526 652 526 705 q 517 568 526 609 q 487 492 508 527 q 431 430 466 457 q 346 386 397 402 l 346 382 q 458 249 403 300 q 565 169 513 197 q 666 131 617 140 q 758 121 714 121 q 854 131 808 121 q 956 164 901 142 l 956 10 m 1038 545 q 1011 570 1027 555 q 974 597 994 585 q 928 620 953 610 q 876 629 903 629 q 825 618 848 629 q 787 590 802 608 q 763 551 771 573 q 754 504 754 528 q 765 452 754 476 q 793 409 775 427 q 837 380 812 391 q 890 369 861 369 q 939 377 913 369 q 987 404 965 385 q 1023 453 1009 422 q 1038 528 1038 484 l 1038 545 m 130 -6 q 137 32 130 14 q 157 62 144 50 q 188 83 170 75 q 227 90 205 90 q 267 83 248 90 q 298 62 285 75 q 319 31 311 49 q 327 -8 327 13 q 320 -47 327 -29 q 299 -77 313 -64 q 268 -97 286 -90 q 229 -104 250 -104 q 190 -97 208 -104 q 158 -76 172 -90 q 137 -45 145 -63 q 130 -6 130 -28 z "},"ग़":{"ha":944,"x_min":-24,"x_max":968,"o":"m 968 859 l 820 859 l 820 -1 l 643 -1 l 643 859 l 395 859 l 395 348 q 394 311 395 329 q 388 279 393 293 q 371 257 382 266 q 340 249 360 249 q 283 264 313 249 q 222 304 252 279 q 165 360 193 329 q 118 422 138 391 q 85 483 97 454 q 73 533 73 512 q 76 551 73 542 q 87 566 79 559 q 112 577 96 573 q 151 581 127 581 l 219 581 l 219 859 l -24 859 l -24 1011 l 968 1011 l 968 859 m 337 89 q 344 127 337 109 q 364 157 351 144 q 395 178 377 170 q 435 185 413 185 q 474 178 456 185 q 506 157 492 170 q 527 126 519 144 q 534 87 534 108 q 527 48 534 66 q 507 18 520 31 q 476 -2 494 5 q 437 -9 458 -9 q 397 -2 416 -9 q 366 19 379 5 q 345 50 353 32 q 337 89 337 67 z "},"ज़":{"ha":1120,"x_min":-24,"x_max":1144,"o":"m 1144 859 l 996 859 l 996 0 l 819 0 l 819 534 l 648 534 l 647 532 q 701 450 684 496 q 719 357 719 404 q 704 274 719 314 q 660 203 690 234 q 586 153 631 172 q 481 134 541 134 q 357 159 412 134 q 257 225 302 183 q 179 325 213 268 q 121 446 146 381 q 80 580 97 511 q 54 716 64 649 l 215 745 q 264 537 235 621 q 327 402 293 453 q 395 330 360 351 q 461 309 430 309 q 520 332 496 309 q 544 398 544 355 q 536 447 544 421 q 511 498 528 473 q 471 545 495 523 q 414 582 446 566 l 414 688 l 819 688 l 819 859 l -24 859 l -24 1011 l 1144 1011 l 1144 859 m 347 -26 q 354 12 347 -6 q 374 42 361 29 q 405 62 387 55 q 444 70 422 70 q 484 62 465 70 q 515 42 502 55 q 536 11 528 28 q 544 -28 544 -7 q 537 -67 544 -50 q 516 -97 530 -85 q 485 -117 503 -110 q 446 -124 467 -124 q 407 -117 425 -124 q 375 -97 389 -110 q 354 -66 362 -83 q 347 -26 347 -48 z "},"ड़":{"ha":1023,"x_min":-28,"x_max":1049,"o":"m 1049 859 l 836 859 l 836 629 l 495 629 q 448 618 460 629 q 435 586 435 608 q 439 561 435 574 q 453 536 443 547 q 481 516 463 524 q 526 508 498 508 l 716 508 q 811 491 772 508 q 872 444 849 473 q 906 373 896 414 q 916 288 916 333 q 895 165 916 223 q 831 64 873 108 q 724 -5 788 20 q 573 -31 659 -31 q 399 1 482 -31 q 247 90 316 33 q 125 226 178 147 q 43 399 73 305 l 196 460 q 256 336 218 395 q 342 232 293 277 q 449 159 391 186 q 573 132 508 132 q 644 142 613 132 q 695 173 675 153 q 727 220 716 193 q 738 282 738 248 q 733 322 738 307 q 716 347 728 338 q 688 358 705 355 q 648 361 671 361 l 456 361 q 366 387 404 361 q 303 450 328 412 q 267 534 279 488 q 255 621 255 579 q 267 695 255 665 q 302 742 279 724 q 355 768 324 760 q 422 775 386 775 l 659 775 l 659 859 l -28 859 l -28 1011 l 1049 1011 l 1049 859 m 479 -169 q 486 -131 479 -149 q 506 -100 493 -113 q 537 -80 519 -87 q 576 -73 555 -73 q 616 -80 597 -73 q 647 -101 634 -87 q 668 -132 661 -114 q 676 -171 676 -150 q 669 -210 676 -192 q 649 -240 662 -227 q 617 -259 635 -252 q 578 -267 600 -267 q 539 -259 557 -267 q 508 -239 521 -252 q 487 -208 494 -226 q 479 -169 479 -191 z "},"ढ़":{"ha":879,"x_min":-24,"x_max":903,"o":"m 903 859 l 698 859 l 698 555 l 444 555 q 306 508 351 555 q 260 376 260 460 q 267 312 260 344 q 286 254 273 281 q 318 206 299 227 q 361 172 336 184 l 362 174 q 355 212 357 193 q 353 248 353 230 q 366 330 353 292 q 407 397 380 369 q 473 442 433 426 q 564 458 512 458 q 663 440 619 458 q 738 390 707 421 q 785 319 768 359 q 801 236 801 279 q 781 143 801 188 q 721 62 760 98 q 626 5 682 26 q 497 -16 569 -16 q 334 16 410 -16 q 201 103 258 47 q 113 236 145 159 q 80 401 80 313 q 103 533 80 476 q 169 628 127 590 q 270 686 211 667 q 399 706 328 706 l 521 706 l 521 859 l -24 859 l -24 1011 l 903 1011 l 903 859 m 495 137 q 566 148 536 138 q 613 175 595 159 q 641 211 632 191 q 649 251 649 231 q 628 307 649 286 q 574 328 606 328 q 535 318 552 328 q 507 292 519 309 q 489 254 495 276 q 483 207 483 232 q 495 137 483 174 m 397 -169 q 405 -131 397 -149 q 425 -100 412 -113 q 455 -80 437 -87 q 495 -73 473 -73 q 534 -80 516 -73 q 566 -101 553 -87 q 587 -132 579 -114 q 595 -171 595 -150 q 588 -210 595 -192 q 567 -240 581 -227 q 536 -259 554 -252 q 497 -267 518 -267 q 458 -259 476 -267 q 426 -239 439 -252 q 405 -208 413 -226 q 397 -169 397 -191 z "},"फ़":{"ha":1295,"x_min":-24,"x_max":1319,"o":"m 736 709 l 737 709 q 786 744 761 730 q 836 765 811 758 q 882 775 860 772 q 921 778 904 778 q 1029 754 981 778 q 1110 692 1077 730 q 1161 605 1143 654 q 1179 505 1179 556 q 1160 401 1179 452 q 1108 303 1142 350 q 1027 215 1074 256 q 920 141 979 174 l 836 289 q 909 338 878 311 q 961 392 940 364 q 992 449 982 420 q 1002 503 1002 477 q 998 539 1002 519 q 982 575 993 559 q 952 602 970 591 q 908 613 935 613 q 856 600 881 613 q 808 565 830 587 q 767 514 785 543 q 736 456 749 486 l 736 0 l 559 0 l 559 244 l 557 245 q 485 209 525 220 q 404 197 444 197 q 307 215 356 197 q 218 273 258 233 q 152 377 178 313 q 127 533 127 441 l 127 859 l -24 859 l -24 1011 l 1319 1011 l 1319 859 l 736 859 l 736 709 m 559 859 l 306 859 l 306 537 q 311 467 306 499 q 329 412 317 435 q 363 376 342 389 q 416 363 385 363 q 496 390 459 363 q 559 465 532 416 l 559 859 m 263 21 q 270 59 263 41 q 290 90 277 77 q 321 110 303 102 q 361 117 339 117 q 400 110 382 117 q 432 89 418 102 q 453 58 445 76 q 460 19 460 40 q 453 -20 460 -2 q 433 -50 446 -37 q 402 -70 420 -62 q 363 -77 384 -77 q 323 -70 342 -77 q 292 -49 305 -62 q 271 -18 279 -36 q 263 21 263 -1 z "},"य़":{"ha":923,"x_min":-26,"x_max":948,"o":"m -26 859 l -26 1011 l 948 1011 l 948 859 l 800 859 l 800 0 l 623 0 l 623 252 l 621 252 q 587 230 606 241 q 546 210 568 218 q 496 195 524 201 q 436 190 469 190 q 284 224 349 190 q 175 314 220 258 q 104 441 130 370 q 67 585 77 511 q 140 604 111 590 q 188 636 170 617 q 213 679 205 656 q 221 728 221 703 q 210 790 221 758 q 176 859 199 822 l -26 859 m 401 700 q 367 584 401 634 q 267 505 333 534 q 293 437 276 465 q 333 390 311 408 q 382 364 355 372 q 437 355 408 355 q 547 387 500 355 q 623 475 593 418 l 623 859 l 351 859 q 389 777 377 817 q 401 700 401 736 m 290 40 q 297 78 290 60 q 317 109 304 96 q 348 129 330 121 q 387 136 366 136 q 427 129 408 136 q 458 108 445 121 q 479 77 471 95 q 487 38 487 59 q 480 -1 487 17 q 459 -31 473 -18 q 428 -51 446 -43 q 389 -58 410 -58 q 350 -51 368 -58 q 318 -30 332 -43 q 297 1 305 -17 q 290 40 290 18 z "},"ॻ":{"ha":944,"x_min":-24,"x_max":968,"o":"m 968 859 l 820 859 l 820 -99 l 117 -99 l 117 54 l 643 54 l 643 859 l 395 859 l 395 348 q 394 311 395 329 q 388 279 393 293 q 371 257 382 266 q 340 249 360 249 q 283 264 313 249 q 222 304 252 279 q 165 360 193 329 q 118 422 138 391 q 85 483 97 454 q 73 533 73 512 q 76 551 73 542 q 87 566 79 559 q 112 577 96 573 q 151 581 127 581 l 219 581 l 219 859 l -24 859 l -24 1011 l 968 1011 l 968 859 z "},"ॼ":{"ha":1120,"x_min":-24,"x_max":1144,"o":"m 1144 859 l 996 859 l 996 -99 l 117 -99 l 117 54 l 819 54 l 819 534 l 648 534 l 647 532 q 701 450 684 496 q 719 357 719 404 q 704 274 719 314 q 660 203 690 234 q 586 153 631 172 q 481 134 541 134 q 357 159 412 134 q 257 225 302 183 q 179 325 213 268 q 121 446 146 381 q 80 580 97 511 q 54 716 64 649 l 215 745 q 264 537 235 621 q 327 402 293 453 q 395 330 360 351 q 461 309 430 309 q 520 332 496 309 q 544 398 544 355 q 536 447 544 421 q 511 498 528 473 q 471 545 495 523 q 414 582 446 566 l 414 688 l 819 688 l 819 859 l -24 859 l -24 1011 l 1144 1011 l 1144 859 z "},"ॾ":{"ha":1023,"x_min":-24,"x_max":1047,"o":"m 900 -248 l 117 -248 l 117 -96 l 900 -96 l 900 -248 m 1047 859 l 834 859 l 834 611 l 507 611 q 459 601 472 611 q 447 570 447 591 q 451 546 447 559 q 465 521 454 532 q 492 502 475 509 q 538 494 510 494 l 714 494 q 809 477 770 494 q 870 431 847 460 q 904 363 894 402 q 914 279 914 324 q 893 161 914 217 q 830 62 872 104 q 723 -6 787 19 q 574 -31 659 -31 q 401 1 484 -31 q 250 90 319 33 q 130 226 182 147 q 48 399 77 305 l 199 460 q 259 336 222 395 q 344 232 296 277 q 450 159 392 186 q 572 132 508 132 q 694 170 652 132 q 736 273 736 209 q 731 310 736 296 q 714 333 726 325 q 686 344 703 341 q 646 347 669 347 l 467 347 q 377 372 415 347 q 315 435 340 397 q 278 518 290 473 q 267 604 267 564 q 279 678 267 648 q 313 725 291 707 q 367 750 336 743 q 434 758 397 758 l 657 758 l 657 859 l -24 859 l -24 1011 l 1047 1011 l 1047 859 z "},"ॿ":{"ha":880,"x_min":-24,"x_max":904,"o":"m 904 859 l 756 859 l 756 -99 l 117 -99 l 117 54 l 579 54 l 579 193 l 575 193 q 491 154 534 167 q 406 142 448 142 q 283 168 342 142 q 180 239 225 194 q 109 345 136 284 q 83 475 83 406 q 104 590 83 536 q 164 684 125 644 q 257 748 203 724 q 376 771 311 771 q 409 769 388 771 q 456 761 429 768 q 513 740 482 754 q 576 703 544 726 l 579 703 l 579 859 l -24 859 l -24 1011 l 904 1011 l 904 859 m 257 467 q 267 408 257 438 q 298 354 277 378 q 348 315 318 330 q 416 299 377 299 q 477 311 449 299 l 301 576 q 268 526 279 554 q 257 467 257 497 m 582 547 q 500 610 541 593 q 421 627 460 627 q 370 620 395 627 l 544 359 q 572 406 562 380 q 582 455 582 431 l 582 547 z "},"ऽ":{"ha":870,"x_min":71,"x_max":753,"o":"m 720 859 l 382 859 q 346 857 362 859 q 318 848 330 854 q 301 831 307 842 q 295 802 295 820 q 318 735 295 764 q 378 680 341 706 q 461 629 415 654 q 553 575 507 604 q 629 522 593 551 q 692 457 665 493 q 737 376 720 421 q 753 275 753 332 q 736 165 753 220 q 681 66 718 110 q 586 -4 644 23 q 448 -31 528 -31 q 319 -12 377 -31 q 214 38 261 8 q 132 104 168 68 q 71 170 96 139 l 198 277 q 312 163 251 201 q 437 124 374 124 q 498 136 472 124 q 542 168 524 148 q 568 214 559 188 q 577 271 577 241 q 561 342 577 311 q 517 399 545 374 q 455 445 490 424 q 380 487 419 466 q 288 540 334 512 q 204 605 241 568 q 144 692 167 642 q 121 811 121 742 q 134 896 121 859 q 177 958 147 932 q 256 998 208 984 q 374 1011 304 1011 l 720 1011 l 720 859 z "},"ॽ":{"ha":795,"x_min":95,"x_max":682,"o":"m 95 961 q 220 1006 156 987 q 355 1025 285 1025 q 489 1002 429 1025 q 592 941 549 980 q 658 848 635 901 q 682 731 682 794 q 658 615 682 666 q 595 527 634 565 q 505 465 555 490 q 402 425 455 439 l 402 0 l 225 0 l 225 539 q 331 563 280 549 q 421 598 382 576 q 485 652 461 621 q 509 731 509 684 q 496 790 509 764 q 462 833 484 816 q 411 859 440 850 q 347 868 381 868 q 282 861 315 868 q 218 842 250 854 q 155 814 186 829 q 95 781 124 798 l 95 961 z "},"ा":{"ha":427,"x_min":-24,"x_max":451,"o":"m 451 859 l 303 859 l 303 0 l 126 0 l 126 859 l -24 859 l -24 1011 l 451 1011 l 451 859 z "},"ि":{"ha":427,"x_min":-24,"x_max":1118,"o":"m 451 859 l 303 859 l 303 -1 l 126 -1 l 126 859 l -24 859 l -24 1011 l 129 1011 q 91 1167 91 1095 q 111 1270 91 1221 q 171 1354 130 1318 q 276 1410 212 1390 q 429 1431 340 1431 q 630 1400 536 1431 q 810 1314 725 1370 q 971 1179 895 1258 q 1118 1004 1048 1100 l 956 1004 q 900 1057 932 1027 q 830 1118 869 1087 q 747 1177 791 1148 q 654 1229 703 1206 q 552 1265 605 1251 q 444 1278 499 1278 q 361 1267 396 1278 q 302 1237 326 1257 q 269 1191 279 1217 q 258 1131 258 1164 q 266 1073 258 1103 q 292 1011 275 1044 l 451 1011 l 451 859 z "},"ी":{"ha":427,"x_min":-425,"x_max":451,"o":"m 451 859 l 303 859 l 303 0 l 126 0 l 126 859 l -24 859 l -24 1011 l 129 1011 q 96 1118 116 1074 q 54 1192 77 1162 q 6 1239 31 1222 q -42 1265 -19 1256 q -85 1276 -65 1274 q -118 1278 -105 1278 q -214 1250 -182 1278 q -246 1179 -246 1222 q -220 1094 -246 1139 q -144 1004 -194 1049 l -340 1004 q -404 1109 -382 1055 q -425 1215 -425 1164 q -407 1299 -425 1259 q -352 1368 -389 1339 q -260 1414 -315 1397 q -130 1431 -205 1431 q 47 1398 -27 1431 q 172 1309 121 1365 q 251 1175 222 1252 q 292 1011 280 1099 l 451 1011 l 451 859 z "},"ु":{"ha":0,"x_min":-694,"x_max":45,"o":"m -362 -16 q -267 23 -317 9 q -169 37 -217 37 q -87 25 -126 37 q -19 -8 -49 14 q 28 -65 10 -31 q 45 -145 45 -99 q 21 -240 45 -200 q -46 -305 -4 -279 q -142 -342 -87 -330 q -255 -355 -196 -355 q -404 -337 -336 -355 q -527 -294 -472 -320 q -624 -236 -582 -268 q -694 -176 -666 -205 l -590 -53 q -517 -123 -553 -92 q -440 -174 -480 -153 q -355 -205 -400 -195 q -258 -216 -311 -216 q -208 -213 -232 -216 q -165 -202 -184 -210 q -136 -179 -147 -193 q -125 -141 -125 -164 q -130 -114 -125 -125 q -145 -95 -136 -102 q -168 -84 -155 -87 q -195 -81 -180 -81 q -229 -84 -212 -81 q -261 -93 -245 -87 q -290 -105 -277 -99 q -311 -118 -303 -112 l -362 -16 z "},"ू":{"ha":0,"x_min":-462,"x_max":269,"o":"m 124 -361 q 61 -252 93 -301 q -7 -167 29 -202 q -86 -112 -43 -132 q -181 -93 -128 -93 q -263 -112 -234 -93 q -292 -163 -292 -130 q -267 -211 -292 -193 q -203 -229 -243 -229 q -119 -210 -163 -229 l -96 -320 q -227 -347 -155 -347 q -317 -335 -274 -347 q -392 -299 -359 -323 q -443 -240 -424 -275 q -462 -159 -462 -205 q -439 -73 -462 -110 q -380 -12 -417 -36 q -296 25 -343 13 q -200 37 -249 37 q -79 19 -135 37 q 23 -26 -24 2 q 108 -89 70 -54 q 177 -161 146 -125 q 230 -232 207 -197 q 269 -292 252 -266 l 124 -361 z "},"ृ":{"ha":0,"x_min":-426,"x_max":-9,"o":"m -85 -78 l -159 -78 q -232 -100 -208 -78 q -256 -156 -256 -123 q -248 -189 -256 -176 q -228 -212 -241 -203 q -197 -224 -215 -220 q -159 -229 -179 -229 q -98 -222 -131 -229 q -37 -206 -66 -216 l -9 -321 q -90 -342 -50 -335 q -170 -349 -131 -349 q -269 -336 -222 -349 q -350 -300 -315 -324 q -406 -239 -385 -275 q -426 -155 -426 -203 q -404 -68 -426 -104 q -345 -7 -382 -31 q -261 28 -309 16 q -164 39 -214 39 l -85 39 l -85 -78 z "},"ॢ":{"ha":0,"x_min":-553,"x_max":94,"o":"m -335 -148 q -340 -113 -336 -130 q -349 -83 -343 -96 q -364 -62 -355 -70 q -385 -54 -373 -54 q -411 -67 -402 -54 q -420 -102 -420 -80 q -409 -152 -420 -128 q -377 -195 -397 -175 q -333 -233 -358 -216 q -281 -264 -307 -250 l -347 -357 q -410 -320 -374 -345 q -477 -261 -446 -295 q -531 -187 -509 -228 q -553 -100 -553 -146 q -541 -40 -553 -66 q -507 6 -528 -13 q -457 35 -486 25 q -397 45 -429 45 q -331 32 -358 45 q -287 -6 -304 18 l -283 -6 q -230 34 -262 23 q -165 44 -198 44 q -96 32 -125 44 q -47 1 -66 20 q -19 -43 -28 -18 q -10 -94 -10 -68 q -15 -130 -10 -115 q -28 -158 -20 -146 q -45 -180 -37 -170 q -62 -198 -54 -189 q -76 -216 -71 -208 q -81 -236 -81 -225 q -73 -255 -81 -250 q -53 -260 -64 -260 q -28 -255 -40 -260 q -5 -240 -16 -249 q 16 -220 6 -231 q 34 -199 26 -210 l 94 -261 q 17 -335 57 -312 q -73 -357 -24 -357 q -133 -347 -107 -357 q -176 -321 -159 -337 q -202 -284 -193 -304 q -210 -241 -210 -263 q -199 -196 -210 -214 q -175 -162 -188 -178 q -150 -130 -161 -146 q -139 -91 -139 -113 q -149 -61 -139 -70 q -174 -52 -159 -52 q -198 -59 -187 -52 q -215 -78 -208 -66 q -226 -106 -222 -90 q -229 -138 -229 -121 l -229 -148 l -335 -148 z "},"ॅ":{"ha":0,"x_min":-525,"x_max":167,"o":"m -376 1451 q -368 1421 -374 1440 q -353 1379 -363 1402 q -329 1332 -343 1356 q -293 1289 -314 1308 q -244 1257 -272 1270 q -179 1245 -216 1245 q -116 1257 -144 1245 q -67 1286 -88 1268 q -31 1328 -46 1305 q -5 1374 -16 1351 q 12 1417 5 1396 q 22 1452 18 1438 l 167 1402 q 149 1341 160 1374 q 119 1274 137 1308 q 74 1208 100 1240 q 12 1151 48 1176 q -70 1112 -24 1126 q -175 1097 -117 1097 q -303 1119 -245 1097 q -405 1181 -361 1141 q -478 1277 -448 1221 q -525 1402 -509 1333 l -376 1451 z "},"ॆ":{"ha":0,"x_min":-740,"x_max":-100,"o":"m -260 992 q -282 1084 -267 1051 q -319 1133 -297 1117 q -370 1153 -341 1149 q -431 1158 -398 1157 q -496 1160 -464 1158 q -557 1169 -528 1162 q -615 1191 -587 1176 q -666 1234 -642 1206 q -708 1305 -689 1262 q -740 1412 -727 1349 l -587 1444 q -570 1388 -578 1411 q -554 1350 -563 1365 q -533 1326 -545 1335 q -504 1312 -521 1317 q -463 1306 -487 1308 q -407 1303 -439 1304 q -336 1299 -371 1301 q -270 1288 -301 1297 q -210 1261 -238 1279 q -160 1208 -182 1242 q -123 1121 -138 1174 q -100 992 -107 1069 l -260 992 z "},"े":{"ha":0,"x_min":-677,"x_max":-99,"o":"m -245 992 l -264 1029 q -327 1142 -300 1095 q -375 1220 -353 1189 q -416 1268 -397 1251 q -453 1294 -434 1285 q -492 1304 -471 1302 q -538 1306 -513 1306 l -677 1306 l -677 1458 l -551 1458 q -459 1455 -497 1458 q -390 1437 -420 1451 q -332 1393 -359 1422 q -272 1312 -304 1364 q -199 1182 -240 1260 q -99 992 -157 1104 l -245 992 z "},"ै":{"ha":0,"x_min":-719,"x_max":-73,"o":"m -256 987 l -283 1017 q -345 1077 -315 1050 q -410 1121 -376 1103 q -487 1149 -445 1139 q -583 1158 -529 1158 l -719 1158 l -719 1293 l -614 1293 q -543 1292 -574 1293 q -485 1283 -512 1291 q -430 1262 -457 1276 q -371 1220 -403 1247 q -299 1151 -339 1193 q -207 1049 -260 1109 l -200 1052 q -279 1172 -245 1122 q -341 1257 -313 1223 q -391 1312 -368 1291 q -437 1343 -414 1333 q -488 1358 -461 1354 q -549 1361 -514 1361 l -678 1361 l -678 1499 l -557 1499 q -430 1485 -480 1499 q -345 1445 -380 1472 q -286 1380 -311 1419 q -234 1292 -260 1341 l -73 987 l -256 987 z "},"ॉ":{"ha":427,"x_min":-136,"x_max":555,"o":"m 451 859 l 303 859 l 303 0 l 126 0 l 126 859 l -24 859 l -24 1011 l 451 1011 l 451 859 m 12 1451 q 20 1421 15 1440 q 36 1379 26 1402 q 60 1332 45 1356 q 96 1289 75 1308 q 145 1257 117 1270 q 210 1245 173 1245 q 273 1257 245 1245 q 321 1286 300 1268 q 358 1328 342 1305 q 384 1374 373 1351 q 400 1417 394 1396 q 410 1452 406 1438 l 555 1402 q 537 1341 549 1374 q 507 1274 526 1308 q 463 1208 489 1240 q 401 1151 437 1176 q 318 1112 365 1126 q 214 1097 272 1097 q 85 1119 143 1097 q -16 1181 28 1141 q -90 1277 -60 1221 q -136 1402 -120 1333 l 12 1451 z "},"ॊ":{"ha":427,"x_min":-351,"x_max":451,"o":"m 451 859 l 303 859 l 303 0 l 126 0 l 126 859 l -24 859 l -24 1011 l 451 1011 l 451 859 m 129 992 q 107 1084 122 1051 q 70 1133 92 1117 q 19 1153 47 1149 q -43 1158 -9 1157 q -107 1160 -75 1158 q -169 1169 -139 1162 q -226 1191 -199 1176 q -277 1234 -254 1206 q -319 1305 -300 1262 q -351 1412 -338 1349 l -198 1444 q -182 1388 -189 1411 q -165 1350 -174 1365 q -144 1326 -156 1335 q -115 1312 -132 1317 q -75 1306 -98 1308 q -18 1303 -51 1304 q 53 1299 18 1301 q 119 1288 87 1297 q 178 1261 151 1279 q 228 1208 206 1242 q 266 1121 250 1174 q 289 992 281 1069 l 129 992 z "},"ो":{"ha":427,"x_min":-288,"x_max":451,"o":"m 451 859 l 303 859 l 303 0 l 126 0 l 126 859 l -24 859 l -24 1011 l 451 1011 l 451 859 m 144 992 l 124 1029 q 62 1142 89 1095 q 13 1220 35 1189 q -27 1268 -9 1251 q -64 1294 -45 1285 q -103 1304 -83 1302 q -150 1306 -124 1306 l -288 1306 l -288 1458 l -162 1458 q -70 1455 -109 1458 q -1 1437 -32 1451 q 57 1393 29 1422 q 116 1312 84 1364 q 190 1182 149 1260 q 290 992 231 1104 l 144 992 z "},"ौ":{"ha":427,"x_min":-328,"x_max":451,"o":"m 451 859 l 303 859 l 303 0 l 126 0 l 126 859 l -24 859 l -24 1011 l 451 1011 l 451 859 m 135 987 l 107 1017 q 45 1077 76 1050 q -20 1121 15 1103 q -96 1149 -54 1139 q -193 1158 -138 1158 l -328 1158 l -328 1293 l -223 1293 q -152 1292 -183 1293 q -94 1283 -121 1291 q -39 1262 -66 1276 q 20 1220 -12 1247 q 91 1151 52 1193 q 184 1049 131 1109 l 191 1052 q 111 1172 145 1122 q 50 1257 77 1223 q 0 1312 22 1291 q -47 1343 -23 1333 q -97 1358 -71 1354 q -158 1361 -123 1361 l -288 1361 l -288 1499 l -166 1499 q -39 1485 -90 1499 q 45 1445 11 1472 q 105 1380 80 1419 q 157 1292 130 1341 l 317 987 l 135 987 z "},"ॄ":{"ha":0,"x_min":-433,"x_max":6,"o":"m -85 154 l -166 154 q -210 148 -192 154 q -240 133 -229 142 q -257 112 -252 124 q -262 86 -262 99 q -254 56 -262 68 q -233 35 -246 43 q -201 23 -219 27 q -162 20 -182 20 q -83 31 -120 20 l -58 -83 q -118 -91 -92 -86 q -163 -105 -144 -96 q -192 -128 -182 -115 q -201 -162 -201 -142 q -174 -213 -201 -197 q -106 -229 -146 -229 q -62 -224 -83 -229 q -25 -214 -41 -220 l 6 -327 q -56 -343 -24 -338 q -121 -349 -88 -349 q -213 -338 -168 -349 q -293 -304 -258 -327 q -350 -246 -328 -281 q -372 -163 -372 -212 q -362 -108 -372 -133 q -335 -61 -353 -83 l -336 -58 q -409 2 -385 -33 q -433 85 -433 37 q -410 170 -433 134 q -351 227 -388 205 q -268 260 -315 250 q -171 271 -220 271 l -85 271 l -85 154 z "},"ॣ":{"ha":0,"x_min":-553,"x_max":104,"o":"m 104 -272 q 51 -288 77 -282 q -6 -294 24 -294 q -70 -287 -40 -294 q -123 -264 -100 -279 q -159 -228 -146 -249 q -173 -178 -173 -206 q -165 -139 -173 -159 q -136 -99 -157 -119 l -137 -96 q -165 -84 -151 -91 q -189 -66 -178 -77 q -205 -42 -199 -56 q -212 -10 -212 -28 q -200 33 -212 16 q -175 65 -189 50 q -150 96 -161 81 q -139 134 -139 112 q -149 164 -139 155 q -174 173 -159 173 q -198 166 -187 173 q -215 147 -208 159 q -226 119 -222 135 q -229 87 -229 104 l -229 77 l -335 77 q -340 113 -336 96 q -349 142 -343 130 q -364 163 -355 155 q -385 171 -373 171 q -411 158 -402 171 q -420 123 -420 145 q -409 74 -420 97 q -377 30 -397 50 q -333 -8 -358 9 q -281 -39 -307 -25 l -347 -132 q -410 -95 -374 -119 q -477 -36 -446 -70 q -531 38 -509 -3 q -553 125 -553 79 q -541 185 -553 159 q -507 231 -528 212 q -457 260 -486 250 q -396 271 -429 271 q -331 257 -357 271 q -287 219 -304 243 l -283 219 q -230 259 -262 248 q -165 269 -198 269 q -96 257 -125 269 q -48 226 -67 245 q -19 182 -28 207 q -10 133 -10 158 q -22 81 -10 101 q -48 46 -34 60 q -74 20 -62 32 q -86 -8 -86 7 q -76 -29 -86 -22 q -51 -35 -65 -35 q -12 -30 -37 -35 q 39 -17 14 -24 l 60 -109 q 4 -121 26 -114 q -29 -135 -17 -127 q -45 -151 -41 -142 q -49 -166 -49 -159 q -35 -190 -49 -183 q -3 -197 -22 -197 q 18 -195 7 -197 q 40 -191 29 -193 q 61 -184 51 -188 q 78 -178 71 -181 l 104 -272 z "},"्":{"ha":0,"x_min":-299,"x_max":79,"o":"m -34 -379 l -299 -132 l -189 -14 l 79 -259 l -34 -379 z "},"ँ":{"ha":0,"x_min":-532,"x_max":174,"o":"m -383 1451 q -375 1421 -380 1440 q -359 1379 -369 1402 q -333 1332 -349 1356 q -296 1289 -318 1308 q -246 1257 -275 1270 q -179 1245 -217 1245 q -114 1257 -142 1245 q -63 1286 -85 1268 q -26 1328 -41 1305 q 0 1374 -11 1351 q 18 1417 11 1396 q 28 1452 24 1438 l 174 1402 q 155 1341 167 1374 q 124 1274 143 1308 q 79 1208 106 1240 q 16 1151 52 1176 q -68 1112 -20 1126 q -175 1097 -115 1097 q -306 1119 -247 1097 q -409 1181 -364 1141 q -485 1277 -454 1221 q -532 1402 -515 1333 l -383 1451 m -273 1404 q -266 1442 -273 1425 q -247 1472 -259 1459 q -217 1492 -234 1485 q -178 1499 -199 1499 q -140 1491 -158 1499 q -109 1471 -122 1484 q -88 1441 -96 1459 q -81 1403 -81 1423 q -88 1365 -81 1383 q -108 1336 -95 1348 q -138 1316 -121 1323 q -176 1310 -155 1310 q -215 1317 -197 1310 q -245 1336 -233 1324 q -266 1367 -258 1349 q -273 1404 -273 1384 z "},"ऀ":{"ha":0,"x_min":-527,"x_max":178,"o":"m 30 1136 q 21 1166 27 1147 q 5 1208 16 1185 q -20 1255 -5 1232 q -57 1298 -35 1279 q -107 1330 -79 1318 q -174 1342 -136 1342 q -240 1331 -211 1342 q -290 1301 -269 1319 q -327 1259 -312 1282 q -353 1214 -342 1236 q -371 1170 -364 1191 q -382 1135 -378 1149 l -527 1185 q -508 1246 -520 1213 q -478 1314 -496 1280 q -432 1379 -459 1348 q -369 1436 -406 1411 q -286 1476 -333 1461 q -178 1491 -238 1491 q -48 1469 -106 1491 q 56 1406 11 1447 q 131 1310 100 1366 q 178 1185 162 1254 l 30 1136 m -80 1183 q -87 1145 -80 1162 q -107 1115 -94 1128 q -137 1096 -119 1103 q -175 1088 -154 1088 q -213 1096 -195 1088 q -244 1116 -231 1103 q -265 1146 -258 1128 q -273 1184 -273 1164 q -266 1222 -273 1204 q -245 1252 -258 1239 q -215 1271 -233 1264 q -177 1278 -198 1278 q -138 1271 -156 1278 q -108 1251 -121 1263 q -87 1221 -95 1238 q -80 1183 -80 1203 z "},"ं":{"ha":0,"x_min":-274,"x_max":-77,"o":"m -274 1228 q -267 1266 -274 1249 q -247 1297 -260 1284 q -216 1317 -234 1310 q -176 1324 -198 1324 q -137 1317 -155 1324 q -105 1296 -119 1310 q -84 1265 -92 1283 q -77 1226 -77 1247 q -84 1187 -77 1205 q -104 1157 -91 1170 q -135 1138 -117 1145 q -174 1131 -153 1131 q -214 1138 -195 1131 q -245 1158 -232 1145 q -266 1189 -258 1171 q -274 1228 -274 1206 z "},"ः":{"ha":0,"x_min":85,"x_max":286,"o":"m 85 669 q 92 709 85 690 q 112 740 99 727 q 144 761 125 753 q 184 768 162 768 q 225 761 206 768 q 257 742 243 754 q 278 712 271 729 q 286 674 286 694 q 279 631 286 650 q 258 598 271 612 q 227 577 245 585 q 186 569 208 569 q 146 576 165 569 q 114 597 127 584 q 93 629 100 610 q 85 669 85 648 m 85 259 q 92 298 85 280 q 112 330 99 317 q 144 351 125 343 q 184 358 162 358 q 225 351 206 358 q 257 331 243 344 q 278 301 271 319 q 286 264 286 284 q 279 221 286 240 q 258 188 271 201 q 227 166 245 174 q 186 159 208 159 q 146 166 165 159 q 114 187 127 174 q 93 219 100 200 q 85 259 85 237 z "},"़":{"ha":0,"x_min":-274,"x_max":-77,"o":"m -274 -169 q -267 -131 -274 -149 q -247 -100 -260 -113 q -216 -80 -234 -87 q -176 -73 -198 -73 q -137 -80 -155 -73 q -105 -101 -119 -87 q -84 -132 -92 -114 q -77 -171 -77 -150 q -84 -210 -77 -192 q -104 -240 -91 -227 q -135 -259 -117 -252 q -174 -267 -153 -267 q -214 -259 -195 -267 q -245 -239 -232 -252 q -266 -208 -258 -226 q -274 -169 -274 -191 z "},"॑":{"ha":0,"x_min":-254,"x_max":-98,"o":"m -254 1115 l -254 1455 l -98 1455 l -98 1115 l -254 1115 z "},"॒":{"ha":0,"x_min":-595,"x_max":-68,"o":"m -595 -102 l -68 -102 l -68 -255 l -595 -255 l -595 -102 z "},"॓":{"ha":0,"x_min":-427,"x_max":-49,"o":"m -161 1103 l -427 1351 l -316 1469 l -49 1223 l -161 1103 z "},"॔":{"ha":0,"x_min":-301,"x_max":77,"o":"m -301 1223 l -34 1469 l 77 1351 l -189 1103 l -301 1223 z "},"०":{"ha":788,"x_min":78,"x_max":710,"o":"m 395 692 q 333 679 361 692 q 285 642 305 665 q 254 587 265 618 q 243 519 243 556 q 255 451 243 483 q 287 396 267 419 q 336 359 308 372 q 395 345 363 345 q 453 359 426 345 q 501 396 481 372 q 533 451 522 419 q 545 519 545 483 q 534 587 545 556 q 503 642 523 618 q 456 679 484 665 q 395 692 428 692 m 395 841 q 520 815 463 841 q 620 746 578 790 q 686 644 663 703 q 710 519 710 585 q 685 393 710 452 q 617 291 661 334 q 517 221 574 247 q 395 196 460 196 q 272 221 330 196 q 172 291 215 247 q 103 393 128 334 q 78 519 78 452 q 102 644 78 585 q 169 746 126 703 q 269 815 211 790 q 395 841 327 841 z "},"१":{"ha":694,"x_min":85,"x_max":619,"o":"m 198 560 q 153 606 174 581 q 117 661 132 631 q 93 722 102 690 q 85 791 85 755 q 105 893 85 848 q 160 970 125 939 q 239 1018 194 1002 q 335 1035 285 1035 q 431 1018 385 1035 q 513 967 477 1001 q 570 885 549 934 q 591 772 591 836 q 572 655 591 711 q 519 546 553 599 q 441 442 486 493 q 346 339 397 391 q 470 224 418 275 q 555 131 522 173 q 604 55 588 90 q 619 -12 619 20 q 598 -91 619 -53 q 541 -170 578 -129 l 399 -71 q 416 -50 409 -58 q 427 -33 422 -41 q 433 -18 431 -25 q 435 -2 435 -11 q 430 24 435 10 q 414 55 426 37 q 381 97 402 73 q 325 156 359 121 q 241 236 290 190 q 125 345 192 283 q 275 488 217 427 q 365 598 332 550 q 409 686 397 647 q 421 762 421 725 q 414 819 421 796 q 396 854 407 841 q 370 872 385 867 q 341 877 355 877 q 281 849 304 877 q 257 777 257 822 q 271 714 257 743 q 302 665 284 685 l 198 560 z "},"२":{"ha":821,"x_min":68,"x_max":712,"o":"m 510 -176 q 393 52 446 -62 q 296 288 340 165 q 212 310 250 290 q 148 358 174 329 q 107 421 121 387 q 94 490 94 456 q 126 579 94 549 q 212 609 159 609 q 258 601 234 609 q 304 575 281 593 q 348 528 327 557 q 384 460 368 500 q 436 485 410 469 q 484 527 463 502 q 520 586 506 552 q 534 665 534 621 q 518 749 534 711 q 476 813 503 787 q 412 855 450 840 q 330 870 374 870 q 236 856 289 870 q 131 809 184 842 l 68 971 q 148 1003 109 991 q 223 1023 188 1016 q 288 1033 258 1030 q 338 1035 317 1035 q 490 1005 421 1035 q 608 924 559 975 q 685 805 658 873 q 712 662 712 737 q 693 544 712 600 q 638 443 673 489 q 553 363 603 397 q 442 307 503 328 l 441 305 q 490 206 466 253 q 539 113 513 159 q 595 21 566 67 q 661 -76 625 -25 l 510 -176 z "},"३":{"ha":756,"x_min":78,"x_max":661,"o":"m 488 -163 q 437 -79 458 -113 q 396 -17 415 -44 q 360 32 378 9 q 321 80 342 55 q 220 99 262 83 q 151 139 178 115 q 112 191 124 163 q 99 248 99 220 q 107 291 99 271 q 131 327 115 311 q 167 351 146 342 q 216 360 189 360 q 270 350 244 360 q 318 323 296 340 q 358 286 340 307 q 391 244 376 265 q 424 259 407 249 q 454 285 440 269 q 477 325 468 301 q 486 381 486 349 q 472 449 486 422 q 435 494 458 477 q 382 518 412 511 q 317 526 351 526 l 152 526 l 152 669 l 278 669 q 355 677 325 669 q 402 698 385 685 q 427 727 420 711 q 433 762 433 744 q 426 799 433 781 q 400 830 418 817 q 354 851 382 843 q 285 859 326 859 l 78 859 l 78 1011 l 279 1011 q 431 993 369 1011 q 533 944 494 975 q 590 871 572 913 q 608 783 608 829 q 586 681 608 728 q 518 597 564 634 l 518 593 q 579 555 553 578 q 625 502 606 532 q 652 438 643 473 q 661 366 661 404 q 617 217 661 282 q 484 116 573 152 l 484 113 q 513 80 495 101 q 551 33 531 58 q 592 -20 572 7 q 629 -72 613 -47 l 488 -163 z "},"४":{"ha":898,"x_min":68,"x_max":830,"o":"m 341 524 q 280 581 311 551 q 218 643 248 611 q 160 710 187 675 q 113 780 133 744 q 80 854 92 817 q 68 932 68 892 q 73 982 68 961 q 79 1011 77 1004 l 255 1011 q 248 971 250 990 q 245 935 245 953 q 263 843 245 885 q 310 763 281 800 q 376 690 339 725 q 452 621 413 656 q 527 694 491 656 q 592 773 564 731 q 636 862 620 814 q 653 967 653 910 q 652 988 653 977 q 650 1011 652 1000 l 823 1011 q 828 982 827 996 q 830 952 830 968 q 806 823 830 882 q 744 713 782 764 q 660 617 707 662 q 569 532 614 573 q 631 468 602 500 q 680 399 659 435 q 713 325 701 363 q 726 245 726 287 q 704 151 726 193 q 647 80 683 109 q 565 36 612 51 q 467 20 517 20 q 366 36 414 20 q 281 81 318 52 q 222 153 244 111 q 200 250 200 195 q 211 327 200 290 q 242 398 222 364 q 287 464 261 432 q 341 524 313 495 m 456 430 q 398 351 420 390 q 376 267 376 313 q 382 229 376 246 q 400 199 389 212 q 426 180 411 187 q 458 174 441 174 q 496 182 479 174 q 525 203 513 190 q 543 234 536 216 q 550 270 550 252 q 543 313 550 293 q 524 353 536 334 q 495 391 512 372 q 456 430 477 410 z "},"५":{"ha":850,"x_min":102,"x_max":931,"o":"m 513 450 q 484 510 494 477 q 474 578 474 543 q 486 646 474 616 q 518 695 498 675 q 563 725 538 715 q 614 734 588 734 q 670 723 643 734 q 719 690 697 712 q 753 636 740 669 q 766 563 766 604 q 749 475 766 516 q 697 395 732 434 q 795 149 738 269 q 931 -76 853 28 l 779 -180 q 736 -111 758 -150 q 695 -29 715 -72 q 656 58 675 14 q 622 145 637 102 q 594 225 606 187 q 574 294 582 264 q 505 269 539 277 q 433 260 471 260 q 290 294 352 260 q 186 384 229 328 q 123 515 144 441 q 102 671 102 589 q 104 731 102 695 q 113 810 106 766 q 131 905 120 854 q 161 1011 142 956 l 334 1011 q 309 910 319 957 q 292 823 298 864 q 281 744 285 781 q 278 672 278 707 q 290 557 278 604 q 323 479 302 509 q 372 435 345 449 q 431 422 400 422 q 481 431 460 422 q 513 450 502 440 z "},"६":{"ha":897,"x_min":95,"x_max":886,"o":"m 543 232 q 525 281 531 256 q 519 330 519 306 q 524 369 519 351 q 542 402 530 388 q 573 424 554 416 q 620 432 593 432 q 685 419 655 432 q 737 383 715 406 q 770 332 758 361 q 783 271 783 302 q 768 208 783 235 q 729 158 753 180 q 800 49 758 105 q 886 -62 841 -7 l 749 -163 q 712 -106 731 -138 q 676 -41 694 -75 q 641 28 658 -7 q 609 97 624 64 q 534 81 572 86 q 464 77 496 77 q 328 101 387 77 q 228 165 269 125 q 165 258 186 205 q 144 368 144 311 q 149 422 144 393 q 166 478 154 450 q 199 531 178 505 q 250 578 219 557 l 250 581 q 188 613 216 595 q 139 656 159 631 q 106 713 118 681 q 95 788 95 746 q 114 880 95 842 q 162 942 132 918 q 229 981 191 967 q 304 1002 267 995 q 376 1010 342 1008 q 435 1011 411 1011 l 594 1011 l 594 859 l 442 859 q 375 854 406 859 q 320 840 344 850 q 283 811 297 829 q 270 765 270 793 q 281 723 270 741 q 310 694 292 705 q 353 677 328 683 q 406 672 378 672 l 617 672 l 617 528 l 450 528 q 388 517 413 528 q 348 486 363 505 q 326 442 332 467 q 319 391 319 417 q 330 325 319 355 q 361 273 341 295 q 411 237 382 250 q 477 224 441 224 q 509 227 492 224 q 543 232 527 229 z "},"७":{"ha":1000,"x_min":78,"x_max":922,"o":"m 659 344 q 529 375 583 348 q 441 443 475 402 q 391 533 407 484 q 375 631 375 583 q 392 726 375 682 q 439 803 408 770 q 515 853 471 835 q 615 871 559 871 q 744 841 687 871 q 841 756 802 810 q 901 628 880 702 q 922 467 922 554 q 894 281 922 364 q 816 139 866 198 q 696 49 766 81 q 543 17 627 17 q 416 39 473 17 q 312 103 359 62 q 230 202 266 144 q 169 331 195 260 q 126 481 144 400 q 98 649 109 562 q 83 828 87 736 q 78 1011 78 920 l 254 1011 q 260 782 254 891 q 282 581 267 673 q 320 413 297 488 q 376 286 343 338 q 450 204 408 233 q 545 176 492 176 q 630 198 592 176 q 694 260 668 221 q 735 353 721 300 q 749 469 749 407 q 738 574 749 528 q 706 650 726 619 q 663 698 687 682 q 613 714 638 714 q 588 710 601 714 q 565 695 576 705 q 547 667 554 684 q 541 623 541 649 q 551 567 541 590 q 578 529 562 544 q 616 506 595 514 q 659 493 637 497 l 659 344 z "},"८":{"ha":863,"x_min":85,"x_max":799,"o":"m 677 941 q 514 722 582 816 q 399 559 446 629 q 326 443 353 490 q 283 361 298 395 q 265 305 269 328 q 260 263 260 282 q 272 203 260 229 q 304 160 284 177 q 351 135 325 143 q 407 127 378 127 q 480 140 446 127 q 544 179 514 154 q 601 241 574 205 q 654 321 628 277 l 799 231 q 726 125 766 174 q 639 43 686 77 q 536 -12 592 8 q 414 -31 480 -31 q 287 -9 347 -31 q 182 51 227 12 q 111 144 138 90 q 85 263 85 198 q 96 346 85 303 q 130 437 106 388 q 190 544 153 486 q 276 674 226 602 q 392 836 327 747 q 540 1035 458 924 l 677 941 z "},"९":{"ha":842,"x_min":78,"x_max":777,"o":"m 391 640 q 419 660 406 648 q 443 686 433 671 q 458 721 452 701 q 464 764 464 740 q 457 807 464 787 q 436 843 450 827 q 405 867 423 858 q 362 876 386 876 q 318 867 338 876 q 283 842 298 858 q 261 804 269 825 q 254 758 254 782 q 270 686 254 723 q 318 604 287 648 q 396 507 350 560 q 501 386 442 453 q 618 252 567 311 q 705 146 670 193 q 759 61 741 100 q 777 -13 777 22 q 774 -41 777 -25 q 763 -77 771 -57 q 739 -120 754 -96 q 699 -170 724 -143 l 557 -71 q 585 -33 577 -47 q 593 0 593 -19 q 584 39 593 19 q 554 87 574 60 q 501 151 534 114 q 420 239 468 187 q 275 400 338 328 q 167 536 211 473 q 101 656 123 599 q 78 771 78 713 q 99 879 78 830 q 156 962 119 927 q 245 1016 193 997 q 359 1035 296 1035 q 477 1014 425 1035 q 566 956 529 992 q 622 870 602 919 q 641 766 641 821 q 599 617 641 685 q 473 506 557 549 l 391 640 z "},"।":{"ha":668,"x_min":320,"x_max":499,"o":"m 499 -1 l 320 -1 l 320 1011 l 499 1011 l 499 -1 z "},"॥":{"ha":1006,"x_min":320,"x_max":837,"o":"m 499 -1 l 320 -1 l 320 1011 l 499 1011 l 499 -1 m 837 -1 l 658 -1 l 658 1011 l 837 1011 l 837 -1 z "},"॰":{"ha":632,"x_min":100,"x_max":532,"o":"m 317 916 q 274 907 292 916 q 244 883 256 898 q 227 847 233 867 q 220 802 220 826 q 227 756 220 778 q 246 720 234 735 q 276 696 258 705 q 317 687 294 687 q 357 696 339 687 q 387 720 374 705 q 405 756 399 735 q 412 802 412 778 q 406 847 412 826 q 388 883 399 867 q 358 907 376 898 q 317 916 340 916 m 317 1025 q 406 1007 366 1025 q 473 959 446 989 q 516 888 501 929 q 532 802 532 848 q 516 716 532 756 q 471 645 500 675 q 403 597 443 615 q 317 580 363 580 q 230 597 270 580 q 162 645 191 615 q 117 716 133 675 q 100 802 100 756 q 116 888 100 848 q 160 959 132 929 q 228 1007 188 989 q 317 1025 268 1025 z "},"ॐ":{"ha":1630,"x_min":68,"x_max":1563,"o":"m 1162 213 q 1208 208 1183 208 q 1279 221 1247 208 q 1335 257 1312 234 q 1372 312 1359 280 q 1385 382 1385 344 q 1376 441 1385 417 q 1352 479 1367 465 q 1317 501 1337 494 q 1278 508 1298 508 q 1226 494 1249 508 q 1180 458 1202 479 q 1135 413 1158 437 q 1084 367 1112 388 q 1024 332 1057 346 q 947 317 990 317 q 904 322 926 317 l 903 321 q 905 289 905 305 q 883 168 905 224 q 819 72 861 113 q 716 7 777 31 q 578 -16 655 -16 q 443 5 504 -16 q 333 64 382 26 q 244 153 283 102 q 172 264 204 204 q 114 390 140 324 q 68 523 89 456 l 219 584 q 253 480 234 532 q 294 378 271 427 q 345 287 317 330 q 407 212 373 243 q 481 161 441 180 q 569 143 522 143 q 634 154 606 143 q 684 186 663 165 q 715 236 704 207 q 726 301 726 265 q 711 374 726 343 q 671 424 696 404 q 612 453 646 444 q 538 462 577 462 q 500 460 522 462 q 461 458 478 459 l 461 610 q 473 610 467 610 q 479 610 478 610 q 556 620 519 610 q 621 649 593 629 q 665 697 648 668 q 681 766 681 727 q 645 851 681 825 q 547 876 608 876 q 471 866 506 876 q 397 840 436 857 l 356 988 q 456 1023 406 1012 q 557 1035 506 1035 q 684 1015 627 1035 q 779 960 740 995 q 840 878 819 925 q 861 775 861 830 q 854 714 861 745 q 833 654 848 683 q 796 601 819 625 q 741 557 773 576 l 741 553 q 788 527 767 542 q 826 494 808 512 q 841 480 833 487 q 859 470 849 474 q 883 463 869 465 q 914 460 896 460 q 967 476 942 460 q 1018 515 992 492 q 1073 567 1044 539 q 1134 618 1101 595 q 1208 658 1168 642 q 1300 674 1249 674 q 1404 653 1356 674 q 1487 595 1452 632 q 1542 506 1522 557 q 1563 393 1563 454 q 1535 255 1563 317 q 1461 147 1508 192 q 1353 77 1414 102 q 1224 52 1291 52 q 1193 53 1208 52 q 1161 57 1177 54 l 1162 213 m 888 1335 q 896 1305 890 1324 q 912 1263 902 1286 q 938 1216 922 1240 q 975 1173 953 1192 q 1025 1141 996 1154 q 1092 1129 1055 1129 q 1157 1141 1128 1129 q 1208 1171 1186 1152 q 1245 1212 1230 1189 q 1272 1258 1261 1235 q 1289 1301 1282 1280 q 1299 1336 1295 1322 l 1444 1286 q 1426 1225 1438 1258 q 1395 1158 1414 1192 q 1350 1092 1376 1124 q 1286 1035 1323 1060 q 1203 996 1250 1010 q 1096 981 1156 981 q 965 1003 1024 981 q 862 1065 907 1025 q 786 1161 817 1105 q 739 1286 755 1217 l 888 1335 m 998 1289 q 1005 1326 998 1309 q 1024 1356 1012 1343 q 1054 1376 1037 1369 q 1093 1383 1072 1383 q 1131 1375 1113 1383 q 1162 1355 1149 1368 q 1183 1325 1175 1343 q 1190 1287 1190 1308 q 1183 1250 1190 1267 q 1163 1220 1176 1232 q 1133 1200 1150 1207 q 1095 1194 1116 1194 q 1056 1201 1074 1194 q 1025 1220 1038 1208 q 1005 1251 1013 1233 q 998 1289 998 1268 z "},"অ":{"ha":1526,"x_min":-47,"x_max":1573,"o":"m 230 821 q 287 673 257 745 q 349 535 316 600 q 417 416 381 471 q 495 322 453 361 q 584 260 536 282 q 686 238 631 238 q 783 259 741 238 q 856 315 826 281 q 901 394 885 350 q 916 482 916 437 q 909 539 916 510 q 886 595 903 569 q 843 643 870 622 q 774 675 815 665 l 768 666 q 792 623 785 645 q 799 579 799 601 q 786 520 799 547 q 752 473 773 493 q 703 442 730 454 q 644 431 675 431 q 585 442 614 431 q 531 477 555 454 q 492 533 507 500 q 477 610 477 566 q 497 698 477 661 q 556 764 517 735 q 547 780 554 770 q 528 804 539 791 q 504 831 517 817 q 475 859 490 845 l -47 859 l -47 1011 l 1573 1011 l 1573 859 l 1400 859 l 1400 -27 l 1301 -27 q 1250 48 1280 13 q 1183 115 1220 84 q 1103 173 1145 146 q 1013 222 1060 199 q 955 159 987 188 q 881 108 922 130 q 791 75 840 87 q 687 63 743 63 q 538 89 606 63 q 414 160 471 114 q 311 268 358 205 q 223 406 264 331 q 146 563 182 480 q 76 733 111 646 l 222 821 l 230 821 m 743 812 q 855 797 804 812 q 945 758 905 783 q 1013 699 984 732 q 1060 627 1041 665 q 1087 548 1078 589 q 1097 467 1097 507 q 1094 423 1097 446 q 1086 378 1091 401 q 1161 333 1126 356 q 1219 290 1196 311 l 1223 290 l 1223 859 l 684 859 q 713 811 703 834 q 728 812 722 812 q 743 812 734 812 z "},"আ":{"ha":1873,"x_min":-47,"x_max":1921,"o":"m 230 821 q 287 673 257 745 q 349 535 316 600 q 417 416 381 471 q 495 322 453 361 q 584 260 536 282 q 686 238 631 238 q 783 259 741 238 q 856 315 826 281 q 901 394 885 350 q 916 482 916 437 q 909 539 916 510 q 886 595 903 569 q 843 643 870 622 q 774 675 815 665 l 768 666 q 792 623 785 645 q 799 579 799 601 q 786 520 799 547 q 752 473 773 493 q 703 442 730 454 q 644 431 675 431 q 585 442 614 431 q 531 477 555 454 q 492 533 507 500 q 477 610 477 566 q 497 698 477 661 q 556 764 517 735 q 547 780 554 770 q 528 804 539 791 q 504 831 517 817 q 475 859 490 845 l -47 859 l -47 1011 l 1491 1011 q 1528 1008 1507 1011 q 1573 997 1550 1005 q 1618 977 1596 989 q 1660 946 1641 964 l 1660 951 q 1672 994 1660 977 q 1703 1011 1684 1011 l 1921 1011 l 1921 859 l 1862 859 q 1817 850 1838 859 q 1781 828 1796 842 q 1756 795 1765 814 q 1748 755 1748 777 l 1748 0 l 1571 0 l 1571 755 q 1562 795 1571 777 q 1539 828 1554 814 q 1503 850 1524 842 q 1458 859 1482 859 l 1400 859 l 1400 -27 l 1301 -27 q 1250 48 1280 13 q 1183 115 1220 84 q 1103 173 1145 146 q 1013 222 1060 199 q 955 159 987 188 q 881 108 922 130 q 791 75 840 87 q 687 63 743 63 q 538 89 606 63 q 414 160 471 114 q 311 268 358 205 q 223 406 264 331 q 146 563 182 480 q 76 733 111 646 l 222 821 l 230 821 m 743 812 q 855 797 804 812 q 945 758 905 783 q 1013 699 984 732 q 1060 627 1041 665 q 1087 548 1078 589 q 1097 467 1097 507 q 1094 423 1097 446 q 1086 378 1091 401 q 1161 333 1126 356 q 1219 290 1196 311 l 1223 290 l 1223 859 l 684 859 q 713 811 703 834 q 728 812 722 812 q 743 812 734 812 z "},"ই":{"ha":958,"x_min":-47,"x_max":1005,"o":"m 1005 859 l 420 859 q 427 830 424 844 q 432 812 430 817 q 508 805 469 812 q 584 785 547 798 q 654 751 621 771 q 712 704 687 731 q 751 644 736 677 q 766 570 766 610 q 747 486 766 524 q 697 418 728 448 q 623 364 665 387 q 535 324 581 340 l 535 320 q 640 269 587 297 q 745 209 694 241 q 843 139 796 176 q 929 60 890 102 l 800 -71 q 708 30 760 -16 q 598 113 656 76 q 476 178 539 150 q 349 227 413 207 q 222 260 285 248 q 102 279 159 273 l 119 456 q 150 453 128 456 q 197 446 172 450 q 245 437 222 441 q 278 431 268 433 q 289 431 283 431 q 300 431 294 431 q 356 434 326 431 q 417 443 386 437 q 477 459 448 449 q 529 484 506 469 q 565 516 551 498 q 578 558 578 534 q 566 600 578 582 q 534 630 553 618 q 497 648 516 642 q 465 654 477 654 q 438 606 456 627 q 395 572 419 586 q 344 551 371 558 q 291 545 317 545 q 237 554 260 545 q 201 578 215 563 q 180 613 186 593 q 173 654 173 633 q 180 697 173 677 q 200 733 188 717 q 230 762 213 749 q 267 785 248 775 q 257 821 263 801 q 246 859 252 841 l -47 859 l -47 1011 l 623 1011 q 608 1078 623 1052 q 569 1118 593 1103 q 517 1138 546 1133 q 460 1143 488 1143 q 417 1140 442 1143 q 363 1133 392 1137 q 301 1126 334 1129 q 237 1123 269 1123 q 141 1134 188 1123 q 59 1173 95 1144 q 0 1255 22 1202 q -22 1391 -22 1308 l 151 1391 q 161 1335 151 1357 q 190 1300 172 1313 q 232 1282 208 1287 q 283 1277 256 1277 q 346 1281 313 1277 q 408 1292 378 1286 q 466 1302 439 1297 q 512 1306 492 1306 q 645 1279 591 1306 q 733 1209 699 1252 q 781 1114 766 1166 q 795 1011 795 1062 l 1005 1011 l 1005 859 z "},"ঈ":{"ha":1211,"x_min":-47,"x_max":1259,"o":"m -47 1011 l 900 1011 q 885 1078 900 1052 q 847 1118 870 1103 q 794 1138 823 1133 q 738 1143 766 1143 q 668 1139 707 1143 q 587 1129 629 1135 q 502 1120 545 1124 q 423 1116 460 1116 q 289 1139 344 1116 q 200 1199 234 1161 q 151 1286 165 1237 q 136 1391 136 1336 l 308 1391 q 324 1327 308 1350 q 364 1292 340 1303 q 416 1276 388 1280 q 469 1273 444 1273 q 555 1278 513 1273 q 637 1290 597 1283 q 715 1301 677 1296 q 789 1306 753 1306 q 923 1279 869 1306 q 1010 1209 977 1252 q 1058 1114 1044 1166 q 1073 1011 1073 1062 l 1259 1011 l 1259 859 l 313 859 q 339 826 326 843 q 359 802 352 810 q 439 812 400 812 q 539 795 493 812 q 622 749 586 779 q 681 682 657 720 q 714 599 705 643 q 784 655 748 630 q 856 699 821 680 q 926 730 892 718 q 991 750 960 743 l 1147 628 q 1083 540 1112 587 q 1035 441 1055 492 q 1005 335 1015 389 q 995 226 995 281 q 1014 78 995 151 q 1069 -56 1033 6 l 947 -184 q 895 -102 918 -147 q 856 -5 872 -56 q 831 100 840 45 q 823 209 823 154 q 829 300 823 255 q 849 389 836 346 q 882 471 862 432 q 931 545 903 511 l 928 548 q 867 501 896 528 q 812 445 839 475 q 761 383 786 415 q 710 318 736 351 q 666 235 695 273 q 599 168 637 196 q 515 124 561 140 q 422 108 470 108 q 298 136 358 108 q 182 220 237 165 l 298 332 q 330 304 315 315 q 360 289 346 294 q 387 282 374 283 q 408 281 399 281 q 470 292 444 281 q 515 320 496 302 q 546 359 534 337 q 564 405 557 382 q 574 450 571 428 q 576 488 576 472 q 569 548 576 519 q 547 600 562 576 q 509 641 532 624 q 456 663 487 657 l 452 656 q 472 618 467 637 q 478 581 478 598 q 466 529 478 553 q 434 486 454 505 q 386 456 414 467 q 328 446 359 446 q 263 459 292 446 q 214 496 235 473 q 183 548 194 519 q 172 610 172 578 q 183 673 172 642 q 218 734 195 705 q 174 795 199 764 q 110 859 149 827 l -47 859 l -47 1011 z "},"উ":{"ha":1160,"x_min":-47,"x_max":1207,"o":"m 231 751 q 275 600 252 675 q 325 456 298 525 q 384 328 351 387 q 459 225 417 269 q 555 156 502 181 q 676 132 608 132 q 771 152 729 132 q 842 205 812 172 q 887 284 871 239 q 903 378 903 329 q 899 426 903 401 q 887 475 895 450 q 841 429 863 448 q 793 398 818 410 q 741 380 768 386 q 679 374 713 374 q 589 390 628 374 q 523 432 550 406 q 482 489 496 458 q 468 553 468 521 l 468 859 l -47 859 l -47 1011 l 835 1011 q 820 1078 835 1052 q 782 1118 805 1103 q 729 1138 758 1133 q 673 1143 701 1143 q 603 1139 642 1143 q 522 1129 564 1135 q 437 1120 479 1124 q 358 1116 395 1116 q 224 1139 279 1116 q 135 1199 169 1161 q 85 1286 100 1237 q 71 1391 71 1336 l 243 1391 q 259 1327 243 1350 q 299 1292 275 1303 q 351 1276 323 1280 q 404 1273 379 1273 q 490 1278 448 1273 q 572 1290 532 1283 q 650 1301 612 1296 q 724 1306 688 1306 q 858 1279 804 1306 q 945 1209 911 1252 q 993 1114 979 1166 q 1008 1011 1008 1062 l 1207 1011 l 1207 859 l 643 859 l 643 582 q 667 536 646 536 q 733 549 703 536 q 792 587 764 561 q 850 652 821 612 q 914 747 880 692 l 927 747 q 995 669 965 713 q 1047 575 1025 625 q 1080 472 1068 525 q 1091 371 1091 420 q 1080 273 1091 322 q 1045 177 1068 223 q 986 91 1021 131 q 905 20 951 50 q 801 -27 859 -9 q 673 -44 743 -44 q 511 -16 584 -44 q 379 63 438 13 q 274 180 320 113 q 191 327 227 248 q 126 492 154 406 q 77 664 99 578 l 222 751 l 231 751 z "},"ঊ":{"ha":1345,"x_min":-47,"x_max":1392,"o":"m 823 582 q 847 536 826 536 q 913 549 883 536 q 972 587 943 561 q 1030 652 1000 612 q 1094 747 1059 692 l 1107 747 q 1174 670 1144 713 q 1226 577 1204 627 q 1259 473 1247 527 q 1271 363 1271 418 q 1261 268 1271 316 q 1231 175 1252 220 q 1174 90 1209 130 q 1088 20 1139 50 q 968 -27 1037 -9 q 810 -44 899 -44 q 543 3 665 -44 q 328 141 421 51 q 172 364 235 232 q 85 665 110 496 l 223 771 l 227 771 q 273 590 249 678 q 329 426 297 502 q 404 289 361 349 q 506 191 446 228 l 509 194 q 450 300 476 244 q 404 415 425 355 q 367 537 383 474 q 336 665 350 600 l 475 771 l 479 771 q 512 622 494 698 q 554 476 530 547 q 608 342 578 405 q 677 233 638 279 q 766 159 716 186 q 878 132 816 132 q 978 154 936 132 q 1048 211 1020 176 q 1089 291 1076 247 q 1103 380 1103 336 q 1098 435 1103 406 q 1084 492 1093 464 q 984 405 1042 435 q 859 374 927 374 q 769 390 808 374 q 703 432 730 406 q 662 489 675 458 q 648 553 648 521 l 648 859 l -47 859 l -47 1011 l 1018 1011 q 1003 1078 1018 1052 q 965 1118 988 1103 q 912 1138 941 1133 q 856 1143 884 1143 q 786 1139 825 1143 q 705 1129 747 1135 q 620 1120 663 1124 q 541 1116 578 1116 q 407 1139 462 1116 q 318 1199 352 1161 q 269 1286 283 1237 q 254 1391 254 1336 l 426 1391 q 442 1327 426 1350 q 482 1292 458 1303 q 534 1276 506 1280 q 587 1273 562 1273 q 673 1278 631 1273 q 755 1290 715 1283 q 833 1301 795 1296 q 907 1306 871 1306 q 1041 1279 987 1306 q 1128 1209 1095 1252 q 1176 1114 1162 1166 q 1191 1011 1191 1062 l 1392 1011 l 1392 859 l 823 859 l 823 582 z "},"ঋ":{"ha":1370,"x_min":81,"x_max":1417,"o":"m 1133 0 q 1049 121 1101 63 q 933 229 996 179 l 933 -27 l 833 -27 q 758 73 802 28 q 663 154 714 118 q 554 219 612 191 q 438 268 497 247 q 319 305 378 290 q 203 332 260 321 l 203 528 q 252 563 218 541 q 330 609 285 584 q 429 661 375 634 q 540 711 483 687 q 525 744 532 728 q 507 770 517 760 q 464 735 489 750 q 411 709 439 720 q 350 692 382 698 q 287 687 318 687 q 210 696 247 687 q 144 726 173 706 q 99 776 116 745 q 81 849 81 806 q 91 908 81 882 q 118 955 100 935 q 160 985 135 974 q 216 996 184 996 q 268 986 245 996 q 309 961 292 977 q 335 923 326 945 q 344 877 344 901 q 344 871 344 873 q 343 865 344 868 l 353 857 q 427 891 395 870 q 481 933 459 911 q 516 977 503 956 q 536 1013 530 998 l 545 1013 q 595 968 572 991 q 637 916 618 945 q 674 852 657 888 q 707 767 692 816 q 732 773 720 770 q 756 777 745 775 l 756 1011 l 933 1011 l 933 444 q 1004 399 970 423 q 1063 346 1038 374 l 1067 346 l 1067 1011 l 1417 1011 l 1417 859 l 1244 859 l 1244 0 l 1133 0 m 752 290 l 756 290 l 756 589 q 698 580 736 588 q 615 557 661 572 q 520 520 569 543 q 431 467 472 497 l 431 458 q 517 427 471 446 q 608 384 564 407 q 690 336 652 361 q 752 290 728 312 z "},"ঌ":{"ha":1036,"x_min":95,"x_max":962,"o":"m 664 -72 l 576 15 q 584 95 584 58 q 568 189 584 149 q 525 256 552 229 q 461 295 497 282 q 385 309 425 309 q 328 301 355 309 q 281 278 301 294 q 249 240 261 263 q 237 184 237 216 l 245 182 q 287 219 262 209 q 337 229 311 229 q 388 219 366 229 q 425 193 410 210 q 448 155 440 176 q 455 111 455 134 q 446 61 455 85 q 418 16 437 36 q 372 -16 400 -3 q 305 -28 344 -28 q 227 -13 265 -28 q 160 31 189 2 q 113 104 130 60 q 95 204 95 147 q 120 323 95 271 q 185 409 144 374 q 278 462 226 444 q 387 480 331 480 q 499 463 443 480 q 601 407 555 445 q 677 311 647 370 q 710 170 707 252 q 763 244 746 205 q 779 329 779 284 q 752 431 779 387 q 681 508 725 474 q 579 568 636 541 q 464 621 523 595 q 348 674 405 647 q 247 737 292 702 q 176 818 203 772 q 149 924 149 863 q 152 976 149 944 q 175 1044 156 1007 l 343 986 q 333 918 326 948 q 365 863 340 888 q 428 817 389 838 q 513 774 467 795 q 611 730 559 753 q 712 681 662 707 q 807 622 762 654 q 887 549 852 589 q 941 457 921 508 q 962 341 962 406 q 938 204 962 266 q 873 93 913 143 q 778 2 832 42 q 664 -72 724 -39 z "},"এ":{"ha":1139,"x_min":68,"x_max":1004,"o":"m 548 581 q 579 597 562 591 q 618 603 596 603 q 668 593 646 603 q 704 566 690 583 q 726 527 719 549 q 734 482 734 505 q 726 438 734 463 q 700 393 719 414 q 650 356 682 371 q 571 342 618 342 q 480 358 522 342 q 409 405 439 375 q 362 477 379 435 q 345 568 345 518 q 370 686 345 629 q 438 792 395 743 q 539 881 481 841 q 661 950 596 922 q 794 995 726 979 q 927 1011 862 1011 q 1004 1004 968 1011 l 1004 -70 l 904 -70 q 867 -7 886 -37 q 824 45 847 22 q 772 81 800 67 q 708 94 743 94 q 627 83 669 94 q 537 57 584 71 q 438 32 490 43 q 328 20 386 20 q 213 38 262 20 q 132 85 164 55 q 84 157 100 116 q 68 247 68 199 q 82 339 68 293 q 123 425 96 385 l 127 425 l 272 319 l 272 317 q 259 270 259 291 q 271 236 259 249 q 299 215 282 222 q 336 204 316 207 q 373 201 356 201 q 447 211 411 201 q 521 233 484 221 q 599 255 559 245 q 684 265 639 265 q 762 254 729 265 q 823 226 794 243 l 827 226 l 827 819 q 766 810 798 819 q 702 787 733 802 q 641 752 670 772 q 589 709 612 732 q 554 660 567 686 q 541 608 541 634 q 544 583 541 596 l 548 581 z "},"ঐ":{"ha":1398,"x_min":68,"x_max":1316,"o":"m 548 581 q 579 597 562 591 q 618 603 596 603 q 668 592 646 603 q 704 565 690 582 q 726 527 719 549 q 734 484 734 506 q 726 439 734 464 q 700 393 719 414 q 650 356 682 371 q 571 342 618 342 q 480 358 522 342 q 409 405 439 375 q 362 477 379 435 q 345 568 345 518 q 370 686 345 629 q 438 792 395 743 q 539 881 481 841 q 661 950 596 922 q 794 995 726 979 q 927 1011 862 1011 q 1004 1004 968 1011 l 1004 762 q 1058 794 1034 772 q 1099 845 1082 817 q 1123 907 1115 874 q 1132 972 1132 941 q 1122 1029 1132 1002 q 1093 1077 1113 1057 q 1043 1111 1074 1098 q 970 1123 1013 1123 q 905 1117 937 1123 q 840 1105 873 1112 q 773 1093 807 1099 q 702 1087 739 1087 q 556 1108 612 1087 q 470 1168 500 1129 q 428 1264 439 1207 q 416 1392 416 1320 l 594 1392 q 621 1283 594 1316 q 708 1249 647 1249 q 780 1256 741 1249 q 861 1271 819 1263 q 948 1286 903 1279 q 1036 1293 992 1293 q 1151 1267 1099 1293 q 1239 1198 1202 1241 q 1296 1101 1276 1156 q 1316 987 1316 1046 q 1307 898 1316 943 q 1279 809 1297 852 q 1234 727 1261 766 q 1173 658 1208 688 q 1096 608 1138 628 q 1004 583 1053 588 l 1004 -71 l 904 -71 q 867 -8 886 -38 q 824 44 848 22 q 771 81 800 67 q 705 94 742 94 q 626 83 668 94 q 537 57 584 71 q 437 32 490 43 q 328 20 385 20 q 212 38 261 20 q 132 85 163 55 q 84 157 100 116 q 68 247 68 199 q 82 339 68 293 q 123 425 96 385 l 127 425 l 272 319 l 272 317 q 259 270 259 291 q 271 236 259 249 q 299 215 282 222 q 336 204 316 207 q 373 201 356 201 q 447 211 411 201 q 521 233 484 221 q 599 255 559 245 q 684 265 639 265 q 762 254 729 265 q 823 226 794 243 l 827 226 l 827 819 q 765 810 798 819 q 701 786 733 801 q 640 752 669 772 q 589 709 611 732 q 554 660 567 686 q 541 609 541 635 q 544 583 541 596 l 548 581 z "},"ও":{"ha":1076,"x_min":75,"x_max":1002,"o":"m 223 676 l 227 676 q 306 443 261 545 q 404 271 351 341 q 516 165 457 201 q 638 129 576 129 q 715 145 681 129 q 775 187 750 161 q 813 247 800 213 q 827 317 827 281 q 818 374 827 345 q 789 429 808 403 q 760 393 777 409 q 721 367 742 378 q 676 351 700 356 q 631 345 653 345 q 583 352 606 345 q 543 374 560 359 q 515 412 526 389 q 505 466 505 435 q 516 524 505 499 q 548 567 528 549 q 591 596 567 585 q 638 613 614 607 q 683 622 662 620 q 718 625 704 625 q 737 714 737 666 q 727 781 737 748 q 697 841 717 814 q 649 883 677 867 q 585 899 621 899 q 534 890 559 899 q 488 861 510 881 l 491 855 q 537 844 518 855 q 567 817 555 833 q 585 779 579 800 q 590 738 590 758 q 580 684 590 709 q 551 639 570 659 q 507 609 533 620 q 450 597 481 597 q 386 611 417 597 q 331 648 355 624 q 293 707 307 673 q 279 785 279 742 q 306 894 279 844 q 380 982 334 945 q 486 1040 426 1019 q 610 1061 545 1061 q 741 1034 684 1061 q 834 963 797 1007 q 891 863 872 920 q 911 747 911 807 q 900 662 911 704 q 868 580 890 619 q 931 519 905 554 q 972 445 956 484 q 995 366 987 406 q 1002 292 1002 326 q 977 161 1002 222 q 907 54 953 100 q 796 -19 861 7 q 649 -46 731 -46 q 491 -17 562 -46 q 360 62 419 13 q 256 176 302 112 q 175 308 210 239 q 115 445 140 377 q 75 572 90 513 l 223 676 z "},"ঔ":{"ha":1320,"x_min":75,"x_max":1238,"o":"m 223 676 l 227 676 q 306 443 261 545 q 404 271 351 341 q 516 165 457 201 q 638 129 576 129 q 715 145 681 129 q 775 187 750 161 q 813 247 800 213 q 827 317 827 281 q 818 374 827 345 q 789 429 808 403 q 760 393 777 409 q 721 367 742 378 q 676 351 700 356 q 631 345 653 345 q 583 352 606 345 q 543 374 560 359 q 515 412 526 389 q 505 466 505 435 q 516 524 505 499 q 548 567 528 549 q 591 596 567 585 q 638 613 614 607 q 683 622 662 620 q 718 625 704 625 q 737 714 737 666 q 727 781 737 748 q 697 841 717 814 q 649 883 677 867 q 585 899 621 899 q 534 890 559 899 q 488 861 510 881 l 491 855 q 537 844 518 855 q 567 817 555 833 q 585 779 579 800 q 590 738 590 758 q 580 684 590 709 q 551 639 570 659 q 507 609 533 620 q 450 597 481 597 q 386 611 417 597 q 331 648 355 624 q 293 707 307 673 q 279 785 279 742 q 306 894 279 844 q 380 982 334 945 q 486 1040 426 1019 q 610 1061 545 1061 q 741 1034 684 1061 q 834 963 797 1007 q 891 863 872 920 q 911 747 911 806 q 907 691 911 719 q 893 637 903 664 q 972 687 941 661 q 1023 742 1004 713 q 1049 799 1042 770 q 1057 859 1057 829 q 1037 952 1057 915 q 984 1016 1017 990 q 905 1057 950 1041 q 810 1084 860 1073 q 706 1105 760 1095 q 602 1127 652 1114 q 507 1159 552 1140 q 428 1208 462 1178 q 375 1283 395 1239 q 355 1392 355 1328 l 533 1392 q 553 1335 533 1358 q 606 1296 572 1312 q 685 1270 640 1280 q 781 1249 730 1259 q 886 1226 832 1238 q 990 1197 939 1215 q 1086 1154 1041 1179 q 1165 1091 1131 1128 q 1219 1001 1199 1053 q 1238 878 1238 949 q 1219 754 1238 814 q 1164 644 1200 695 q 1076 550 1128 592 q 957 477 1024 507 q 991 383 981 431 q 1002 292 1002 334 q 977 161 1002 222 q 907 54 953 100 q 796 -19 861 7 q 649 -46 731 -46 q 491 -17 562 -46 q 360 62 419 13 q 256 176 302 112 q 175 308 210 239 q 115 445 140 377 q 75 572 90 513 l 223 676 z "},"ৠ":{"ha":1369,"x_min":81,"x_max":1417,"o":"m 507 770 q 464 735 489 750 q 411 709 439 720 q 350 692 382 698 q 287 687 318 687 q 210 696 247 687 q 144 726 173 706 q 99 776 116 745 q 81 849 81 806 q 91 908 81 882 q 118 955 100 935 q 160 985 135 974 q 216 996 184 996 q 268 986 245 996 q 309 961 292 977 q 335 923 326 945 q 344 877 344 901 q 344 871 344 873 q 343 865 344 868 l 353 857 q 427 891 395 870 q 481 933 459 911 q 516 977 503 956 q 536 1013 530 998 l 545 1013 q 595 968 572 991 q 637 916 618 945 q 674 852 657 888 q 707 767 692 816 q 732 773 720 770 q 756 777 745 775 l 756 1011 l 933 1011 l 933 444 q 1004 399 970 423 q 1063 346 1038 374 l 1067 346 l 1067 1011 l 1417 1011 l 1417 859 l 1244 859 l 1244 -27 l 1145 -27 q 1109 42 1131 8 q 1060 109 1087 77 q 1000 171 1032 141 q 933 229 968 201 l 933 -18 q 877 -34 909 -24 q 812 -54 846 -43 q 746 -77 779 -65 q 686 -99 713 -88 l 686 -107 q 763 -126 726 -117 q 832 -148 799 -136 q 897 -173 865 -159 q 960 -203 928 -186 l 960 -349 l 951 -349 q 859 -305 910 -326 q 754 -266 807 -284 q 650 -233 701 -248 q 561 -211 600 -219 l 561 -14 q 662 32 611 12 q 769 73 713 53 q 644 172 712 130 q 502 245 576 214 q 353 297 429 276 q 203 332 277 317 l 203 528 q 252 563 218 541 q 330 609 285 584 q 429 661 375 634 q 540 711 483 687 q 525 744 532 728 q 507 770 517 760 m 752 290 l 756 290 l 756 589 q 698 580 736 588 q 615 557 661 572 q 520 520 569 543 q 431 467 472 497 l 431 458 q 517 427 471 446 q 608 384 564 407 q 690 336 652 361 q 752 290 728 312 z "},"ৡ":{"ha":1388,"x_min":95,"x_max":1314,"o":"m 280 1106 q 299 1041 280 1067 q 352 998 319 1015 q 430 970 386 981 q 525 950 475 959 q 627 932 574 941 q 730 908 680 923 q 824 872 780 894 q 902 817 869 850 q 955 735 936 783 q 975 621 975 688 q 972 582 975 600 q 1098 522 1037 553 q 1207 448 1160 490 q 1284 351 1255 406 q 1314 219 1314 295 q 1289 88 1314 149 q 1221 -27 1263 27 q 1122 -133 1178 -82 q 1003 -233 1065 -184 l 915 -146 q 923 -66 923 -103 q 907 28 923 -12 q 864 94 891 68 q 800 134 836 121 q 724 147 764 147 q 667 140 694 147 q 620 117 640 132 q 588 78 600 102 q 576 23 576 55 l 584 20 q 626 58 602 47 q 676 68 650 68 q 727 58 705 68 q 764 32 749 48 q 787 -6 779 15 q 794 -51 794 -28 q 785 -101 794 -76 q 758 -145 776 -125 q 711 -177 739 -165 q 644 -189 683 -189 q 566 -174 604 -189 q 499 -130 528 -159 q 452 -58 469 -101 q 434 43 434 -14 q 445 124 434 87 q 475 193 456 162 q 522 246 495 223 q 581 286 549 269 q 583 311 582 299 q 584 335 584 323 q 568 429 584 389 q 525 496 552 469 q 461 535 497 522 q 385 549 425 549 q 328 541 355 549 q 281 518 301 534 q 249 480 261 503 q 237 425 237 456 l 245 422 q 287 459 262 449 q 337 469 311 469 q 388 459 366 469 q 425 433 410 450 q 448 395 440 416 q 455 351 455 374 q 446 301 455 326 q 418 256 437 276 q 372 224 400 237 q 305 212 344 212 q 227 227 265 212 q 160 271 189 242 q 113 344 130 300 q 95 444 95 387 q 120 563 95 511 q 185 649 144 614 q 278 702 226 684 q 387 720 331 720 q 498 702 443 720 q 598 644 553 683 q 674 547 644 606 q 710 410 704 489 q 766 505 743 456 q 789 605 789 554 q 769 675 789 646 q 717 723 750 703 q 640 757 684 743 q 547 782 596 770 q 445 805 497 793 q 344 832 393 817 q 250 869 294 847 q 173 923 206 890 q 121 1000 140 955 q 102 1106 102 1044 l 280 1106 m 1049 8 q 1105 103 1082 54 q 1128 203 1128 153 q 1112 277 1128 244 q 1067 336 1095 309 q 1001 385 1039 362 q 919 428 962 407 q 874 365 899 395 q 821 305 850 334 q 903 268 864 292 q 973 207 942 243 q 1024 120 1004 170 q 1049 8 1044 71 z "},"ক":{"ha":1329,"x_min":-47,"x_max":1377,"o":"m 648 859 l -47 859 l -47 1011 l 1377 1011 l 1377 859 l 825 859 l 825 806 q 925 791 874 804 q 1025 753 977 777 q 1115 696 1073 730 q 1188 622 1157 663 q 1238 532 1219 581 q 1256 431 1256 484 q 1241 336 1256 382 q 1200 252 1227 289 q 1134 192 1173 215 q 1048 170 1095 170 q 984 182 1013 170 q 935 214 956 194 q 904 261 915 235 q 892 317 892 288 q 902 371 892 346 q 928 416 911 397 q 968 447 945 435 q 1020 458 991 458 q 1099 433 1059 458 l 1103 437 q 1076 509 1101 475 q 1011 567 1051 542 q 923 606 972 591 q 825 620 873 620 l 825 -27 l 725 -27 q 659 67 699 24 q 567 146 618 110 q 458 212 517 182 q 339 264 400 241 q 215 303 277 287 q 95 331 153 320 l 95 528 q 143 564 110 541 q 221 616 176 587 q 319 675 266 644 q 429 732 373 705 q 542 779 486 759 q 648 806 597 799 l 648 859 m 322 466 l 322 458 q 440 412 389 434 q 530 368 492 389 q 596 327 568 347 q 644 290 623 308 l 648 290 l 648 619 q 590 605 627 618 q 506 572 552 593 q 412 524 460 551 q 322 466 363 496 z "},"খ":{"ha":1059,"x_min":81,"x_max":1106,"o":"m 353 857 q 427 891 395 870 q 481 933 459 911 q 516 977 503 956 q 536 1013 530 998 l 545 1013 q 626 910 600 968 q 652 791 652 852 q 635 694 652 744 q 587 601 619 645 q 507 524 555 557 q 394 473 458 490 l 394 468 q 485 439 434 459 q 586 395 536 420 q 681 342 637 370 q 752 290 725 315 l 756 290 l 756 1011 l 1106 1011 l 1106 859 l 933 859 l 933 -27 l 833 -27 q 767 67 808 24 q 676 146 726 110 q 567 212 625 182 q 447 264 509 241 q 324 303 386 287 q 203 331 262 320 l 203 562 q 354 613 298 585 q 439 670 410 642 q 476 725 468 699 q 485 772 485 752 q 446 736 469 752 q 396 709 423 720 q 339 693 370 699 q 279 687 309 687 q 205 696 241 687 q 142 726 170 706 q 98 776 115 745 q 81 849 81 807 q 91 908 81 882 q 118 955 100 935 q 160 985 135 974 q 216 996 184 996 q 268 986 245 996 q 309 961 292 977 q 335 923 326 945 q 344 877 344 901 q 344 871 344 873 q 343 865 344 868 l 353 857 z "},"গ":{"ha":1070,"x_min":81,"x_max":1118,"o":"m 768 0 l 768 562 q 685 707 723 648 q 612 802 648 766 q 539 855 576 839 q 458 871 502 871 q 357 844 397 871 q 288 768 317 816 q 316 772 302 771 q 346 774 330 774 q 434 761 391 774 q 511 723 477 748 q 565 663 545 699 q 586 580 586 627 q 573 504 586 543 q 538 428 559 466 q 487 353 516 390 q 427 283 458 317 q 364 221 396 250 q 304 170 332 192 l 180 290 q 278 372 235 332 q 350 448 320 412 q 394 514 379 484 q 410 566 410 544 q 403 591 410 580 q 385 608 396 602 q 359 618 374 615 q 327 622 344 622 q 262 612 298 622 q 180 580 226 602 l 81 709 q 99 786 85 746 q 134 863 112 825 q 186 934 156 901 q 256 993 217 968 q 342 1033 295 1018 q 444 1048 389 1048 q 550 1031 502 1048 q 638 989 598 1015 q 709 928 677 962 q 764 859 740 895 l 768 859 l 768 1011 l 1118 1011 l 1118 859 l 945 859 l 945 0 l 768 0 z "},"ঘ":{"ha":1012,"x_min":-47,"x_max":1059,"o":"m 107 808 q 108 833 107 821 q 110 859 109 846 l -47 859 l -47 1011 l 1059 1011 l 1059 859 l 886 859 l 886 -27 l 787 -27 q 720 67 761 24 q 628 146 679 110 q 518 212 577 182 q 397 264 459 241 q 273 303 335 287 q 152 331 210 320 l 152 473 q 202 515 174 492 q 258 557 230 537 q 191 596 220 571 q 144 653 163 621 q 116 725 125 686 q 107 808 107 764 m 516 687 q 558 632 538 661 q 592 572 577 603 q 545 551 572 564 q 488 523 517 538 q 431 493 459 508 q 384 463 404 477 l 384 458 q 502 412 451 434 q 592 368 553 389 q 657 327 630 347 q 705 290 685 308 l 709 290 l 709 859 l 286 859 q 284 836 285 847 q 283 814 283 825 q 290 757 283 784 q 312 710 296 730 q 351 679 327 690 q 412 667 376 667 q 457 671 433 667 q 504 683 481 675 l 516 687 z "},"ঙ":{"ha":1185,"x_min":75,"x_max":1103,"o":"m 720 1127 q 822 1115 774 1127 q 907 1079 871 1103 q 965 1017 944 1055 q 987 928 987 979 q 956 817 987 865 q 876 738 924 770 q 770 691 828 707 q 659 675 713 675 q 630 676 643 675 q 602 681 616 677 q 629 608 614 636 q 662 565 644 581 q 698 544 679 549 q 739 538 718 538 q 795 547 768 538 q 846 569 823 555 q 889 598 869 582 q 926 632 909 615 q 957 664 943 648 q 981 689 970 679 l 994 689 q 1076 546 1049 624 q 1103 387 1103 468 q 1091 279 1103 333 q 1055 176 1079 225 q 995 85 1031 127 q 912 12 960 43 q 807 -37 865 -19 q 681 -54 749 -54 q 518 -25 592 -54 q 382 56 444 5 q 273 177 321 108 q 186 328 224 247 q 121 496 149 408 q 75 671 93 583 l 218 774 l 222 774 q 262 625 239 701 q 316 475 286 548 q 383 338 346 402 q 465 225 420 273 q 562 148 510 176 q 675 120 614 120 q 755 134 719 120 q 819 171 791 148 q 869 223 848 194 q 905 283 890 253 q 926 343 919 314 q 933 396 933 373 q 925 435 933 421 q 878 405 904 418 q 824 383 852 392 q 768 369 796 374 q 716 364 741 364 q 598 396 652 364 q 505 481 545 428 q 440 601 465 534 q 409 740 415 669 q 361 770 390 751 q 300 814 332 789 q 237 870 269 839 q 182 939 206 902 l 295 1057 l 299 1059 q 344 1000 325 1023 q 378 962 363 977 q 404 938 393 947 q 424 923 414 929 q 532 1077 457 1027 q 720 1127 607 1127 m 810 921 q 804 946 810 936 q 785 964 797 957 q 759 974 774 970 q 727 977 744 977 q 674 969 700 977 q 629 945 649 961 q 597 906 609 930 q 585 850 585 882 q 619 842 598 846 q 665 838 640 838 q 716 843 690 838 q 763 859 742 848 q 797 884 784 869 q 810 921 810 900 z "},"চ":{"ha":915,"x_min":-47,"x_max":962,"o":"m 146 859 l -47 859 l -47 1011 l 962 1011 l 962 859 l 323 859 l 323 802 q 418 728 370 756 q 515 686 465 701 q 619 667 565 671 q 733 662 673 662 q 776 639 758 652 q 807 607 794 626 q 826 562 819 588 q 832 503 832 536 q 820 394 832 452 q 782 279 807 336 q 722 168 758 221 q 640 74 686 115 q 537 8 593 33 q 415 -16 480 -16 q 385 -10 408 -16 q 332 13 362 -3 q 270 56 302 28 q 209 125 237 83 q 164 226 182 168 q 146 363 146 285 l 146 859 m 323 386 q 336 261 323 307 q 367 192 349 215 q 402 163 385 169 q 431 157 420 157 q 492 179 456 157 q 561 245 527 201 q 622 352 595 288 q 659 498 649 416 l 654 505 q 566 511 610 505 q 479 528 522 516 q 396 559 436 540 q 323 606 357 578 l 323 386 z "},"ছ":{"ha":1164,"x_min":-47,"x_max":1212,"o":"m -47 1011 l 1212 1011 l 1212 859 l 323 859 l 323 812 q 373 787 349 798 q 421 769 397 776 q 470 759 446 762 q 522 755 494 755 q 583 759 552 755 q 646 770 614 763 q 664 775 652 772 q 691 782 676 779 q 722 787 706 785 q 752 789 739 789 q 814 780 781 789 q 880 753 847 770 q 943 709 913 735 q 997 647 974 682 q 1035 569 1021 612 q 1048 475 1048 526 q 1028 358 1048 414 q 972 251 1008 301 q 890 159 937 201 q 787 86 842 117 l 787 82 q 895 33 840 61 q 1001 -30 949 4 q 1102 -102 1054 -64 q 1191 -182 1150 -141 l 1067 -316 q 971 -217 1024 -262 q 858 -135 918 -172 q 734 -70 798 -98 q 605 -21 670 -41 q 476 11 540 -1 q 355 26 413 22 l 367 203 q 398 201 376 203 q 445 196 420 199 q 493 190 470 193 q 527 184 516 186 q 603 197 564 184 q 679 230 642 209 q 747 280 715 252 q 803 341 779 309 q 841 410 827 374 q 854 481 854 446 q 848 525 854 503 q 828 566 842 547 q 792 601 814 585 q 742 626 771 616 q 718 507 736 560 q 674 413 700 454 q 618 343 649 372 q 555 295 587 314 q 493 267 524 276 q 437 258 462 258 q 395 262 422 258 q 335 279 368 267 q 269 315 302 292 q 208 376 235 338 q 163 471 180 415 q 146 606 146 528 l 146 859 l -47 859 l -47 1011 m 323 637 q 329 545 323 583 q 346 481 336 507 q 368 441 355 456 q 392 419 380 427 q 414 410 404 412 q 429 408 424 408 q 467 417 446 408 q 510 449 489 426 q 549 510 531 471 q 575 608 566 549 l 570 615 q 533 604 556 608 q 478 600 511 600 q 439 602 456 600 q 404 609 421 604 q 367 621 386 614 q 323 637 347 627 z "},"জ":{"ha":1529,"x_min":-47,"x_max":1577,"o":"m -47 1011 l 1577 1011 l 1577 859 l 1074 859 q 1125 814 1091 831 q 1198 790 1159 798 q 1276 779 1237 781 q 1344 776 1316 776 l 1454 656 q 1345 279 1345 463 q 1362 129 1345 203 q 1415 -22 1379 55 l 1300 -146 q 1202 55 1234 -55 q 1169 279 1169 164 q 1191 465 1169 374 q 1256 635 1213 555 q 1190 641 1225 636 q 1118 657 1155 646 q 1046 685 1082 668 q 978 726 1010 701 q 919 783 945 750 q 875 859 892 816 l 726 859 q 681 802 701 833 q 645 740 660 772 q 622 677 630 709 q 614 619 614 646 q 638 542 614 572 q 707 511 663 511 q 749 520 728 511 q 793 549 770 528 q 843 603 816 569 q 905 688 870 637 l 918 688 q 978 643 951 669 q 1024 586 1004 617 q 1059 519 1044 554 q 1082 448 1073 484 q 1095 379 1090 413 q 1099 317 1099 346 q 1072 173 1099 240 q 993 55 1044 105 q 867 -24 942 5 q 696 -54 792 -54 q 524 -25 602 -54 q 384 55 447 4 q 272 174 321 105 q 185 323 223 243 q 119 492 147 404 q 72 671 92 581 l 216 777 l 220 777 q 267 606 242 688 q 322 450 292 523 q 389 316 352 377 q 471 212 425 256 q 572 144 516 168 q 696 120 628 120 q 799 139 757 120 q 868 190 842 158 q 907 263 895 222 q 919 349 919 304 q 916 398 919 373 q 906 446 912 422 q 790 362 844 387 q 685 336 736 336 q 586 359 631 336 q 510 422 542 382 q 461 515 478 462 q 444 628 444 568 q 462 747 444 688 q 522 859 481 807 l -47 859 l -47 1011 z "}}}
